<?xml version="1.0" encoding="UTF-8"?>
<svg id="Layer_2" data-name="Layer 2" xmlns="http://www.w3.org/2000/svg" viewBox="0 0 1839.68 414.3">
  <defs>
    <style>
      .cls-1 {
        fill: #fff;
      }
    </style>
  </defs>
  <g id="Layer_1-2" data-name="Layer 1">
    <g>
      <path class="cls-1" d="M89.95,341.23H46.37c-6.41,0-12.61-1.21-18.59-3.63l.21-.43c0-.28-.11-.5-.32-.64-.21-.14-.39-.21-.53-.21-.29,0-.5,.21-.64,.64-7.84-3.42-14.21-8.72-19.12-15.92-4.91-7.19-7.37-15.92-7.37-26.17v-18.59H.85l1.71-.21v-.85c0-1.42-.78-2.28-2.35-2.56l-.21-.21v-6.84l.64-.21c1.28,0,1.92-.43,1.92-1.28-.28,.14-.67,.21-1.18,.21s-.96,.14-1.39,.43v-47.22H57.69v54.06l-2.56-.21c-3.28,0-6.34,1.57-9.19,4.7,.85,1.28,2.06,1.92,3.63,1.92l2.56-.21c.43,0,1,.04,1.71,.11,.71,.07,1.57,.46,2.56,1.18,.57-.85,.99-1.85,1.28-2.99v5.56c0,4.84,.89,8.41,2.67,10.68,1.78,2.28,3.95,3.42,6.52,3.42s4.73-1.14,6.52-3.42c1.78-2.28,2.67-5.84,2.67-10.68V45.3H41.45V0h92.3V289.95c0,34.19-14.6,51.28-43.8,51.28ZM3.42,268.58c.43-.28,.71-.64,.85-1.07,0-.43-.14-.64-.43-.64-.14,0-.43,.11-.85,.32-.43,.21-.64,.53-.64,.96,0,.29,.14,.43,.43,.43h.64Zm2.78,16.45c.43,0,.78-.35,1.07-1.07,0-.14-.04-.28-.11-.43-.07-.14-.18-.21-.32-.21s-.43,.11-.85,.32c-.43,.21-.64,.53-.64,.96,0,.29,.14,.43,.43,.43h.43Zm1.5-51.92c1.14,0,1.92-.57,2.35-1.71-.43,0-.78-.07-1.07-.21-.29-.14-.57-.35-.85-.64-.29-.28-.64-.5-1.07-.64-.85,.43-1.28,.93-1.28,1.5,0,1.14,.64,1.71,1.92,1.71Zm5.34,31.62v-.21c0-.28-.5-.71-1.5-1.28-1-.57-1.78-.85-2.35-.85-.57,.14-.85,.36-.85,.64,0,.43,.46,.71,1.39,.85,.92,.14,1.53,.21,1.82,.21l1.5,.64Zm-3.85,24.79c.43,0,.78-.35,1.07-1.07,0-.14-.04-.28-.11-.43-.07-.14-.18-.21-.32-.21s-.43,.11-.85,.32c-.43,.21-.64,.53-.64,.96,0,.29,.28,.43,.85,.43Zm3.85,13.46l.21-1.71c0-.71-.25-1.6-.75-2.67-.5-1.07-1.25-1.6-2.24-1.6-.85,0-1.43,.5-1.71,1.5h.64c.57,0,1,.21,1.28,.64,.28,.43,.5,.93,.64,1.5,.14,.57,.32,1.07,.53,1.5,.21,.43,.67,.71,1.39,.85Zm2.99,10.26v-.64c0-3.42-1-5.63-2.99-6.62v1.28c0,2.99,.99,4.99,2.99,5.98Zm0-75.85c0-1.14,.67-1.71,2.03-1.71s2.17-.43,2.46-1.28c-.71-.28-1.43-.43-2.14-.43-.43,0-1.25,.14-2.46,.43-1.21,.29-1.82,.78-1.82,1.5,0,.57,.64,1.07,1.92,1.5Zm.21,43.37c2.56,0,3.99-1.99,4.27-5.98,0-.14-.21-.21-.64-.21-1.28,0-2.21,.32-2.78,.96-.57,.64-1.03,1.46-1.39,2.46-.36,1-.75,1.85-1.18,2.56l1.71,.21Zm.21-15.38l.43-.21c.28-.28,.57-.57,.85-.85s.53-.53,.75-.75c.21-.21,.32-.39,.32-.53l-.21,.21c-.14,.14-.5,.46-1.07,.96-.57,.5-.93,.89-1.07,1.17Zm2.14-11.75c1.14-.14,1.78-.64,1.92-1.5-.29,.14-.64,.25-1.07,.32-.43,.07-.85,.18-1.28,.32-.43,.14-.64,.43-.64,.85h1.07Zm1.28,65.6c.43-.28,.71-.64,.85-1.07,0-.28-.14-.43-.43-.43-.14,0-.43,.11-.85,.32-.43,.21-.64,.46-.64,.75s.14,.43,.43,.43h.64Zm0,11.97c.14,0,.35-.14,.64-.43s.57-.6,.85-.96c.28-.35,.46-.57,.53-.64,.07-.07,.11-.18,.11-.32l-1.5,.85c-.57,.71-.85,1.14-.85,1.28v.21h.21Zm.64-92.3c.43-.14,.96-.21,1.6-.21s1.25-.07,1.82-.21c.57-.14,.92-.5,1.07-1.07h-1.6c-.64,0-1.25,.07-1.82,.21-.57,.14-.93,.57-1.07,1.28Zm1.28,88.24c.28,0,.67-.18,1.18-.53,.5-.35,.75-1.1,.75-2.24,0-1.42-.57-2.14-1.71-2.14,0,1-.36,1.5-1.07,1.5h-.43v2.99c.43,.29,.85,.43,1.28,.43Zm2.78-53.2l.43-.85c0-.85-.5-1.28-1.5-1.28-.71,0-1.21,.43-1.5,1.28,.57,0,1.03,.14,1.39,.43,.35,.29,.6,.43,.75,.43h.43Zm4.06,58.97l.85-.21v-.21c0-.28-.43-.64-1.28-1.07s-1.5-.78-1.92-1.07l-1.71-.43c0,.14,.07,.25,.21,.32,.14,.07,.71,.39,1.71,.96l.21,.43c.14,.29,.39,.57,.75,.85,.35,.29,.75,.43,1.18,.43Zm-2.99-55.34c.43,0,.78-.35,1.07-1.07,0-.14-.04-.28-.11-.43-.07-.14-.18-.21-.32-.21s-.43,.11-.85,.32c-.43,.21-.64,.53-.64,.96,0,.29,.14,.43,.43,.43h.43Zm1.71,50.64c.43-.28,.71-.64,.85-1.07,0-.43-.14-.64-.43-.64-.14,0-.43,.11-.85,.32-.43,.21-.64,.53-.64,.96,0,.29,.14,.43,.43,.43h.64Zm11.11-86.32l.21-1.07c0-.71-.36-1.32-1.07-1.82-.71-.5-1.71-.75-2.99-.75-1.14,0-2.07,.25-2.78,.75-.71,.5-1.07,1.1-1.07,1.82l.21,1.07c.71-.28,1.35-.5,1.92-.64,.57-.14,.99-.21,1.28-.21,1,0,1.78,.07,2.35,.21,.57,.14,1.21,.36,1.92,.64Zm7.48,83.33v-1.92c0-.99-.07-1.85-.21-2.56-.14-.71-.57-1.21-1.28-1.5,0,.85-.21,1.28-.64,1.28-.29,0-.64-.32-1.07-.96-.43-.64-.75-1.25-.96-1.82-.21-.57-.32-1.07-.32-1.5,0-1,.5-1.5,1.5-1.5v2.99h2.14c4.41,0,7.19,.5,8.33,1.5-.71-7.12-4.99-10.68-12.82-10.68-1.57,0-3.28,.14-5.13,.43,.28,.71,.43,1.43,.43,2.14,0,1.57-.93,3.13-2.78,4.7-1.14,.71-1.71,1.36-1.71,1.92s.35,1.07,1.07,1.5c.43-.99,.71-1.5,.85-1.5l.43,1.5c0,2.42,.5,3.63,1.5,3.63,.43,0,.92-.11,1.5-.32,.57-.21,.92-.39,1.07-.53,.14-.14,.21-.35,.21-.64,0-.14-.07-.35-.21-.64-.14-.28-.21-.57-.21-.85s.28-.5,.85-.64c.14,1.57,.67,2.64,1.6,3.21,.92,.57,2.88,1.5,5.88,2.78Zm-9.62-72.01c.28-.14,.5-.5,.64-1.07,0-.28-.11-.5-.32-.64-.21-.14-.46-.21-.75-.21l-.43,.85c0,.29,.11,.53,.32,.75s.39,.32,.53,.32Zm1.28,12.39c.57,0,.92-.21,1.07-.64v-.43l-.21-.43c-1,0-1.5,.18-1.5,.53v.96h.64Zm4.91-23.08l.43-.64c0-.57-.18-.96-.53-1.17-.36-.21-.68-.32-.96-.32-.85,0-1.36,.5-1.5,1.5l.43-.21c.14,0,.39,.14,.75,.43,.35,.29,.6,.43,.75,.43h.64Zm10.26,11.11c.43-.28,.71-.64,.85-1.07l-.21-.43c-.14,0-.46,.11-.96,.32-.5,.21-.75,.46-.75,.75s.14,.43,.43,.43h.64Zm5.56,61.32l.64-1.28c-.57,.14-.93,.5-1.07,1.07l.43,.21Z"/>
      <path class="cls-1" d="M237.6,341.23h-45.51c-12.54,0-23.18-4.38-31.94-13.14s-13.28-19.55-13.57-32.37V129.48c0-12.39,4.38-22.93,13.14-31.62,8.76-8.69,19.26-13.03,31.52-13.03h47.22c12.39,0,22.93,4.35,31.62,13.03,8.69,8.69,13.03,19.23,13.03,31.62v97.65h-78.84v55.77c0,7.98,3.56,12.25,10.68,12.82,2.85,0,5.31-1.14,7.37-3.42,2.06-2.28,3.1-5.41,3.1-9.4v-37.39h57.69v50.21c0,12.54-4.45,23.26-13.35,32.16-8.9,8.9-19.62,13.35-32.16,13.35Zm-75-36.32c.71-.71,1.07-1.28,1.07-1.71,0-.14-.18-.39-.53-.75-.36-.35-1.17-.53-2.46-.53-1.71,0-2.56,.5-2.56,1.5,1.28,.14,2.03,.25,2.24,.32,.21,.07,.64,.21,1.28,.43s.96,.39,.96,.53v.21Zm3.85,5.34c.14,0,.21-.07,.21-.21,0-.71-.29-1.39-.85-2.03-.57-.64-.93-.96-1.07-.96v.21c0,.14,.07,.39,.21,.75,.14,.36,.39,.82,.75,1.39,.35,.57,.6,.85,.75,.85Zm2.99,5.13c.57-.28,.85-.57,.85-.85,0-.57-.14-.85-.43-.85-.85,0-1.28,.21-1.28,.64v.85c0,.14,.14,.21,.43,.21h.43Zm4.7,5.34c.14,0,.28-.28,.43-.85,0-.28-.11-.53-.32-.75-.21-.21-.39-.32-.53-.32-.29,.14-.5,.5-.64,1.07,0,.29,.11,.5,.32,.64,.21,.14,.39,.21,.53,.21h.21Zm2.56,3.63c.14,0,.35-.14,.64-.43s.43-.5,.43-.64c0-.43-.14-.64-.43-.64s-.61,.11-.96,.32c-.36,.21-.46,.53-.32,.96-.14,.29,.07,.43,.64,.43Zm8.33-34.4l.21-.85c0-1.14-1-2.21-2.99-3.21l-5.98,.85c0,.14-.07,.21-.21,.21,1.71,0,3.24,.5,4.59,1.5,1.35,1,2.53,1.5,3.53,1.5h.85Zm3.85-3.42c.43,0,.71-.43,.85-1.28h-1.71c.14,.85,.43,1.28,.85,1.28Zm12.61,31.41l-.21-.21c-.14-.14-.53-.53-1.18-1.18s-1.03-.96-1.17-.96l.21,.21c.14,.14,.46,.46,.96,.96,.5,.5,.82,.82,.96,.96l.43,.21Zm4.06-15.17l.43-.85c0-.85-.43-1.28-1.28-1.28-1,0-1.57,.43-1.71,1.28,.43,0,.85,.14,1.28,.43,.43,.29,.71,.43,.85,.43h.43Zm19.87-121.15v-37.61c0-3.99-1.04-7.3-3.1-9.94-2.07-2.63-4.52-3.95-7.37-3.95-2.99,0-5.52,1.32-7.58,3.95-2.07,2.64-3.1,5.95-3.1,9.94v37.61h21.15Zm-14.1,131.62c1.14,0,1.85-.78,2.14-2.35-.85,0-1.46-.46-1.82-1.39-.36-.92-.75-1.46-1.17-1.6-.14,1-.43,1.5-.85,1.5-.14,0-.53-.5-1.17-1.5-.64-1-1.32-1.5-2.03-1.5-.14,0-.25,.04-.32,.11s-.11,.25-.11,.53c0,1.57,.53,2.99,1.6,4.27,1.07,1.28,2.31,1.92,3.74,1.92Zm-1.71-8.33c.43,0,.78-.28,1.07-.85l-.43-.85c-.14,0-.39,.11-.75,.32-.36,.21-.53,.53-.53,.96-.14,.29-.07,.43,.21,.43h.43Zm5.34,25.43c2.42,0,3.92-1,4.49-2.99h-.64c-.71,0-1.46,.25-2.24,.75-.78,.5-1.32,1.25-1.6,2.24Zm4.49-17.95v-.64c0-.71-.25-1.46-.75-2.24-.5-.78-1.25-1.32-2.24-1.6v.64c0,.71,.25,1.46,.75,2.24,.5,.78,1.25,1.32,2.24,1.6Zm22.44,21.15l1.5-.21c-.14-1.57-.64-2.74-1.5-3.53-.85-.78-1.85-1.46-2.99-2.03-1.14-.57-2.17-1.32-3.1-2.24-.93-.92-1.39-2.31-1.39-4.17-1.85-.14-3.85-1.1-5.98-2.88-2.14-1.78-3.92-2.67-5.34-2.67-1,0-2.21,.36-3.63,1.07-.43-1.57-1.14-2.35-2.14-2.35-.29,0-.57,.29-.85,.85,.85,1.28,2.28,2.28,4.27,2.99,3.13,1,4.7,2.78,4.7,5.34v.64l1.92-.43c.57,0,1.14,.18,1.71,.53,.57,.36,1.1,.82,1.6,1.39,.5,.57,1.07,1,1.71,1.28,.64,.29,1.32,.43,2.03,.43l1.5-.21c.71,.71,1.28,1.6,1.71,2.67,.43,1.07,.99,1.92,1.71,2.56,.71,.64,1.57,.96,2.56,.96Zm-20.3-19.66c.43,0,.78-.35,1.07-1.07,0-.14-.04-.28-.11-.43-.07-.14-.18-.21-.32-.21h-.21c-.29,.14-.53,.32-.75,.53-.21,.21-.32,.39-.32,.53v.64h.64Zm23.72-.21c.28-.14,.75-.53,1.39-1.18,.64-.64,.96-.99,.96-1.07v-.32l-2.35,2.56Z"/>
      <path class="cls-1" d="M485.24,337.59h-58.54l-23.93-150.42-23.5,149.14c-.85,.29-1.64,.71-2.35,1.28h-24.14l.21-.21c-.14-.85-.64-1.28-1.5-1.28-.71,0-1.21,.43-1.5,1.28l1.07,.21h-21.37c-.43-.28-1-.53-1.71-.75-.71-.21-1.25-.53-1.6-.96-.36-.43-.53-.92-.53-1.5l.21-1.5c-2.85,.14-4.77,1.07-5.77,2.78l-6.2-44.87c.57-.14,1.07-.5,1.5-1.07-.57-.57-1.14-1-1.71-1.28l-3.63-27.14,.43-1.07c1-1.57,1.5-2.99,1.5-4.27,0-.99-.85-1.71-2.56-2.14l.43,1.5-.43,1.28-22.65-168.16h58.12l11.75,133.54,25-133.54h41.88l25.21,133.54,11.75-133.54h58.12l-33.55,249.14Zm-178.2-143.16c.57-.28,1-.64,1.28-1.07,0-.14-.07-.28-.21-.43-.14-.14-.36-.21-.64-.21-.43,.14-.78,.43-1.07,.85,0,.29,.07,.5,.21,.64,.14,.14,.28,.21,.43,.21Zm6.41-.21c.14,0,.28-.14,.43-.43-.29,0-.53-.07-.75-.21-.21-.14-.39-.21-.53-.21l-.21,.43c0,.29,.14,.43,.43,.43h.64Zm0,5.98c.57-.28,.85-.64,.85-1.07l-.21-.43c-1,0-1.5,.18-1.5,.53v.96h.85Zm4.27,14.96c.43,0,.78-.35,1.07-1.07,0-.14-.04-.28-.11-.43-.07-.14-.18-.21-.32-.21s-.43,.11-.85,.32-.64,.53-.64,.96c0,.29,.14,.43,.43,.43h.43Zm.21,67.09c.57-.28,.85-.64,.85-1.07s-.14-.64-.43-.64c-.14,0-.43,.11-.85,.32-.43,.21-.64,.53-.64,.96,0,.29,.14,.43,.43,.43h.64Zm7.26,55.34h-4.7l-.21-1.71c.43,.14,.85,.32,1.28,.53,.43,.21,.85,.32,1.28,.32s.99-.28,1.71-.85l.64,1.71Zm2.35-44.87c-.57-1.85-1.43-3.42-2.56-4.7-.71-.85-1.36-1.78-1.92-2.78-.57,1.28-.85,2.35-.85,3.21,0,2.28,1.78,3.71,5.34,4.27Zm0,25.21l.21-1.71c0-.57-.25-1.42-.75-2.56-.5-1.14-1.32-1.71-2.46-1.71-.71,0-1.21,.5-1.5,1.5,.57,.14,1,.43,1.28,.85,.28,.43,.5,.93,.64,1.5,.14,.57,.35,1.07,.64,1.5,.28,.43,.71,.64,1.28,.64h.64Zm0,11.97c.28,0,.64-.03,1.07-.11,.43-.07,.85-.18,1.28-.32,.43-.14,.64-.5,.64-1.07-.29,.14-.64,.21-1.07,.21s-.85,.11-1.28,.32c-.43,.21-.64,.53-.64,.96Zm3.85,2.99c.43-.28,.71-.64,.85-1.07,0-.43-.14-.64-.43-.64-.14,0-.43,.11-.85,.32-.43,.21-.64,.53-.64,.96,0,.29,.14,.43,.43,.43h.64Zm2.14-107.26c.28-.14,.64-.21,1.07-.21s.85-.11,1.28-.32c.43-.21,.64-.53,.64-.96-.29,0-.68,.04-1.18,.11-.5,.07-.93,.18-1.28,.32-.36,.14-.53,.5-.53,1.07Zm3.42,71.58c.43-.14,.78-.64,1.07-1.5-.43,0-.78-.07-1.07-.21-.29-.14-.57-.35-.85-.64-.29-.28-.64-.5-1.07-.64-.85,.43-1.28,.93-1.28,1.5,0,.71,.28,1.21,.85,1.5h2.35Zm4.06,31.84v-.21c0-.28-.5-.71-1.5-1.28-1-.57-1.78-.85-2.35-.85-.57,.14-.85,.36-.85,.64,0,.43,.46,.71,1.39,.85,.92,.14,1.53,.21,1.82,.21l1.5,.64Zm2.99-27.35c0-1.14,.67-1.71,2.03-1.71s2.17-.43,2.46-1.28c-.71-.28-1.43-.43-2.14-.43-.43,0-1.25,.14-2.46,.43-1.21,.29-1.82,.78-1.82,1.5,0,.43,.64,.93,1.92,1.5Zm.43,27.99l.43-.43c1.14-.71,1.78-1.35,1.92-1.92-.29,.29-.71,.68-1.28,1.17-.57,.5-.93,.82-1.07,.96v.21Zm1.07-11.75c.28,0,.64-.03,1.07-.11,.43-.07,.85-.18,1.28-.32,.43-.14,.64-.5,.64-1.07-.29,.14-.64,.21-1.07,.21s-.85,.11-1.28,.32c-.43,.21-.64,.53-.64,.96Zm2.35-67.09c.43-.28,.71-.64,.85-1.07l-.21-.43c-.14,0-.46,.11-.96,.32-.5,.21-.75,.53-.75,.96,0,.14,.14,.21,.43,.21h.64Zm.64,52.35c.43-.14,.96-.21,1.6-.21s1.25-.07,1.82-.21c.57-.14,.92-.5,1.07-1.07h-1.6c-.64,0-1.25,.07-1.82,.21-.57,.14-.93,.57-1.07,1.28Zm8.33-52.78l.85-.43c.57-.14,.85-.71,.85-1.71,0-.85-.85-1.5-2.56-1.92l-.21,2.14c0,1.28,.35,1.92,1.07,1.92Zm-.21,16.88c.57-.14,.92-.43,1.07-.85l-.43-.85c-.14,0-.43,.11-.85,.32-.43,.21-.64,.53-.64,.96,0,.29,.14,.43,.43,.43h.43Zm-.64-8.97c.28,0,.64-.03,1.07-.11,.43-.07,.85-.18,1.28-.32,.43-.14,.64-.5,.64-1.07-.29,.14-.64,.21-1.07,.21s-.85,.11-1.28,.32c-.43,.21-.64,.53-.64,.96Zm2.99-23.72c.14,0,.43-.07,.85-.21,.43-.14,.67-.32,.75-.53,.07-.21,.11-.39,.11-.53s-.14-.28-.43-.43c-.14,0-.43,.11-.85,.32-.43,.21-.64,.53-.64,.96l.21,.43Zm7.48,71.58l.21-1.07c0-.71-.36-1.32-1.07-1.82-.71-.5-1.71-.75-2.99-.75-1.14,0-2.07,.25-2.78,.75-.71,.5-1.07,1.03-1.07,1.6l.21,1.28c.71-.28,1.35-.5,1.92-.64,.57-.14,.99-.21,1.28-.21,1,0,1.78,.07,2.35,.21,.57,.14,1.21,.36,1.92,.64Zm-1.92,11.11c.14,0,.28-.28,.43-.85,0-.28-.11-.5-.32-.64-.21-.14-.39-.21-.53-.21h-.21l-.43,.85c0,.29,.11,.5,.32,.64,.21,.14,.39,.21,.53,.21h.21Zm1.07,12.61c.71-.14,1.07-.5,1.07-1.07,0-.43-.14-.64-.43-.64s-.61,.18-.96,.53c-.36,.36-.53,.61-.53,.75,0,.29,.14,.43,.43,.43h.43Zm4.91-23.08l.43-.64c0-.57-.18-.96-.53-1.18-.36-.21-.68-.32-.96-.32-.85,0-1.36,.5-1.5,1.5l.43-.21c.14,0,.39,.14,.75,.43,.35,.29,.6,.43,.75,.43h.64Zm7.27-52.99c.43-.28,.71-.64,.85-1.07l-.21-.43c-.29,0-.64,.14-1.07,.43-.43,.29-.64,.5-.64,.64,0,.29,.14,.43,.43,.43h.64Zm2.99,64.1c.43-.28,.71-.64,.85-1.07,0-.43-.14-.64-.43-.64-.14,0-.43,.14-.85,.43-.43,.29-.64,.57-.64,.85s.14,.43,.43,.43h.64Z"/>
      <path class="cls-1" d="M613.87,341.23h-45.51c-12.54,0-23.18-4.38-31.94-13.14s-13.28-19.55-13.57-32.37V129.48c0-12.39,4.38-22.93,13.14-31.62,8.76-8.69,19.26-13.03,31.52-13.03h47.22c12.39,0,22.93,4.35,31.62,13.03,8.69,8.69,13.03,19.23,13.03,31.62v97.65h-78.84v55.77c0,7.98,3.56,12.25,10.68,12.82,2.85,0,5.31-1.14,7.37-3.42,2.06-2.28,3.1-5.41,3.1-9.4v-37.39h57.69v50.21c0,12.54-4.45,23.26-13.35,32.16s-19.62,13.35-32.16,13.35Zm-75-36.32c.71-.71,1.07-1.28,1.07-1.71,0-.14-.18-.39-.53-.75-.36-.35-1.17-.53-2.46-.53-1.71,0-2.56,.5-2.56,1.5,1.28,.14,2.03,.25,2.24,.32,.21,.07,.64,.21,1.28,.43s.96,.39,.96,.53v.21Zm3.85,5.34c.14,0,.21-.07,.21-.21,0-.71-.29-1.39-.85-2.03-.57-.64-.93-.96-1.07-.96v.21c0,.14,.07,.39,.21,.75,.14,.36,.39,.82,.75,1.39,.35,.57,.6,.85,.75,.85Zm2.99,5.13c.57-.28,.85-.57,.85-.85,0-.57-.14-.85-.43-.85-.85,0-1.28,.21-1.28,.64v.85c0,.14,.14,.21,.43,.21h.43Zm4.7,5.34c.14,0,.28-.28,.43-.85,0-.28-.11-.53-.32-.75-.21-.21-.39-.32-.53-.32-.29,.14-.5,.5-.64,1.07,0,.29,.11,.5,.32,.64,.21,.14,.39,.21,.53,.21h.21Zm2.56,3.63c.14,0,.35-.14,.64-.43s.43-.5,.43-.64c0-.43-.14-.64-.43-.64s-.61,.11-.96,.32c-.36,.21-.46,.53-.32,.96-.14,.29,.07,.43,.64,.43Zm8.33-34.4l.21-.85c0-1.14-1-2.21-2.99-3.21l-5.98,.85c0,.14-.07,.21-.21,.21,1.71,0,3.24,.5,4.59,1.5,1.35,1,2.53,1.5,3.53,1.5h.85Zm3.85-3.42c.43,0,.71-.43,.85-1.28h-1.71c.14,.85,.43,1.28,.85,1.28Zm12.61,31.41l-.21-.21c-.14-.14-.53-.53-1.18-1.18s-1.03-.96-1.17-.96l.21,.21c.14,.14,.46,.46,.96,.96,.5,.5,.82,.82,.96,.96l.43,.21Zm4.06-15.17l.43-.85c0-.85-.43-1.28-1.28-1.28-1,0-1.57,.43-1.71,1.28,.43,0,.85,.14,1.28,.43,.43,.29,.71,.43,.85,.43h.43Zm19.87-121.15v-37.61c0-3.99-1.04-7.3-3.1-9.94-2.07-2.63-4.52-3.95-7.37-3.95-2.99,0-5.52,1.32-7.58,3.95-2.07,2.64-3.1,5.95-3.1,9.94v37.61h21.15Zm-14.1,131.62c1.14,0,1.85-.78,2.14-2.35-.85,0-1.46-.46-1.82-1.39-.36-.92-.75-1.46-1.17-1.6-.14,1-.43,1.5-.85,1.5-.14,0-.53-.5-1.17-1.5-.64-1-1.32-1.5-2.03-1.5-.14,0-.25,.04-.32,.11s-.11,.25-.11,.53c0,1.57,.53,2.99,1.6,4.27,1.07,1.28,2.31,1.92,3.74,1.92Zm-1.71-8.33c.43,0,.78-.28,1.07-.85l-.43-.85c-.14,0-.39,.11-.75,.32-.36,.21-.53,.53-.53,.96-.14,.29-.07,.43,.21,.43h.43Zm5.34,25.43c2.42,0,3.92-1,4.49-2.99h-.64c-.71,0-1.46,.25-2.24,.75-.78,.5-1.32,1.25-1.6,2.24Zm4.49-17.95v-.64c0-.71-.25-1.46-.75-2.24-.5-.78-1.25-1.32-2.24-1.6v.64c0,.71,.25,1.46,.75,2.24,.5,.78,1.25,1.32,2.24,1.6Zm22.44,21.15l1.5-.21c-.14-1.57-.64-2.74-1.5-3.53-.85-.78-1.85-1.46-2.99-2.03-1.14-.57-2.17-1.32-3.1-2.24-.93-.92-1.39-2.31-1.39-4.17-1.85-.14-3.85-1.1-5.98-2.88-2.14-1.78-3.92-2.67-5.34-2.67-1,0-2.21,.36-3.63,1.07-.43-1.57-1.14-2.35-2.14-2.35-.29,0-.57,.29-.85,.85,.85,1.28,2.28,2.28,4.27,2.99,3.13,1,4.7,2.78,4.7,5.34v.64l1.92-.43c.57,0,1.14,.18,1.71,.53,.57,.36,1.1,.82,1.6,1.39,.5,.57,1.07,1,1.71,1.28,.64,.29,1.32,.43,2.03,.43l1.5-.21c.71,.71,1.28,1.6,1.71,2.67,.43,1.07,.99,1.92,1.71,2.56,.71,.64,1.57,.96,2.56,.96Zm-20.3-19.66c.43,0,.78-.35,1.07-1.07,0-.14-.04-.28-.11-.43-.07-.14-.18-.21-.32-.21h-.21c-.29,.14-.53,.32-.75,.53-.21,.21-.32,.39-.32,.53v.64h.64Zm23.72-.21c.28-.14,.75-.53,1.39-1.18,.64-.64,.96-.99,.96-1.07v-.32l-2.35,2.56Z"/>
      <path class="cls-1" d="M723.48,337.59h-5.34c.14,0,.35-.11,.64-.32,.28-.21,.5-.46,.64-.75,0-.43-.21-.64-.64-.64-.71,.29-1.07,.53-1.07,.75v.96l-3.21-.21-1.71,.21h-37.18c0-1-.43-1.5-1.28-1.5l-.21,1.5h-2.78v-12.39h2.56c.57-.14,1.21-.5,1.92-1.07-1.85,0-3.35-.21-4.49-.64v-6.62c1.42,0,2.42-.57,2.99-1.71-.57-.14-1.04-.35-1.39-.64-.36-.28-.68-.57-.96-.85-.29-.28-.5-.57-.64-.85v-59.19c.43,.71,.92,1.36,1.5,1.92l.21-1.92c0-1.71-.57-2.85-1.71-3.42V0h57.69V228.62h-.64c-1.28,0-1.92,.5-1.92,1.5l.21,1.5c.71-.28,1.5-.43,2.35-.43v37.82c-.71,.29-1.07,.64-1.07,1.07l.21,.43c.43,0,.71-.07,.85-.21v40.6c-1.71,.43-2.99,1.36-3.85,2.78,.85,.57,1.28,1.21,1.28,1.92,0,1.43-1.21,2.71-3.63,3.85-.85,.29-1.78,.43-2.78,.43l-2.35-.21c.28,1.85,.82,3.06,1.6,3.63,.78,.57,1.57,.93,2.35,1.07,.78,.14,1.46,.39,2.03,.75,.57,.36,1.07,1.04,1.5,2.03-.85,0-1.46,.46-1.82,1.39-.36,.93-.75,1.46-1.17,1.6l-2.99-2.14c-1.28-1.71-2.56-2.56-3.85-2.56-.71,0-1.42,.57-2.14,1.71,.71,.29,1.14,.57,1.28,.85v.21c0,.29-.5,.64-1.5,1.07-2,.71-2.99,1.64-2.99,2.78l.21,1.07,2.14,.43c1.57,.57,3.21,.85,4.91,.85,1.28,0,2.42-.43,3.42-1.28,1.28,1.14,2.21,2.64,2.78,4.49Zm-44.44-1.71c.43,0,.85-.43,1.28-1.28-.43-.43-1.14-1-2.14-1.71-1-.71-2.07-1.32-3.21-1.82-1.14-.5-1.92-.75-2.35-.75-.29,0-.43,.07-.43,.21,0,.29,.21,.64,.64,1.07h.43c.99,0,2.06,.71,3.21,2.14,1.14,1.43,1.99,2.14,2.56,2.14Zm-4.06-57.9c.43-.14,.78-.5,1.07-1.07,0-.14-.07-.28-.21-.43-.14-.14-.29-.21-.43-.21-.57,.14-1,.5-1.28,1.07,0,.14,.07,.29,.21,.43,.14,.14,.35,.21,.64,.21Zm1.5-26.92c.43,0,.78-.35,1.07-1.07,0-.14-.04-.28-.11-.43-.07-.14-.18-.21-.32-.21h-.21c-.29,.14-.53,.32-.75,.53-.21,.21-.32,.39-.32,.53v.64h.64Zm4.49,21.15c.57,0,.85-.14,.85-.43s-.5-.71-1.5-1.28c-1.71-.85-2.71-1.28-2.99-1.28h-.21c0,.14,.57,.57,1.71,1.28,.14,0,.28,.11,.43,.32,.14,.21,.32,.5,.53,.85,.21,.36,.6,.53,1.17,.53Zm-2.99-16.67c.43,0,.78-.35,1.07-1.07,0-.14-.04-.28-.11-.43-.07-.14-.18-.21-.32-.21h-.21c-.29,.14-.53,.32-.75,.53-.21,.21-.32,.39-.32,.53v.64h.64Zm8.33,82.05l-.21-1.71c0-2.56,1.07-3.99,3.21-4.27,1.14,.29,2.14,1.04,2.99,2.24,.86,1.21,1.64,1.82,2.35,1.82s1.42-.35,2.14-1.07c-.14-1.42-.71-2.42-1.71-2.99-1-.57-2.14-.96-3.42-1.17-1.28-.21-2.42-.53-3.42-.96-1-.43-1.64-1.21-1.92-2.35-.43,1-1,1.5-1.71,1.5-1.43,0-2.67-.35-3.74-1.07-1.07-.71-1.75-1.35-2.03-1.92,.85,0,1.28-.5,1.28-1.5,0-.71-.43-1.21-1.28-1.5-.71,1-1.07,1.92-1.07,2.78,0,.43,.18,1.21,.53,2.35,.35,1.14,2.31,2.78,5.88,4.91l.64,.43h-.43c-.43,0-.71,.14-.85,.43,0,.43,.14,.93,.43,1.5,.28,.57,.67,1.1,1.18,1.6,.5,.5,.89,.82,1.17,.96Zm-6.41-60.25l.43-.85c0-.28-.11-.53-.32-.75-.21-.21-.46-.32-.75-.32-.14,.14-.29,.5-.43,1.07,0,.29,.11,.5,.32,.64,.21,.14,.46,.21,.75,.21Zm1.07-26.28c.43,0,.78-.35,1.07-1.07,0-.14-.04-.28-.11-.43-.07-.14-.18-.21-.32-.21h-.21c-.29,.14-.53,.32-.75,.53s-.32,.39-.32,.53v.64h.64Zm1.71-3.42c.14,0,.35-.35,.64-1.07,0-.57-.07-1.1-.21-1.6-.14-.5-.29-.82-.43-.96-.29,0-.57,.36-.86,1.07,0,.57,.07,1.1,.21,1.6,.14,.5,.35,.82,.64,.96Zm2.56,23.29c1,0,1.82-.6,2.46-1.82,.64-1.21,.96-2.6,.96-4.17-.14-1.28-.36-1.92-.64-1.92h-.21c-.29,1-1.07,1.5-2.35,1.5h-.64c0-.28-.11-.53-.32-.75-.21-.21-.39-.32-.53-.32-.29,.14-.5,.5-.64,1.07,1,0,1.5,.29,1.5,.85,0,2-.5,3.71-1.5,5.13,.71,.29,1.35,.43,1.92,.43Zm-1.28,51.71c.43,0,.78-.35,1.07-1.07,0-.14-.04-.28-.11-.43-.07-.14-.18-.21-.32-.21h-.21c-.29,.14-.53,.29-.75,.43-.21,.14-.32,.29-.32,.43v.85h.64Zm1.71-95.51c.57-.28,.85-.64,.85-1.07,0-.28-.29-.35-.85-.21-.57,.14-.85,.32-.85,.53v.75h.85Zm1.5,23.93c.57-.28,.86-.64,.86-1.07,0-.14-.04-.28-.11-.43-.07-.14-.18-.21-.32-.21h-.21c-.29,.14-.53,.32-.75,.53-.21,.21-.32,.39-.32,.53v.64h.85Zm0,8.97c.57-.28,.86-.64,.86-1.07,0-.14-.04-.28-.11-.43-.07-.14-.18-.21-.32-.21h-.21c-.29,.14-.53,.29-.75,.43-.21,.14-.32,.29-.32,.43v.85h.85Zm-.85,47.65c.28,0,.64-.03,1.07-.11,.43-.07,.85-.18,1.28-.32,.43-.14,.64-.5,.64-1.07-.29,.14-.64,.21-1.07,.21s-.85,.11-1.28,.32-.64,.53-.64,.96Zm13.25,21.15c.71,0,1.28-.57,1.71-1.71-1.71-.28-3.46-1.14-5.24-2.56-1.78-1.42-3.67-2.14-5.66-2.14l-2.56,.21c-.29,.57-.43,1.07-.43,1.5,0,.29,.07,.57,.21,.85,.14,.29,.78,.43,1.92,.43h1.07c.85,0,1.6,.07,2.24,.21,.64,.14,.96,.64,.96,1.5l.85-.21c.57,0,1.35,.32,2.35,.96,1,.64,1.85,.96,2.56,.96Zm-10.9-74.78c.57-.28,.85-.64,.85-1.07,0-.14-.04-.28-.11-.43-.07-.14-.18-.21-.32-.21h-.21c-.29,.14-.53,.32-.75,.53-.21,.21-.32,.39-.32,.53v.64h.85Zm.64,65.17l1.5-1.07c0-.85-.5-1.28-1.5-1.28-.71,0-1.21,.43-1.5,1.28,.14,.71,.43,1.07,.85,1.07h.64Zm2.78-66.45c.57,0,1.25-.32,2.03-.96,.78-.64,1.18-1.39,1.18-2.24,0-.71-.5-1.21-1.5-1.5-.14,.71-.61,1.43-1.39,2.14-.79,.71-1.32,1.5-1.6,2.35l1.28,.21Zm.21,7.26c.28-.43,.78-.96,1.5-1.6,.71-.64,1.32-1.25,1.82-1.82,.5-.57,.82-1.07,.96-1.5,0-.43-.43-.78-1.28-1.07-.29,.43-.79,.96-1.5,1.6-.71,.64-1.32,1.25-1.82,1.82-.5,.57-.82,1.07-.96,1.5,0,.43,.43,.78,1.28,1.07Zm.86,7.48c1.14,0,2.06-.18,2.78-.53,.71-.35,1.07-.89,1.07-1.6l-.21-.85h-2.99c0,.57-.21,1.07-.64,1.5-.43,.43-.71,.93-.86,1.5h.86Zm-.86,28.2c.28,0,.64-.03,1.07-.11,.43-.07,.86-.18,1.28-.32,.43-.14,.64-.5,.64-1.07-.29,.14-.64,.21-1.07,.21s-.86,.11-1.28,.32c-.43,.21-.64,.53-.64,.96Zm5.13-47.65c.43,0,.78-.35,1.07-1.07,0-.14-.04-.28-.11-.43-.07-.14-.18-.21-.32-.21h-.21c-.29,.14-.53,.32-.75,.53-.21,.21-.32,.39-.32,.53v.64h.64Zm.43,12.82c.14,0,.28-.28,.43-.85,0-.28-.11-.53-.32-.75-.21-.21-.39-.32-.53-.32-.29,.14-.5,.5-.64,1.07,0,.29,.11,.5,.32,.64,.21,.14,.39,.21,.53,.21h.21Zm1.28-8.33c2.56,0,3.85-.71,3.85-2.14l-.21-.85h-2.99c0,.43-.07,.78-.21,1.07-.14,.29-.36,.57-.64,.85-.29,.29-.5,.64-.64,1.07h.85Zm3.21,8.33c.14,0,.28-.28,.43-.85,0-.28-.11-.53-.32-.75s-.39-.32-.53-.32c-.29,.14-.5,.5-.64,1.07,0,.29,.11,.5,.32,.64,.21,.14,.39,.21,.53,.21h.21Zm1.07-13.25c.28,0,.57-.35,.85-1.07,0-.57-.07-1.1-.21-1.6-.14-.5-.29-.82-.43-.96-.29,0-.57,.36-.86,1.07,0,.57,.07,1.1,.21,1.6,.14,.5,.28,.82,.43,.96Zm-.64,16.88c.28-.14,.64-.21,1.07-.21s.86-.11,1.28-.32c.43-.21,.64-.53,.64-.96-.29,0-.64,.04-1.07,.11-.43,.07-.86,.18-1.28,.32-.43,.14-.64,.5-.64,1.07Zm4.92,71.58c.57,0,.92-.5,1.07-1.5-.57,.29-1.07,.43-1.5,.43-.29,0-.68-.11-1.17-.32-.5-.21-1-.53-1.5-.96-.5-.43-.89-.64-1.17-.64s-.5,.5-.64,1.5c.14,0,.39,.11,.75,.32,.35,.21,.92,.46,1.71,.75,.78,.29,1.39,.43,1.82,.43h.64Zm-2.56-102.99c.57-.28,.85-.64,.85-1.07,0-.28-.29-.35-.85-.21-.57,.14-.85,.32-.85,.53v.75h.85Zm-.85,44.87c.28-.14,.64-.25,1.07-.32,.43-.07,.85-.18,1.28-.32,.43-.14,.64-.43,.64-.85-.29,0-.64,.04-1.07,.11-.43,.07-.85,.18-1.28,.32-.43,.14-.64,.5-.64,1.07Zm1.07,51.49c.14,0,.28-.28,.43-.85,0-.28-.11-.53-.32-.75-.21-.21-.39-.32-.53-.32-.29,.14-.5,.5-.64,1.07,0,.57,.28,.85,.85,.85h.21Zm6.84-72.65c.28,0,.64-.43,1.07-1.28-1-.14-1.5-1.14-1.5-2.99v-1.5h-.85c-.57,0-1.14-.14-1.71-.43-.57-.28-1-.43-1.28-.43s-.5,.29-.64,.85h.21c1.28,0,2.28,1.14,2.99,3.42,.71,1.57,1.28,2.35,1.71,2.35Zm-4.06,10.68c.57-.28,.85-.64,.85-1.07,0-.14-.04-.28-.11-.43-.07-.14-.18-.21-.32-.21h-.21c-.29,.14-.53,.29-.75,.43-.21,.14-.32,.29-.32,.43v.85h.85Zm-.21,49.14c.43,0,.78-.35,1.07-1.07,0-.14-.04-.28-.11-.43-.07-.14-.18-.21-.32-.21h-.21c-.29,.14-.53,.32-.75,.53-.21,.21-.32,.39-.32,.53v.64h.64Zm1.71-108.76c.57-.28,.85-.64,.85-1.07s-.14-.64-.43-.64c-.14,0-.43,.11-.85,.32-.43,.21-.64,.53-.64,.96,0,.29,.14,.43,.43,.43h.64Zm0,56.62c.57-.28,.85-.64,.85-1.07s-.14-.64-.43-.64c-.14,0-.43,.11-.85,.32s-.64,.53-.64,.96c0,.29,.14,.43,.43,.43h.64Zm.21-52.78c.14,0,.28-.28,.43-.85,0-.28-.11-.53-.32-.75s-.39-.32-.53-.32c-.29,.14-.5,.5-.64,1.07,0,.57,.28,.85,.85,.85h.21Zm.43,68.59l1.5-.85c0-.85-.43-1.35-1.28-1.5-1,0-1.57,.5-1.71,1.5,.14,.57,.43,.85,.85,.85h.64Zm3.21,11.11c2.56,0,3.99-1.07,4.27-3.21h-3.63c-1.71,0-2.56,.5-2.56,1.5l.21,1.5,1.71,.21Zm-.64-23.08c.14,0,.28-.28,.43-.85,0-.28-.11-.53-.32-.75-.21-.21-.39-.32-.53-.32-.29,.14-.5,.5-.64,1.07,0,.29,.11,.5,.32,.64,.21,.14,.39,.21,.53,.21h.21Zm.85,14.1c.57-.14,1-.5,1.28-1.07,0-.14-.07-.28-.21-.43-.14-.14-.29-.21-.43-.21-.57,.14-1,.5-1.28,1.07,0,.14,.07,.29,.21,.43,.14,.14,.28,.21,.43,.21Zm.64-60.25c.14-.14,.28-.5,.43-1.07,0-.28-.11-.5-.32-.64-.21-.14-.46-.21-.75-.21l-.43,.85c0,.43,.11,.71,.32,.85,.21,.14,.46,.21,.75,.21Zm0,3.42c1.28-.14,1.92-.64,1.92-1.5-.29,.14-.64,.25-1.07,.32-.43,.07-.86,.18-1.28,.32-.43,.14-.64,.43-.64,.85h1.07Zm-1.07,95.51c.28-.14,.64-.21,1.07-.21s.86-.07,1.28-.21c.43-.14,.64-.5,.64-1.07-.29,0-.64,.04-1.07,.11-.43,.07-.86,.18-1.28,.32-.43,.14-.64,.5-.64,1.07Zm2.14-55.13c.43,0,.78-.35,1.07-1.07,0-.14-.04-.28-.11-.43-.07-.14-.18-.21-.32-.21h-.21c-.29,.14-.53,.29-.75,.43-.21,.14-.32,.29-.32,.43v.85h.64Zm1.28,13.46c.57-.14,1-.5,1.28-1.07,0-.14-.07-.28-.21-.43-.14-.14-.29-.21-.43-.21-.57,.14-1,.5-1.28,1.07,0,.14,.07,.29,.21,.43,.14,.14,.28,.21,.43,.21Zm10.04-5.98c0-1.71-.36-2.56-1.07-2.56-.57,0-1.21,.36-1.92,1.07-.29-1.85-1.64-2.92-4.06-3.21-1.71-.43-2.85-.85-3.42-1.28,.43,2.28,1.64,3.78,3.63,4.49,1.99,.71,4.27,1.21,6.84,1.5Zm-8.55-53.63c.57-.14,.99-.5,1.28-1.07,0-.14-.07-.28-.21-.43-.14-.14-.29-.21-.43-.21-.57,.14-1,.5-1.28,1.07,0,.14,.07,.29,.21,.43,.14,.14,.28,.21,.43,.21Zm1.5,41.24c.57,0,.85-.57,.85-1.71,0-1.42-.43-2.14-1.28-2.14-.29,0-.79,.43-1.5,1.28,.71,1.71,1.35,2.56,1.92,2.56Zm-1.28,43.59c.43,0,.78-.28,1.07-.85,0-.14-.04-.32-.11-.53-.07-.21-.18-.32-.32-.32h-.21c-.29,.14-.53,.32-.75,.53-.21,.21-.32,.39-.32,.53v.64h.64Zm2.14,8.76c1,0,1.57-.43,1.71-1.28-.29,0-.57-.07-.85-.21-.29-.14-.53-.28-.75-.43-.21-.14-.36-.25-.43-.32-.07-.07-.18-.11-.32-.11s-.36,.36-.64,1.07c0,.85,.43,1.28,1.28,1.28Zm.64-104.06c.57-.14,1-.43,1.28-.85,0-.28-.07-.5-.21-.64-.14-.14-.29-.21-.43-.21-.57,.29-1,.64-1.28,1.07,0,.14,.07,.29,.21,.43,.14,.14,.28,.21,.43,.21Zm3.85,58.97c1.14,0,2.21-.78,3.21-2.35-.43-.43-1.14-.82-2.14-1.18-1-.35-1.85-.53-2.56-.53h-1.5c-.71,0-1.14,.57-1.28,1.71,1.99,1.57,3.42,2.35,4.27,2.35Zm2.56-8.76c.28,0,.5-.35,.64-1.07-.85,0-1.43-.46-1.71-1.39-.29-.92-.71-1.46-1.28-1.6,0,.71-.29,1.07-.85,1.07-.14,0-.36-.07-.64-.21-.29-.14-.57-.21-.85-.21s-.5,.29-.64,.85c.85,0,1.82,.43,2.88,1.28,1.07,.85,1.89,1.28,2.46,1.28Zm-2.99,2.99c.28-.14,.5-.5,.64-1.07-.29,0-.57-.07-.85-.21-.29-.14-.53-.28-.75-.43-.21-.14-.36-.25-.43-.32-.07-.07-.18-.11-.32-.11s-.36,.36-.64,1.07c0,.71,.43,1.07,1.28,1.07h1.07Zm0,47.65c1.57,0,2.78-.85,3.63-2.56h-.64c-.43,0-.86-.07-1.28-.21-.43-.14-.89-.39-1.39-.75-.5-.35-1.39-.53-2.67-.53v.85c0,2.14,.78,3.21,2.35,3.21Zm2.14,15.38c-2.14-.28-3.2-1.71-3.2-4.27l.21-1.71c.86,.43,1.78,.68,2.78,.75,.99,.07,1.85,.18,2.56,.32v2.14l-.85-.21c-.57,0-.93,.21-1.07,.64-.14,.43-.21,.85-.21,1.28s-.07,.78-.21,1.07Zm-2.14-117.73c.57-.28,.85-.64,.85-1.07s-.21-.64-.64-.64c-.71,.29-1.07,.53-1.07,.75v.96h.86Zm1.5,13.25c.57-.28,.85-.64,.85-1.07,0-.14-.07-.25-.21-.32-.14-.07-.29-.11-.43-.11-.71,.29-1.07,.53-1.07,.75v.75h.85Zm0,29.91c.57-.28,.85-.64,.85-1.07,0-.14-.04-.28-.11-.43-.07-.14-.18-.21-.32-.21h-.21c-.29,.14-.53,.32-.75,.53s-.32,.39-.32,.53v.64h.85Zm-.85,31.41c.14,0,.46-.11,.96-.32,.5-.21,.75-.53,.75-.96,0-.14-.07-.25-.21-.32-.14-.07-.29-.11-.43-.11-.71,.29-1.07,.53-1.07,.75v.96Zm3.85,55.13h-1.92c-.29-1.42-.43-2.78-.43-4.06,0-3.13,.5-5.77,1.5-7.91h.85v11.97Z"/>
      <path class="cls-1" d="M1058.29,341.23h-42.31c-8.26,0-16.17-2-23.72-5.98-7.55-3.99-13.67-9.61-18.38-16.88-4.7-7.26-7.05-15.81-7.05-25.64V136.53c0-11.97,2.03-21.76,6.09-29.38,4.06-7.62,9.51-13.25,16.34-16.88,6.84-3.63,14.39-5.45,22.65-5.45h43.8c8.26,0,16.02,2.07,23.29,6.2,7.26,4.13,13.14,9.9,17.63,17.31,4.49,7.41,6.73,15.96,6.73,25.64v54.91l-.21-.21c-.29,0-.61,.14-.96,.43-.36,.29-.53,.57-.53,.85l.21,.43h.43c.28,0,.64-.21,1.07-.64v62.6c-1-.28-1.85-.43-2.56-.43-1.28,0-2.92,.85-4.92,2.56v.85c0,1,.25,1.89,.75,2.67,.5,.78,1.1,1.46,1.82,2.03,.71,.57,1.35,1.21,1.92,1.92l-.21,1.5c0,1.28,.78,2.07,2.35,2.35l.85,.43v2.35c-.71,.57-1.21,1.36-1.5,2.35h1.5v12.39l-1.5,.85c-.57,.71-.86,1.14-.86,1.28v.43l.21-.21c.14,0,.35-.14,.64-.43,.28-.28,.57-.6,.85-.96,.28-.35,.5-.6,.64-.75,0,7.26-.07,11.9-.21,13.89-.57-.71-1.07-1.07-1.5-1.07-.14,0-.21,.07-.21,.21l.43,1.07v1.28c0,.71,.21,1.07,.64,1.07h.21c-.14,1.85-.43,3.56-.85,5.13l-.21-.21c-.29,0-.61,.18-.96,.53-.36,.36-.53,.61-.53,.75,0,.29,.14,.43,.43,.43l1.07-.43c-2.85,11.25-8.23,19.91-16.13,25.96-7.91,6.05-16.99,9.08-27.24,9.08Zm-39.74-7.69c.57-.14,1-.5,1.28-1.07,0-.14-.07-.28-.21-.43-.14-.14-.36-.21-.64-.21-.43,.14-.78,.5-1.07,1.07,0,.14,.07,.29,.21,.43,.14,.14,.28,.21,.43,.21Zm5.13-3.21c.57,0,1.21-.43,1.92-1.28-1.28-.99-2.21-1.57-2.78-1.71-.57,0-.85,.14-.85,.43v.64c0,.43,.14,.85,.43,1.28,.28,.43,.71,.64,1.28,.64Zm11.33-34.61c2.99,0,5.52-1.14,7.58-3.42,2.06-2.28,3.1-5.41,3.1-9.4V143.16c0-7.98-3.56-12.32-10.68-13.03-2.85,0-5.31,1.18-7.37,3.53-2.07,2.35-3.1,5.52-3.1,9.51v139.74c.14,3.99,1.21,7.12,3.21,9.4,1.99,2.28,4.41,3.42,7.26,3.42Zm-3.42,37.82c.57-.71,.85-1.28,.85-1.71,0-.14-.11-.39-.32-.75-.21-.35-1.04-.53-2.46-.53-1.71,0-2.56,.43-2.56,1.28v.21l.21-.21c.43,0,.89,.11,1.39,.32,.5,.21,1.1,.43,1.82,.64,.71,.21,1.07,.39,1.07,.53v.21Zm6.62-5.98c.57,0,1.21-.18,1.92-.53,.71-.35,1.35-.82,1.92-1.39,.57-.57,.92-1.14,1.07-1.71,0-.43-.36-.71-1.07-.85,0,1-.5,1.5-1.5,1.5v-1.07c0-.57,.14-1.1,.43-1.6,.28-.5,.43-.89,.43-1.18s-.29-.5-.86-.64c-.14,.57-.36,.85-.64,.85-.43,0-1.21-.28-2.35-.85v7.48h.64Zm9.83-4.49l-.21-1.92c0-1.28,.46-2.28,1.39-2.99,.92-.71,1.53-1.57,1.82-2.56l-1.07-.21c-.29,0-.61,.11-.96,.32-.36,.21-.79,.5-1.28,.85-.5,.36-1.39,.53-2.67,.53-.14-1.28-1.14-2.28-2.99-2.99,.28,2.14,.82,4.06,1.6,5.77,.78,1.71,2.24,2.78,4.38,3.21Zm-3.63-13.46c.57-.28,.85-.64,.85-1.07,0-.14-.04-.28-.11-.43-.07-.14-.18-.21-.32-.21s-.29,.04-.43,.11c-.14,.07-.32,.21-.53,.43-.21,.21-.32,.39-.32,.53v.64h.86Zm2.78,30.98c.43-.14,.71-.57,.85-1.28h-.64l-1.5-.85c-.14,0-.29,.07-.43,.21-.14,.14-.29,.35-.43,.64,0,.85,.43,1.28,1.28,1.28h.85Zm5.34-74.14c.14,0,.43-.03,.85-.11,.43-.07,.71-.32,.85-.75v-.43c0-.14-.07-.25-.21-.32-.14-.07-.29-.11-.43-.11-.71,.29-1.07,.53-1.07,.75v.96Zm5.98,50.64c.28-.14,.64-.21,1.07-.21s.85-.11,1.28-.32,.64-.53,.64-.96c-.29,0-.68,.04-1.17,.11-.5,.07-.93,.18-1.28,.32-.36,.14-.53,.5-.53,1.07Zm.43-4.7l.43-.21c.28-.28,.5-.5,.64-.64,.14-.14,.57-.64,1.28-1.5v-.21l-.21,.21c-.14,.14-.5,.5-1.07,1.07-.57,.57-.93,.93-1.07,1.07v.21Zm10.04,7.69c0-1.42,.28-2.67,.85-3.74,.57-1.07,.85-2.24,.85-3.53l-.21-1.71h-1.71c-2.56,0-4.49-.5-5.77-1.5,.57,1.71,1.42,2.99,2.56,3.85,.57,.43,.86,.85,.86,1.28s-1.14,1.21-3.42,2.35c1,.43,1.96,.93,2.88,1.5,.92,.57,1.96,1.07,3.1,1.5Zm2.14-68.59c.57-.14,.89-.35,.96-.64,.07-.28,.11-.5,.11-.64s-.14-.28-.43-.43c-.14,0-.43,.11-.85,.32s-.64,.53-.64,.96c0,.29,.14,.43,.43,.43h.43Zm12.82,2.99v-1.5c0-2.56-1-4.06-2.99-4.49v.64c0,.57-.18,.85-.53,.85h-1.18l-3.63-.21c-.57,.14-.85,.43-.85,.85,0,.29,.14,.61,.43,.96,.28,.36,.82,.64,1.6,.85,.78,.21,1.64,.36,2.56,.43,.92,.07,1.78,.21,2.56,.43,.78,.21,1.46,.61,2.03,1.18Zm-5.34,65.6c.14,0,.32-.11,.53-.32,.21-.21,.35-.39,.43-.53,.07-.14,.11-.28,.11-.43l-.43-.43c-.29,0-.61,.14-.96,.43-.36,.29-.53,.57-.53,.85l.21,.43h.64Zm.85-73.07c.28-.14,.64-.21,1.07-.21s.82-.07,1.17-.21c.35-.14,.6-.5,.75-1.07-.29,0-.68,.04-1.17,.11-.5,.07-.93,.18-1.28,.32-.36,.14-.53,.5-.53,1.07Zm2.35-5.98c.43-.28,.71-.64,.85-1.07,0-.28-.14-.5-.43-.64-.29,0-.61,.18-.96,.53-.36,.36-.53,.61-.53,.75,0,.29,.14,.43,.43,.43h.64Zm0,64.1c.43-.28,.71-.64,.85-1.07,0-.28-.14-.5-.43-.64-.29,0-.61,.18-.96,.53s-.53,.61-.53,.75c0,.29,.14,.43,.43,.43h.64Zm-.21-68.59c.28,0,.57-.14,.85-.43,.28-.28,.57-.6,.85-.96,.28-.35,.5-.6,.64-.75v-.21l-1.5,.85c-.57,.71-.85,1.21-.85,1.5Zm2.99,58.76c.14,0,.35-.14,.64-.43,.28-.28,.43-.57,.43-.85,0-.71-.14-1.14-.43-1.28-1,0-1.5,.36-1.5,1.07,0,1,.28,1.5,.85,1.5Zm1.5-70.72c.71-.14,1.07-.5,1.07-1.07,0-.43-.14-.64-.43-.64-.14,0-.43,.11-.85,.32s-.64,.46-.64,.75c0,.43,.14,.64,.43,.64h.43Zm1.92,66.45c.14,0,.28-.28,.43-.85,0-.28-.11-.5-.32-.64-.21-.14-.39-.21-.53-.21h-.43c-.14,0-.21,.29-.21,.85,0,.29,.11,.5,.32,.64,.21,.14,.39,.21,.53,.21h.21Zm7.91-98.71c1.42,0,2.35-1.21,2.78-3.63,0-.57-.07-.92-.21-1.07-.29,0-.61,.46-.96,1.39-.36,.93-1.17,1.39-2.46,1.39h-.64v-1.5l-1.71,.64c.86,.57,1.42,1.35,1.71,2.35,.57,.29,1.07,.43,1.5,.43Zm-2.99,60.68c.28-.14,.64-.21,1.07-.21s.82-.11,1.18-.32c.35-.21,.6-.53,.75-.96-.43,0-.85,.04-1.28,.11-.43,.07-.82,.18-1.18,.32-.36,.14-.53,.5-.53,1.07Zm4.49,14.96c.85-.28,1.35-.5,1.5-.64s.21-.35,.21-.64c0-.14-.07-.25-.21-.32-.14-.07-.29-.11-.43-.11-.85,.29-1.28,.71-1.28,1.28l.21,.43Zm5.98-6.62c-1.57-.57-2.96-1.32-4.17-2.24-1.21-.92-1.82-2.46-1.82-4.59,.85-.57,1.64-.85,2.35-.85s1.32,.07,1.82,.21c.5,.14,.89,.21,1.18,.21h.64v7.26Zm-2.14,18.38c.57-.28,.85-.64,.85-1.07l-.21-.43c-.29,0-.64,.14-1.07,.43-.43,.29-.64,.5-.64,.64,0,.29,.14,.43,.43,.43h.64Z"/>
      <path class="cls-1" d="M1173.03,337.59h-40.17c-.14-.14-.36-.21-.64-.21l-.43,.21h-16.45v-6.84h.86c1.28,0,2.42,.57,3.42,1.71,1,1.14,2.14,1.71,3.42,1.71l1.92-.21c.28-1.14,.71-2.06,1.28-2.78,.57-.71,1-1.35,1.28-1.92,.28-.57,.43-1.21,.43-1.92v-.85c-1.71,0-2.56-1.07-2.56-3.21,0-.71,.18-1.53,.53-2.46,.35-.92,.92-1.53,1.71-1.82,.78-.28,1.39-.43,1.82-.43,.28,0,.67,.11,1.17,.32,.5,.21,1,.5,1.5,.85,.5,.36,.89,.53,1.17,.53,.43,0,.64-.43,.64-1.28-.86-.71-1.28-1.42-1.28-2.14,0-1.14,.92-2.35,2.78-3.63,1.85-1.28,2.85-2.35,2.99-3.21l-1.92-.21c-1.57,0-2.56,1.04-2.99,3.1-.43,2.07-1.57,3.1-3.42,3.1h-.64c-1.85-2.56-4.84-4.06-8.97-4.49v.64c0,1.28,.28,2.24,.85,2.88,.57,.64,1.39,1.21,2.46,1.71,1.07,.5,1.96,1.25,2.67,2.24-1.14,.29-2.03,.71-2.67,1.28-.64,.57-1.32,1-2.03,1.28-.71,.29-1.64,.43-2.78,.43v.64c0,.71,.14,1.25,.43,1.6,.28,.36,.71,.71,1.28,1.07,.57,.36,1,.75,1.28,1.17-1.43,.14-2.64,.57-3.63,1.28-1,.71-2,1.57-2.99,2.56v-18.8c.57-.28,.86-.64,.86-1.07l-.21-.43h-.64v-21.15l.64,.43c0-1.14,.67-1.71,2.03-1.71s2.17-.43,2.46-1.28c-.71-.43-1.07-.71-1.07-.85s.71-.64,2.14-1.5c.28-.14,.43-.43,.43-.85-.14-.28-.64-.71-1.5-1.28l1.5,.21c.85,0,1.6-.25,2.24-.75,.64-.5,1.21-1.14,1.71-1.92,.5-.78,1.17-1.46,2.03-2.03-1-.14-1.71-.57-2.14-1.28-.43-.71-.82-1.5-1.17-2.35-.36-.85-.75-1.64-1.17-2.35h-1.28c-2.99,0-5.06,1-6.2,2.99h.64c1.28,0,2.28,.32,2.99,.96,.71,.64,1.5,1.82,2.35,3.53-1.28-.43-2.49-.64-3.63-.64-1,0-2,.14-2.99,.43v-9.4h.21c.28,0,.43-.28,.43-.85,0-.28-.21-.64-.64-1.07v-1.5h.21c.43,0,1.07-.14,1.92-.43v-.64c0-.71-.21-1.6-.64-2.67s-.93-1.89-1.5-2.46v-33.12c.28-.14,.5-.35,.64-.64l.21-.21c0-.14-.04-.28-.11-.43-.07-.14-.18-.21-.32-.21l-.43,.21v-48.29c.28-.14,.43-.43,.43-.85,0-.28-.14-.64-.43-1.07V51.71c0-11.68,2.35-21.33,7.05-28.95,4.7-7.62,10.75-13.32,18.16-17.09,7.41-3.77,15.1-5.66,23.08-5.66h56.84V45.3h-36.54c-3.13,.14-5.7,1.21-7.69,3.21s-3.06,4.56-3.21,7.69v32.26h35.9v45.51h-35.9v203.62Zm-57.69-49.57v-1.28l.64,1.07c-.29,0-.5,.07-.64,.21Zm.64-101.71c.28,0,.64-.03,1.07-.11,.43-.07,.85-.18,1.28-.32,.43-.14,.64-.5,.64-1.07-.29,.14-.64,.21-1.07,.21s-.85,.11-1.28,.32c-.43,.21-.64,.53-.64,.96Zm0,43.37c.14,0,.46-.11,.96-.32,.5-.21,.75-.53,.75-.96,0-.14-.14-.28-.43-.43-.14,0-.39,.11-.75,.32-.36,.21-.53,.53-.53,.96v.43Zm4.49,25.21v-3.42c0-1.57-.21-3.1-.64-4.59-.43-1.5-1.71-2.31-3.85-2.46,0,1.14,.28,2.92,.85,5.34,0,.43-.07,.93-.21,1.5-.14,.57-.36,1.28-.64,2.14,1.71,0,3.21,.5,4.49,1.5Zm-3.63,2.99c.57-.28,.85-.64,.85-1.07s-.14-.64-.43-.64c-.14,0-.39,.11-.75,.32-.36,.21-.53,.53-.53,.96,0,.29,.14,.43,.43,.43h.43Zm-.85,79.06c.28-.14,.64-.21,1.07-.21s.85-.11,1.28-.32,.64-.53,.64-.96c-.29,0-.64,.04-1.07,.11-.43,.07-.85,.18-1.28,.32-.43,.14-.64,.5-.64,1.07Zm2.14-93.8c.43-.28,.78-.64,1.07-1.07,0-.14-.07-.28-.21-.43-.14-.14-.29-.21-.43-.21-.57,.14-1,.43-1.28,.85,0,.29,.07,.5,.21,.64,.14,.14,.35,.21,.64,.21Zm0,59.61c.43-.28,.78-.64,1.07-1.07,0-.14-.07-.28-.21-.43-.14-.14-.29-.21-.43-.21-.57,.14-1,.43-1.28,.85,0,.29,.07,.5,.21,.64,.14,.14,.35,.21,.64,.21Zm-.64-32.9c.28-.14,.64-.21,1.07-.21s.86-.07,1.28-.21c.43-.14,.64-.5,.64-1.07-.29,0-.64,.04-1.07,.11-.43,.07-.86,.18-1.28,.32-.43,.14-.64,.5-.64,1.07Zm1.07,50.21c.28,0,.71-.18,1.28-.53,.57-.35,.85-.82,.85-1.39l-.21-.64c-1.28-.71-2.14-1.07-2.56-1.07,0,.43,.35,1.28,1.07,2.56-.85,.43-1.28,.71-1.28,.85s.28,.21,.85,.21Zm3.21-114.74c0-.14-.32-.53-.96-1.18-.64-.64-1.11-1.03-1.39-1.17l2.35,2.35Zm1.07,10.9c.57-.28,.85-.64,.85-1.07s-.14-.64-.43-.64c-.14,0-.43,.11-.85,.32-.43,.21-.64,.53-.64,.96,0,.29,.21,.43,.64,.43h.43Zm2.14,30.77l1.5-1.07c0-.85-.43-1.28-1.28-1.28-1,0-1.57,.43-1.71,1.28,.14,.71,.43,1.07,.85,1.07h.64Zm-1.5,16.88c.85,0,1.92-.21,3.21-.64,.57-.57,1.5-.85,2.78-.85,.57,.14,1.14,.39,1.71,.75,.57,.36,1.07,.53,1.5,.53,.57,0,1-.43,1.28-1.28-1.71-.57-3.21-1.57-4.49-2.99,.43,0,.78-.07,1.07-.21,.28-.14,.43-.43,.43-.85v-.43c-1.71,0-2.85-.07-3.42-.21-.57-.14-.93-.57-1.07-1.28,.28,0,.53-.11,.75-.32,.21-.21,.32-.46,.32-.75-.14-.14-.5-.28-1.07-.43-.71,.85-1.07,1.5-1.07,1.92,0,.29,.28,.85,.85,1.71,.85,.57,1.42,1.36,1.71,2.35h-.85c-2.42,0-3.63,.71-3.63,2.14v.85Zm3.85,41.88c1.42,0,2.14-.43,2.14-1.28v-.43c-.71,0-1.39-.25-2.03-.75-.64-.5-1.46-.75-2.46-.75-.29,.57-.43,1.07-.43,1.5,0,.29,.18,.64,.53,1.07,.35,.43,1.1,.64,2.24,.64Zm-1.5-105.98c.57-.28,.86-.64,.86-1.07s-.14-.64-.43-.64c-.14,0-.43,.11-.85,.32-.43,.21-.64,.53-.64,.96,0,.29,.21,.43,.64,.43h.43Zm1.28,52.13c.71,0,1.46-.25,2.24-.75,.78-.5,1.32-1.25,1.6-2.24-2.42,.14-3.92,1.14-4.49,2.99h.64Zm.85,41.88c.14,0,.43-.07,.86-.21,.43-.14,.71-.43,.85-.85,0-.14-.04-.28-.11-.43-.07-.14-.18-.21-.32-.21s-.39,.11-.75,.32c-.36,.21-.53,.53-.53,.96v.43Zm1.5-52.35c.28,0,.64-.03,1.07-.11,.43-.07,.85-.18,1.28-.32,.43-.14,.64-.5,.64-1.07-.29,.14-.64,.21-1.07,.21s-.85,.11-1.28,.32c-.43,.21-.64,.53-.64,.96Zm8.97,40.38c0-1.42-.14-2.42-.43-2.99-.29-.57-.43-.99-.43-1.28s.28-.85,.85-1.71l-1.5,.21c-1.28,0-2.56-.28-3.85-.85-.57-.14-1.36-.21-2.35-.21-.43,.14-.85,.93-1.28,2.35,1.42,0,2.6,.25,3.53,.75,.92,.5,1.78,1.1,2.56,1.82,.78,.71,1.74,1.36,2.88,1.92Zm-8.12,1.5c1.42-1.14,2.14-1.92,2.14-2.35-.29,0-.78,.29-1.5,.85l-.86,1.5h.21Zm4.27-35.68l.85-.21v-.21c0-.43-1.07-1.14-3.21-2.14l-1.5-.43c0,.14,.07,.25,.21,.32,.14,.07,.64,.39,1.5,.96,.14,.14,.28,.32,.43,.53,.14,.21,.32,.46,.53,.75,.21,.29,.6,.43,1.17,.43Zm-1.28,8.76c.57-.28,.85-.64,.85-1.07s-.14-.64-.43-.64c-.14,0-.43,.11-.85,.32s-.64,.53-.64,.96c0,.29,.21,.43,.64,.43h.43Zm-.64-65.6l-.21-.21v.21h.21Zm1.92,52.35c.43-.28,.78-.64,1.07-1.07,0-.14-.07-.28-.21-.43-.14-.14-.29-.21-.43-.21-.57,.14-1,.43-1.28,.85,0,.29,.07,.5,.21,.64,.14,.14,.35,.21,.64,.21Zm-.64,43.16c.28-.14,.64-.21,1.07-.21s.85-.11,1.28-.32c.43-.21,.64-.53,.64-.96-.29,0-.64,.04-1.07,.11-.43,.07-.85,.18-1.28,.32-.43,.14-.64,.5-.64,1.07Zm4.49,44.66c.14-.57,.86-1.64,2.14-3.21,1.28-1.57,1.92-2.56,1.92-2.99,0-.57-.36-1-1.07-1.28-.85,.57-1.5,1.21-1.92,1.92-.43,.71-.93,1.32-1.5,1.82-.57,.5-1.43,.75-2.56,.75,.14-.57,.32-1.03,.53-1.39,.21-.35,.32-.67,.32-.96,0-.43-.78-.64-2.35-.64v4.49c1.71,0,3.21,.5,4.49,1.5Zm-1.71-69.01c0-.14-.36-.57-1.07-1.28-.71-.71-1.14-1.07-1.28-1.07l.21,.21c.14,.14,.46,.5,.96,1.07,.5,.57,.82,.93,.96,1.07h.21Zm-1.28-10.04c0-.57,.25-.96,.75-1.18,.5-.21,1-.35,1.5-.43,.5-.07,.96-.18,1.39-.32,.43-.14,.71-.5,.85-1.07-.43-.71-.93-1.07-1.5-1.07-.85,0-1.71,.36-2.56,1.07-.85,.71-1.28,1.43-1.28,2.14,0,.43,.28,.71,.85,.85Zm.85,70.08c.57-.28,.86-.64,.86-1.07s-.14-.64-.43-.64c-.14,0-.43,.11-.85,.32-.43,.21-.64,.53-.64,.96,0,.29,.21,.43,.64,.43h.43Zm5.56-117.52l-1.07-1.71c-2.28,0-3.71,.07-4.27,.21-.57,.14-.93,.57-1.07,1.28,.57-.14,1.21-.21,1.92-.21,.57,0,1.25,.07,2.03,.21,.78,.14,1.6,.21,2.46,.21Zm-5.98,33.55v-.21c.14,0,.43-.14,.85-.43,.43-.28,.85-.6,1.28-.96,.43-.35,.78-.64,1.07-.85,.28-.21,.43-.39,.43-.53l-1.07,.43c-1.71,1.57-2.56,2.42-2.56,2.56Zm2.14,60.04c1.28-.14,1.92-.64,1.92-1.5-.29,.14-.64,.25-1.07,.32-.43,.07-.85,.18-1.28,.32-.43,.14-.64,.43-.64,.85h1.07Zm1.28-23.72c.57-.28,.85-.64,.85-1.07s-.14-.64-.43-.64c-.14,0-.43,.11-.85,.32-.43,.21-.64,.53-.64,.96,0,.29,.21,.43,.64,.43h.43Zm.64,4.49c2.7,0,4.7-1.5,5.98-4.49-.14-.28-.43-.67-.85-1.18-.43-.5-.89-.99-1.39-1.5-.5-.5-.89-.89-1.18-1.18l-.43-.43c0,.14,.28,.57,.85,1.28,.28,.85,.43,1.57,.43,2.14s-.21,1.17-.64,1.82c-.43,.64-1.1,1.18-2.03,1.6-.93,.43-1.68,1.07-2.24,1.92h1.5Zm4.49,43.16c0-1.71,.78-3.35,2.35-4.91,1.28-1.71,1.99-3.06,2.14-4.06-1.42,.14-2.88,1.14-4.38,2.99-1.5,1.85-2.67,2.78-3.53,2.78-.71,0-1.57-.43-2.56-1.28v.64c0,2.14,1.57,3.35,4.7,3.63l1.28,.21Zm-5.98-7.48c.28,0,.64-.03,1.07-.11,.43-.07,.86-.18,1.28-.32,.43-.14,.64-.5,.64-1.07-.29,.14-.64,.21-1.07,.21s-.86,.11-1.28,.32c-.43,.21-.64,.53-.64,.96Zm2.14-25.21c.43-.14,.78-.43,1.07-.85,0-.28-.07-.5-.21-.64-.14-.14-.29-.21-.43-.21-.57,.29-1,.64-1.28,1.07,0,.14,.07,.29,.21,.43,.14,.14,.35,.21,.64,.21Zm11.75-17.09c1.28,0,2.63-.28,4.06-.85l-.43-6.41c0-.71,.03-1.42,.11-2.14,.07-.71,.67-1.85,1.82-3.42l-.85-.21c-.29,0-1.14,.36-2.56,1.07-.43,.57-.85,.85-1.28,.85-.71,0-1.14-.57-1.28-1.71,.71-1.28,1.57-2.24,2.56-2.88,1-.64,1.78-1.28,2.35-1.92,.57-.64,.92-1.53,1.07-2.67h-4.49c-.43,1.71-1.21,2.99-2.35,3.85-1.14,.85-2.46,1.64-3.95,2.35-1.5,.71-2.88,1.64-4.17,2.78-.14-1.28-1.14-2.28-2.99-2.99,.43,4.7,2.21,8.48,5.34,11.32,2.14,2,4.49,2.99,7.05,2.99Zm-11.75-15.81c.14,0,.5-.28,1.07-.85,0-.14-.04-.32-.11-.53-.07-.21-.18-.32-.32-.32h-.21c-.29,.14-.53,.32-.75,.53-.21,.21-.32,.39-.32,.53v.64h.64Zm1.71-47.65c.57-.28,.85-.64,.85-1.07s-.14-.64-.43-.64c-.14,0-.43,.11-.85,.32-.43,.21-.64,.53-.64,.96,0,.29,.21,.43,.64,.43h.43Zm2.78,5.98c.43,0,.78-.35,1.07-1.07,0-.14-.04-.28-.11-.43-.07-.14-.18-.21-.32-.21s-.43,.11-.85,.32-.64,.53-.64,.96c0,.29,.28,.43,.85,.43Zm.43,80.34c1.28-.14,1.92-.57,1.92-1.28-.29,0-.64,.04-1.07,.11-.43,.07-.85,.18-1.28,.32-.43,.14-.64,.43-.64,.85h1.07Zm1.28-43.16c.57-.28,.86-.64,.86-1.07l-.21-.43c-1,0-1.5,.18-1.5,.53v.96h.85Zm1.28,23.93c.43,0,.78-.35,1.07-1.07,0-.14-.04-.28-.11-.43-.07-.14-.18-.21-.32-.21s-.43,.11-.86,.32-.64,.53-.64,.96c0,.29,.28,.43,.85,.43Zm-.21,10.9c.28,0,.6-.18,.96-.53s.53-.75,.53-1.17c-.14-.57-.43-.85-.85-.85-.29,0-.57,.14-.85,.43-.29,.29-.43,.57-.43,.85v.75c0,.36,.21,.53,.64,.53Zm.64-17.52h-.21c-.57,0-.85-.28-.85-.85,.14-.57,.28-.89,.43-.96,.14-.07,.28-.11,.43-.11,.43,0,.64,.36,.64,1.07-.14,.57-.29,.85-.43,.85Zm1.28,37.82c.57-.28,.85-.64,.85-1.07s-.14-.64-.43-.64c-.14,0-.43,.14-.85,.43-.43,.29-.64,.57-.64,.85s.21,.43,.64,.43h.43Zm-.21-70.08c.99,0,1.67-.25,2.03-.75,.35-.5,.64-1.21,.85-2.14,.21-.92,.6-1.67,1.18-2.24v-.43c-.14-.14-.43-.21-.85-.21-1.43,0-2.71,.43-3.85,1.28v4.49h.64Zm3.21,31.62c-.14,0-.5-.03-1.07-.11-.57-.07-1-.32-1.28-.75-.29-.43-.43-.78-.43-1.07,0-.43,.14-.85,.43-1.28l1.07-.21c.28,0,.53,.11,.75,.32,.21,.21,.46,.43,.75,.64,.28,.21,.57,.39,.86,.53,.28,.14,.53,.25,.75,.32,.21,.07,.32,.18,.32,.32,0,.85-.71,1.28-2.14,1.28Zm-1.92,22.22c.57-.14,.99-.5,1.28-1.07,0-.14-.07-.28-.21-.43-.14-.14-.29-.21-.43-.21-.57,.14-1,.5-1.28,1.07,0,.14,.07,.29,.21,.43,.14,.14,.28,.21,.43,.21Zm2.99,5.98c.57-.14,.99-.5,1.28-1.07,0-.14-.07-.28-.21-.43-.14-.14-.29-.21-.43-.21-.57,.14-1,.5-1.28,1.07,0,.14,.07,.29,.21,.43,.14,.14,.28,.21,.43,.21Zm4.06-32.9l1.07-.21v-.85c-.57,0-.93,.36-1.07,1.07Z"/>
      <path class="cls-1" d="M1365.98,337.59h-54.06c.28-1.71,1.07-3.31,2.35-4.81s1.99-2.74,2.14-3.74c-1.43,.14-2.92,1.11-4.49,2.88-1.57,1.78-2.78,2.67-3.63,2.67v-4.49c.43-.28,.64-.64,.64-1.07l-.64,.21v-24.14c.57-.28,.85-.64,.85-1.07-.14-.28-.43-.43-.85-.43v-8.76c1.42-.14,2.49-.67,3.21-1.6,.71-.92,1.35-1.89,1.92-2.88-.14-.28-.46-.67-.96-1.17-.5-.5-.96-1-1.39-1.5-.43-.5-.78-.89-1.07-1.18-.29-.28-.5-.43-.64-.43l1.07,1.28,.43,2.14c0,1.28-.85,2.35-2.56,3.21v-14.32c1.28,3.56,3.34,6.27,6.2,8.12,1.71,1.14,3.49,1.71,5.34,1.71,1.28,0,2.63-.28,4.06-.85l-.64-6.41c0-.71,.07-1.42,.21-2.14,.14-.71,.78-1.85,1.92-3.42l-1.07-.21c-.29,0-.64,.11-1.07,.32-.43,.21-.86,.46-1.28,.75-.43,.29-.79,.5-1.07,.64l-.21,.21c-.71,0-1.14-.57-1.28-1.71,.57-1.28,1.5-2.28,2.78-2.99,.71-.57,1.39-1.18,2.03-1.82s1.03-1.53,1.17-2.67h-4.49c-.43,1.57-1.21,2.81-2.35,3.74-1.14,.93-2.46,1.75-3.95,2.46-1.5,.71-2.88,1.64-4.17,2.78-.29-1.14-1-1.99-2.14-2.56v-1.92c.57-.43,.85-.78,.85-1.07s-.14-.5-.43-.64l-.43,.21v-50.43h.85l-.85-1.5v-6.84L1257.22,0h58.54l21.37,128.41L1358.5,0h58.54l-51.07,212.17v125.42Zm-56.41,0h-1.28v-.21l1.28,.21Zm.21-112.82c.43-.28,.71-.64,.86-1.07,0-.43-.14-.64-.43-.64-.14,0-.43,.11-.85,.32-.43,.21-.64,.53-.64,.96,0,.29,.14,.43,.43,.43h.64Zm2.78,5.98c.43,0,.78-.35,1.07-1.07,0-.14-.04-.28-.11-.43-.07-.14-.18-.21-.32-.21s-.43,.11-.85,.32c-.43,.21-.64,.53-.64,.96,0,.29,.28,.43,.85,.43Zm.43,80.34c1.28-.14,1.92-.64,1.92-1.5-.29,.14-.64,.25-1.07,.32-.43,.07-.85,.18-1.28,.32-.43,.14-.64,.43-.64,.85h1.07Zm1.28-43.16c.57-.28,.85-.64,.85-1.07s-.14-.64-.43-.64c-.14,0-.43,.11-.86,.32-.43,.21-.64,.53-.64,.96,0,.29,.14,.43,.43,.43h.64Zm1.28,23.93c.43,0,.78-.35,1.07-1.07,0-.14-.04-.28-.11-.43-.07-.14-.18-.21-.32-.21s-.43,.11-.85,.32c-.43,.21-.64,.53-.64,.96,0,.29,.28,.43,.85,.43Zm-.21,10.9c.28,0,.57-.14,.85-.43s.43-.57,.43-.85c0-.57-.14-.99-.43-1.28h-.21c-.29,0-.57,.14-.85,.43-.29,.29-.43,.57-.43,.85,0,.71,.14,1.14,.43,1.28h.21Zm.43-17.52h-.21c-.43,0-.64-.28-.64-.85,.14-.57,.28-.89,.43-.96,.14-.07,.28-.11,.43-.11,.43,0,.64,.36,.64,1.07-.14,.57-.36,.85-.64,.85Zm1.28-32.26c.86,0,1.5-.25,1.92-.75,.43-.5,.75-1.21,.96-2.14,.21-.92,.6-1.67,1.18-2.24,0-.14-.04-.28-.11-.43-.07-.14-.32-.21-.75-.21-1.42,0-2.71,.43-3.85,1.28v4.49h.64Zm.21,70.08c.57-.28,.85-.64,.85-1.07,0-.28-.29-.35-.85-.21-.57,.14-.85,.32-.85,.53v.75h.85Zm2.99-38.46c-.29,0-.68-.03-1.17-.11-.5-.07-.89-.32-1.17-.75-.29-.43-.43-.78-.43-1.07,0-.43,.14-.85,.43-1.28l.85-.21c.28,0,.57,.11,.85,.32,.28,.21,.57,.43,.85,.64,.28,.21,.57,.39,.85,.53,.28,.14,.53,.25,.75,.32,.21,.07,.32,.18,.32,.32,0,.85-.71,1.28-2.14,1.28Zm-1.92,22.22c.57-.14,1-.5,1.28-1.07,0-.14-.07-.28-.21-.43-.14-.14-.36-.21-.64-.21-.43,.14-.79,.5-1.07,1.07,0,.14,.07,.29,.21,.43,.14,.14,.28,.21,.43,.21Zm2.99,5.98c.57-.14,1-.5,1.28-1.07,0-.14-.07-.28-.21-.43-.14-.14-.36-.21-.64-.21-.43,.14-.78,.5-1.07,1.07,0,.14,.07,.29,.21,.43,.14,.14,.28,.21,.43,.21Zm4.06-32.9l1.07-.21v-1.07c-.71,.14-1.07,.57-1.07,1.28Z"/>
      <path class="cls-1" d="M1498.88,341.23h-42.31c-8.26,0-16.17-2-23.72-5.98-7.55-3.99-13.67-9.61-18.38-16.88-4.7-7.26-7.05-15.81-7.05-25.64V136.53c0-11.97,2.03-21.76,6.09-29.38,4.06-7.62,9.51-13.25,16.34-16.88,6.84-3.63,14.39-5.45,22.65-5.45h43.8c8.26,0,16.02,2.07,23.29,6.2,7.26,4.13,13.14,9.9,17.63,17.31,4.49,7.41,6.73,15.96,6.73,25.64v54.91l-.21-.21c-.29,0-.61,.14-.96,.43-.36,.29-.53,.57-.53,.85l.21,.43h.43c.28,0,.64-.21,1.07-.64v62.6c-1-.28-1.85-.43-2.56-.43-1.28,0-2.92,.85-4.92,2.56v.85c0,1,.25,1.89,.75,2.67,.5,.78,1.1,1.46,1.82,2.03,.71,.57,1.35,1.21,1.92,1.92l-.21,1.5c0,1.28,.78,2.07,2.35,2.35l.85,.43v2.35c-.71,.57-1.21,1.36-1.5,2.35h1.5v12.39l-1.5,.85c-.57,.71-.86,1.14-.86,1.28v.43l.21-.21c.14,0,.35-.14,.64-.43,.28-.28,.57-.6,.85-.96,.28-.35,.5-.6,.64-.75,0,7.26-.07,11.9-.21,13.89-.57-.71-1.07-1.07-1.5-1.07-.14,0-.21,.07-.21,.21l.43,1.07v1.28c0,.71,.21,1.07,.64,1.07h.21c-.14,1.85-.43,3.56-.85,5.13l-.21-.21c-.29,0-.61,.18-.96,.53-.36,.36-.53,.61-.53,.75,0,.29,.14,.43,.43,.43l1.07-.43c-2.85,11.25-8.23,19.91-16.13,25.96-7.91,6.05-16.99,9.08-27.24,9.08Zm-39.74-7.69c.57-.14,1-.5,1.28-1.07,0-.14-.07-.28-.21-.43-.14-.14-.36-.21-.64-.21-.43,.14-.78,.5-1.07,1.07,0,.14,.07,.29,.21,.43,.14,.14,.28,.21,.43,.21Zm5.13-3.21c.57,0,1.21-.43,1.92-1.28-1.28-.99-2.21-1.57-2.78-1.71-.57,0-.85,.14-.85,.43v.64c0,.43,.14,.85,.43,1.28,.28,.43,.71,.64,1.28,.64Zm11.33-34.61c2.99,0,5.52-1.14,7.58-3.42,2.06-2.28,3.1-5.41,3.1-9.4V143.16c0-7.98-3.56-12.32-10.68-13.03-2.85,0-5.31,1.18-7.37,3.53-2.07,2.35-3.1,5.52-3.1,9.51v139.74c.14,3.99,1.21,7.12,3.21,9.4,1.99,2.28,4.41,3.42,7.26,3.42Zm-3.42,37.82c.57-.71,.85-1.28,.85-1.71,0-.14-.11-.39-.32-.75-.21-.35-1.04-.53-2.46-.53-1.71,0-2.56,.43-2.56,1.28v.21l.21-.21c.43,0,.89,.11,1.39,.32,.5,.21,1.1,.43,1.82,.64,.71,.21,1.07,.39,1.07,.53v.21Zm6.62-5.98c.57,0,1.21-.18,1.92-.53,.71-.35,1.35-.82,1.92-1.39,.57-.57,.92-1.14,1.07-1.71,0-.43-.36-.71-1.07-.85,0,1-.5,1.5-1.5,1.5v-1.07c0-.57,.14-1.1,.43-1.6,.28-.5,.43-.89,.43-1.18s-.29-.5-.86-.64c-.14,.57-.36,.85-.64,.85-.43,0-1.21-.28-2.35-.85v7.48h.64Zm9.83-4.49l-.21-1.92c0-1.28,.46-2.28,1.39-2.99,.92-.71,1.53-1.57,1.82-2.56l-1.07-.21c-.29,0-.61,.11-.96,.32-.36,.21-.79,.5-1.28,.85-.5,.36-1.39,.53-2.67,.53-.14-1.28-1.14-2.28-2.99-2.99,.28,2.14,.82,4.06,1.6,5.77,.78,1.71,2.24,2.78,4.38,3.21Zm-3.63-13.46c.57-.28,.85-.64,.85-1.07,0-.14-.04-.28-.11-.43-.07-.14-.18-.21-.32-.21s-.29,.04-.43,.11c-.14,.07-.32,.21-.53,.43-.21,.21-.32,.39-.32,.53v.64h.86Zm2.78,30.98c.43-.14,.71-.57,.85-1.28h-.64l-1.5-.85c-.14,0-.29,.07-.43,.21-.14,.14-.29,.35-.43,.64,0,.85,.43,1.28,1.28,1.28h.85Zm5.34-74.14c.14,0,.43-.03,.85-.11,.43-.07,.71-.32,.85-.75v-.43c0-.14-.07-.25-.21-.32-.14-.07-.29-.11-.43-.11-.71,.29-1.07,.53-1.07,.75v.96Zm5.98,50.64c.28-.14,.64-.21,1.07-.21s.85-.11,1.28-.32,.64-.53,.64-.96c-.29,0-.68,.04-1.17,.11-.5,.07-.93,.18-1.28,.32-.36,.14-.53,.5-.53,1.07Zm.43-4.7l.43-.21c.28-.28,.5-.5,.64-.64,.14-.14,.57-.64,1.28-1.5v-.21l-.21,.21c-.14,.14-.5,.5-1.07,1.07-.57,.57-.93,.93-1.07,1.07v.21Zm10.04,7.69c0-1.42,.28-2.67,.85-3.74,.57-1.07,.85-2.24,.85-3.53l-.21-1.71h-1.71c-2.56,0-4.49-.5-5.77-1.5,.57,1.71,1.42,2.99,2.56,3.85,.57,.43,.86,.85,.86,1.28s-1.14,1.21-3.42,2.35c1,.43,1.96,.93,2.88,1.5,.92,.57,1.96,1.07,3.1,1.5Zm2.14-68.59c.57-.14,.89-.35,.96-.64,.07-.28,.11-.5,.11-.64s-.14-.28-.43-.43c-.14,0-.43,.11-.85,.32s-.64,.53-.64,.96c0,.29,.14,.43,.43,.43h.43Zm12.82,2.99v-1.5c0-2.56-1-4.06-2.99-4.49v.64c0,.57-.18,.85-.53,.85h-1.18l-3.63-.21c-.57,.14-.85,.43-.85,.85,0,.29,.14,.61,.43,.96,.28,.36,.82,.64,1.6,.85,.78,.21,1.64,.36,2.56,.43,.92,.07,1.78,.21,2.56,.43,.78,.21,1.46,.61,2.03,1.18Zm-5.34,65.6c.14,0,.32-.11,.53-.32,.21-.21,.35-.39,.43-.53,.07-.14,.11-.28,.11-.43l-.43-.43c-.29,0-.61,.14-.96,.43-.36,.29-.53,.57-.53,.85l.21,.43h.64Zm.85-73.07c.28-.14,.64-.21,1.07-.21s.82-.07,1.17-.21c.35-.14,.6-.5,.75-1.07-.29,0-.68,.04-1.17,.11-.5,.07-.93,.18-1.28,.32-.36,.14-.53,.5-.53,1.07Zm2.35-5.98c.43-.28,.71-.64,.85-1.07,0-.28-.14-.5-.43-.64-.29,0-.61,.18-.96,.53-.36,.36-.53,.61-.53,.75,0,.29,.14,.43,.43,.43h.64Zm0,64.1c.43-.28,.71-.64,.85-1.07,0-.28-.14-.5-.43-.64-.29,0-.61,.18-.96,.53s-.53,.61-.53,.75c0,.29,.14,.43,.43,.43h.64Zm-.21-68.59c.28,0,.57-.14,.85-.43,.28-.28,.57-.6,.85-.96,.28-.35,.5-.6,.64-.75v-.21l-1.5,.85c-.57,.71-.85,1.21-.85,1.5Zm2.99,58.76c.14,0,.35-.14,.64-.43,.28-.28,.43-.57,.43-.85,0-.71-.14-1.14-.43-1.28-1,0-1.5,.36-1.5,1.07,0,1,.28,1.5,.85,1.5Zm1.5-70.72c.71-.14,1.07-.5,1.07-1.07,0-.43-.14-.64-.43-.64-.14,0-.43,.11-.85,.32s-.64,.46-.64,.75c0,.43,.14,.64,.43,.64h.43Zm1.92,66.45c.14,0,.28-.28,.43-.85,0-.28-.11-.5-.32-.64-.21-.14-.39-.21-.53-.21h-.43c-.14,0-.21,.29-.21,.85,0,.29,.11,.5,.32,.64,.21,.14,.39,.21,.53,.21h.21Zm7.91-98.71c1.42,0,2.35-1.21,2.78-3.63,0-.57-.07-.92-.21-1.07-.29,0-.61,.46-.96,1.39-.36,.93-1.17,1.39-2.46,1.39h-.64v-1.5l-1.71,.64c.86,.57,1.42,1.35,1.71,2.35,.57,.29,1.07,.43,1.5,.43Zm-2.99,60.68c.28-.14,.64-.21,1.07-.21s.82-.11,1.18-.32c.35-.21,.6-.53,.75-.96-.43,0-.85,.04-1.28,.11-.43,.07-.82,.18-1.18,.32-.36,.14-.53,.5-.53,1.07Zm4.49,14.96c.85-.28,1.35-.5,1.5-.64s.21-.35,.21-.64c0-.14-.07-.25-.21-.32-.14-.07-.29-.11-.43-.11-.85,.29-1.28,.71-1.28,1.28l.21,.43Zm5.98-6.62c-1.57-.57-2.96-1.32-4.17-2.24-1.21-.92-1.82-2.46-1.82-4.59,.85-.57,1.64-.85,2.35-.85s1.32,.07,1.82,.21c.5,.14,.89,.21,1.18,.21h.64v7.26Zm-2.14,18.38c.57-.28,.85-.64,.85-1.07l-.21-.43c-.29,0-.64,.14-1.07,.43-.43,.29-.64,.5-.64,.64,0,.29,.14,.43,.43,.43h.64Z"/>
      <path class="cls-1" d="M1642.46,414.3h-71.79v-45.51h51.07c3.28-.14,6.02-1.32,8.23-3.53,2.21-2.21,3.31-4.88,3.31-8.01v-26.71c-6.55,7.12-14.39,10.68-23.5,10.68h-6.2c-14.39,0-26.17-4.59-35.36-13.78-9.19-9.19-13.78-21.54-13.78-37.07v-32.9c.28-.43,.5-.92,.64-1.5h-.64v-122c0-14.39,4.45-26.17,13.35-35.36,8.9-9.19,20.54-13.78,34.93-13.78h22.65c10.82,0,19.73,5.7,26.71,17.09l5.77-13.46h33.12V351.91c-5.84,2.28-10.83,3.92-14.96,4.91-3.13,.85-7.48,1.5-13.03,1.92-.14-.29-.21-.71-.21-1.28s-.11-1.1-.32-1.6c-.21-.5-.68-.75-1.39-.75-.85,.85-1.28,1.64-1.28,2.35s.5,1.21,1.5,1.5c.99,.28,1.82,.67,2.46,1.18,.64,.5,1.03,1.32,1.17,2.46,.43,.71,.64,1.5,.64,2.35,0,.28-.11,.78-.32,1.5-.21,.71-.57,1.5-1.07,2.35-.5,.85-.75,1.57-.75,2.14s.5,.85,1.5,.85c.43-2.56,2.14-3.85,5.13-3.85l2.35,.21c3.56-5.13,7.91-9.48,13.03-13.03,1.99,0,3.85-.57,5.55-1.71v5.34l-.85,.21c-.85,.28-1.28,.71-1.28,1.28l.21,.43h.85c.43,0,.78-.29,1.07-.85v3.42c0,11.25-2.28,20.65-6.84,28.2-4.56,7.55-10.54,13.25-17.95,17.09-7.41,3.85-15.31,5.77-23.72,5.77Zm-72.86-117.52c-.29,0-.78-.5-1.5-1.5-1-.71-1.5-1.21-1.5-1.5v.43c1.85,1.85,2.85,2.71,2.99,2.56Zm5.34-18.8c.14-.14,.28-.5,.43-1.07-.29-.99-.93-1.5-1.92-1.5-.85,0-1.5,.5-1.92,1.5,.85,0,1.5,.18,1.92,.53,.43,.36,.71,.53,.85,.53h.64Zm6.84,13.03c1.42,0,2.35-.99,2.78-2.99-.57,0-1-.18-1.28-.53-.29-.35-.53-.75-.75-1.18-.21-.43-.43-.82-.64-1.18-.21-.35-.53-.6-.96-.75-.14,1.14-.43,1.71-.86,1.71s-.93-.43-1.5-1.28c-1.28-1.57-2.21-2.35-2.78-2.35-.14,0-.25,.11-.32,.32-.07,.21-.11,.46-.11,.75,0,1.85,.64,3.56,1.92,5.13,1.28,1.57,2.78,2.35,4.49,2.35Zm-2.78,119.87v-3.63h-3.63v3.63h3.63Zm.86-130.12c.85-.57,1.28-1,1.28-1.28,0-.57-.14-.85-.43-.85-.14,0-.39,.07-.75,.21-.36,.14-.64,.36-.85,.64-.21,.29-.32,.5-.32,.64,0,.43,.14,.64,.43,.64h.64Zm6.62,31.62c3.13-.14,4.98-1.42,5.56-3.85-2.99,.14-4.84,1.43-5.56,3.85Zm.85,98.5c.14,0,.35-.11,.64-.32,.28-.21,.5-.46,.64-.75l-.21-.85h-.64c-.85,.43-1.28,.75-1.28,.96v.96h.85Zm4.7-120.94c0-2.99-1.21-4.84-3.63-5.56,0,3.13,1.21,4.99,3.63,5.56Zm27.99,26.28l1.92-.21c-.14-1.85-.75-3.27-1.82-4.27-1.07-1-2.35-1.89-3.85-2.67-1.5-.78-2.78-1.74-3.85-2.88-1.07-1.14-1.6-2.85-1.6-5.13-2.99-.28-5.63-1.57-7.91-3.85-2.42-1.99-4.56-2.99-6.41-2.99-1.28,0-2.78,.43-4.49,1.28-.14-.71-.46-1.35-.96-1.92-.5-.57-.96-.92-1.39-1.07-.57,0-1,.43-1.28,1.28,.57,.85,1.32,1.57,2.24,2.14,.92,.57,2.06,1.1,3.42,1.6,1.35,.5,2.6,1.21,3.74,2.14,1.14,.93,1.71,2.39,1.71,4.38v.85l2.56-.43c1.42,0,2.74,.71,3.95,2.14,1.21,1.43,2.6,2.14,4.17,2.14l2.35-.21c1,1,1.74,2.14,2.24,3.42,.5,1.28,1.17,2.32,2.03,3.1,.85,.78,1.92,1.18,3.21,1.18Zm-25.21-24.36c.57-.14,1-.5,1.28-1.07,0-.28-.04-.53-.11-.75-.07-.21-.18-.32-.32-.32-.43,0-.85,.18-1.28,.53-.43,.36-.64,.68-.64,.96,0,.43,.14,.64,.43,.64h.64Zm5.13,117.3c.28,0,.64-.11,1.07-.32s.64-.61,.64-1.18c0-.43-.14-.64-.43-.64-.14,0-.39,.07-.75,.21-.36,.14-.64,.35-.85,.64-.21,.28-.32,.5-.32,.64,0,.43,.21,.64,.64,.64Zm22.65-113.46c2.99,0,5.52-1.28,7.58-3.85,2.06-2.56,3.1-5.84,3.1-9.83V144.87c0-5.13-1.03-8.87-3.1-11.22-2.07-2.35-4.59-3.53-7.58-3.53s-5.31,1.18-7.37,3.53c-2.07,2.35-3.1,6.09-3.1,11.22v137.17c0,3.99,1.03,7.26,3.1,9.83,2.06,2.56,4.52,3.85,7.37,3.85Zm7.91,105.98c1-.71,1.67-1.32,2.03-1.82,.35-.5,.6-.82,.75-.96v-.21c-.43,0-1.03,.39-1.82,1.18-.79,.78-1.18,1.25-1.18,1.39v.43h.21Zm4.49-3.85c2.7-.43,4.7-1.5,5.98-3.21s2.42-3.71,3.42-5.98c-1.28,.14-2.56,.43-3.85,.85-1.28,.43-2.64,.64-4.06,.64-1.14,0-2.28-.5-3.42-1.5v.85c0,.71,.21,1.32,.64,1.82,.43,.5,.96,.92,1.6,1.28,.64,.35,1.17,.89,1.6,1.6,0,.71-.25,1.35-.75,1.92-.5,.57-.89,1.14-1.17,1.71Zm19.87-7.48c.57-.29,.85-.64,.85-1.07,0-.29-.04-.5-.11-.64-.07-.14-.18-.21-.32-.21s-.5,.11-1.07,.32c-.57,.21-.85,.6-.85,1.18,0,.28,.28,.43,.85,.43h.64Zm3.63,7.48c.28-.14,.53-.36,.75-.64,.21-.29,.32-.5,.32-.64,0-.29-.07-.43-.21-.43l-.21-.21c-.29,0-.68,.11-1.18,.32-.5,.21-.75,.6-.75,1.17,0,.28,.21,.43,.64,.43h.64Zm4.06-15.6c.14,0,.28-.36,.43-1.07,0-.43-.11-.75-.32-.96-.21-.21-.46-.32-.75-.32-.43,.14-.71,.57-.85,1.28,0,.28,.11,.53,.32,.75,.21,.21,.46,.32,.75,.32h.43Zm5.98,11.97l.21-1.28c0-.57-.21-1.14-.64-1.71-.43-.57-1-1.07-1.71-1.5-.71-.43-1.36-.64-1.92-.64-1,0-1.5,.43-1.5,1.28,1.14,.14,1.92,.82,2.35,2.03,.43,1.21,1.14,1.82,2.14,1.82h1.07Zm-1.71-7.48c.28-.14,.71-.21,1.28-.21s1.1-.11,1.6-.32c.5-.21,.75-.68,.75-1.39-.43,.14-.89,.25-1.39,.32-.5,.07-1,.18-1.5,.32-.5,.14-.75,.57-.75,1.28Zm11.11-37.18l.21-1.5c0-.85-.29-1.5-.85-1.92-.57-.43-1.36-.75-2.35-.96-1-.21-1.85-.61-2.56-1.17v1.07c0,2.99,1.57,4.49,4.7,4.49h.86Zm2.56,30.13c2.56,0,4.27-.64,5.13-1.92l.21-.43c0-.57-.78-1.14-2.35-1.71-.14,.71-.64,1.07-1.5,1.07-.29,0-.61-.07-.96-.21-.36-.14-.75-.21-1.17-.21-1,0-1.64,.99-1.92,2.99,.85,.28,1.71,.43,2.56,.43Zm0-7.91c.28,0,.57-.11,.85-.32,.28-.21,.43-.46,.43-.75v-.21c0-.43-.29-.64-.85-.64-.57,.28-1,.71-1.28,1.28v.21c0,.28,.14,.43,.43,.43h.43Zm5.34-3.63c.14,0,.46-.14,.96-.43,.5-.29,.75-.57,.75-.85s-.07-.5-.21-.64c-.14-.14-.29-.21-.43-.21s-.46,.14-.96,.43c-.5,.28-.75,.64-.75,1.07s.21,.64,.64,.64Z"/>
      <path class="cls-1" d="M1768.74,341.23h-14.74l-.21-1.28v-.64h-.85c-1.43,0-2.64,.64-3.63,1.92-15.96-1-28.13-7.19-36.54-18.59l.64-1.28h-1.5c-5.84-8.4-8.76-18.66-8.76-30.77V133.97c0-14.39,4.45-26.17,13.35-35.36,8.9-9.19,20.54-13.78,34.93-13.78h22.65c10.82,0,19.73,5.7,26.71,17.09l5.77-13.46h33.12V254.48h-.21c-1.28,0-1.92,.43-1.92,1.28,.28-.14,.64-.21,1.07-.21s.78-.07,1.07-.21v52.13c-1.14-.85-2.28-1.28-3.42-1.28-.29,0-.61,.04-.96,.11-.36,.07-.61,.61-.75,1.6,.14,0,.43,.14,.85,.43,.43,.29,1.03,.57,1.82,.85,.78,.29,1.39,.43,1.82,.43h.64v20.08c-.57,.85-1.28,1.57-2.14,2.14,1-1.85,1.5-3.49,1.5-4.91,0-1.57-.75-3.27-2.24-5.13-1.5-1.85-2.24-4.13-2.24-6.84v-1.07c-2.14-.71-3.63-1.07-4.49-1.07s-2.35,.36-4.49,1.07c0-2.14-.64-3.2-1.92-3.2l-1.07,.21v1.92c0,2.99,1.28,5.98,3.85,8.97,1.71,1.71,2.92,4.06,3.63,7.05h-.64c-.71,0-1.46,.25-2.24,.75-.79,.5-1.32,1.25-1.6,2.24,3.7-.43,5.55-2.14,5.55-5.13,0-1.14-.36-2.42-1.07-3.85,.71,.71,1.57,1.25,2.56,1.6,1,.36,1.82,.85,2.46,1.5,.64,.64,.96,1.6,.96,2.88h-4.49c0,2.42,1.21,4.27,3.63,5.56,1.28,.71,1.92,1.43,1.92,2.14l-.43,1.07h-30.13l-7.05-15.81c-3.14,4.7-6.91,8.76-11.33,12.18-.43-.28-.93-.5-1.5-.64,0,.57-.57,1.07-1.71,1.5-1,.71-1.5,1.28-1.5,1.71l.21,.43c-4.7,2.7-9.69,4.13-14.96,4.27Zm-60.47-26.28c.43-.28,.64-.64,.64-1.07-.14,0-.25,.07-.32,.21-.07,.14-.14,.29-.21,.43-.07,.14-.11,.29-.11,.43Zm5.77-1.5c.28,0,.57-.35,.86-1.07-.57-.14-.86-.35-.86-.64v-.85l.86-1.5h-2.99c0,.71-.21,1.25-.64,1.6-.43,.36-.71,.82-.85,1.39,.57,.14,1.17,.36,1.82,.64,.64,.29,1.25,.43,1.82,.43Zm-.21-18.59c.43-.28,1.39-.6,2.88-.96,1.5-.35,2.38-1.18,2.67-2.46h-1.07c-1,0-2.07,.14-3.21,.43l-1.28,2.99Zm3.42,29.49c.57-.28,.86-.57,.86-.85,0-.57-.14-.85-.43-.85s-.61,.11-.96,.32c-.36,.21-.46,.53-.32,.96,0,.29,.14,.43,.43,.43h.43Zm-.85-20.94c.43-.14,.85-.21,1.28-.21s.82-.07,1.17-.21c.35-.14,.53-.5,.53-1.07-.29,.14-.64,.21-1.07,.21s-.82,.07-1.17,.21c-.36,.14-.61,.5-.75,1.07Zm10.47-2.99l.21-1.92c0-2.14-1.36-3.63-4.06-4.49l-2.14-1.07c0,1.71-.5,3.2-1.5,4.49,1.14,.29,2.24,.85,3.31,1.71,1.07,.85,2.46,1.28,4.17,1.28Zm-4.49,26.92c1,0,1.5-.35,1.5-1.07v-.43c-.71-.28-1.07-.57-1.07-.85s.11-.6,.32-.96c.21-.35,.43-.71,.64-1.07,.21-.35,.32-.6,.32-.75l-.21-.85h-1.28c-2,0-3.06,.5-3.21,1.5,.71,.14,1.07,.36,1.07,.64s-.11,.64-.32,1.07-.39,.85-.53,1.28c-.14,.43-.21,.93-.21,1.5h2.99Zm.86-7.48c.57-.28,.85-.57,.85-.85l-.21-.85c-1.14,0-1.64,.43-1.5,1.28,0,.29,.14,.43,.43,.43h.43Zm6.62-25.43v-2.99c0-.99-.36-1.5-1.07-1.5h-.43c-.14,.71-.36,1.07-.64,1.07s-.64-.11-1.07-.32c-.43-.21-.85-.39-1.28-.53-.43-.14-.93-.21-1.5-.21v.64c0,1.28,.43,2.21,1.28,2.78,1.57,.71,3.13,1.07,4.7,1.07Zm-1.92,29.49l1.92-1.07c0-.85-.5-1.28-1.5-1.28-.85,0-1.36,.43-1.5,1.28,.28,.71,.64,1.07,1.07,1.07Zm1.92,3.42c.28,0,.64-.14,1.07-.43,.43-.28,.64-.5,.64-.64s-.07-.28-.21-.43c-.14-.14-.29-.21-.43-.21-.85,.29-1.21,.71-1.07,1.28v.43Zm5.34-8.97c.57-.28,.85-.64,.85-1.07s-.14-.64-.43-.64c-.14,0-.39,.11-.75,.32-.36,.21-.53,.53-.53,.96,0,.29,.14,.43,.43,.43h.43Zm8.12,8.97c.71,0,1.21-.5,1.5-1.5-.71-.14-1.43-.6-2.14-1.39-.71-.78-1.5-1.32-2.35-1.6l-.21,1.07c0,.57,.32,1.28,.96,2.14s1.39,1.28,2.24,1.28Zm-2.99-8.97c.28-.14,.67-.21,1.18-.21s.92-.11,1.28-.32c.35-.21,.53-.53,.53-.96-.29,0-.64,.04-1.07,.11-.43,.07-.85,.18-1.28,.32-.43,.14-.64,.5-.64,1.07Zm2.99-5.98c.71,0,1.35-.11,1.92-.32,.57-.21,.92-.6,1.07-1.18h-1.6c-.64,0-1.25,.07-1.82,.21-.57,.14-.93,.57-1.07,1.28h1.5Zm3.63,12.39c1.14,0,2.38-.28,3.74-.85,1.35-.57,2.99-1.64,4.91-3.21,1.92-1.57,4.31-2.85,7.16-3.85l-1.71,.21c-2.42,0-3.85-1.07-4.27-3.21h4.49v-1.07c0-1.99,1.28-2.99,3.85-2.99,1.28,0,2.42,.07,3.42,.21h1.28l-1.07-.64c-.71-.85-1.53-1.46-2.46-1.82-.93-.35-1.68-.71-2.24-1.07-.57-.35-1-.89-1.28-1.6-.43,2.56-2.49,3.85-6.2,3.85-1.57,0-2.49,.21-2.78,.64,.43,.71,.64,1.43,.64,2.14,0,1.43-1.68,3.31-5.02,5.66-3.35,2.35-5.38,4.74-6.09,7.16,1.28,.29,2.49,.43,3.63,.43Zm5.34-23.08c.71,0,1.21-.43,1.5-1.28l-1.5,.21c-.85,0-1.28-.28-1.28-.85s.32-1.1,.96-1.6c.64-.5,1.25-.75,1.82-.75,1.99,1.28,3.35,1.92,4.06,1.92,.28,0,.43-.14,.43-.43s-.21-.75-.64-1.39c-.43-.64-1-1.25-1.71-1.82-.71-.57-1.42-.99-2.14-1.28-.14,.57-.29,.85-.43,.85h-.53c-.21,0-.53-.25-.96-.75-.43-.5-.78-1.03-1.07-1.6-.29-.57-.43-1.14-.43-1.71,0-.28,.07-.75,.21-1.39,.14-.64,.39-1.28,.75-1.92,.35-.64,.6-1.18,.75-1.6,0-.43-.43-.71-1.28-.85,0,.85-.5,1.28-1.5,1.28-.85,0-1.36-.43-1.5-1.28,.71,0,1.07-.35,1.07-1.07-.14-.14-.5-.28-1.07-.43-.29,1-1,1.5-2.14,1.5h-.85l-.21,1.07c0,1.28,.78,2.07,2.35,2.35,1.57,.29,2.35,1.14,2.35,2.56h-4.49v.64c0,1,.57,1.92,1.71,2.78,.57,.29,1,.64,1.28,1.07-.57,.14-.85,.5-.85,1.07,0,1,.6,2.03,1.82,3.1,1.21,1.07,2.38,1.6,3.53,1.6Zm-1.5,10.68c.85-.99,1.28-2.06,1.28-3.21,0-.14-.04-.57-.11-1.28-.07-.71-.96-1.21-2.67-1.5v1.92c0,1,.07,1.85,.21,2.56,.14,.71,.57,1.21,1.28,1.5Zm.85,23.5c.28-.14,.5-.5,.64-1.07-.57,0-1.28-.35-2.14-1.07-.14,0-.29,.07-.43,.21-.14,.14-.29,.43-.43,.85,0,.71,.5,1.07,1.5,1.07h.85Zm2.14-62.6l-2.56-2.56,.21,.21c.14,.29,.46,.68,.96,1.17,.5,.5,.82,.82,.96,.96l.43,.21Zm2.56,4.7c1.28-.14,1.92-.64,1.92-1.5-.29,.14-.64,.25-1.07,.32-.43,.07-.85,.18-1.28,.32-.43,.14-.64,.43-.64,.85h1.07Zm-.21,26.92c.57-.28,.85-.64,.85-1.07s-.14-.64-.43-.64c-.85,0-1.28,.21-1.28,.64v.85c0,.14,.14,.21,.43,.21h.43Zm.64,20.3l1.5-.85c0-.85-.5-1.28-1.5-1.28-.86,0-1.36,.43-1.5,1.28,.14,.57,.35,.85,.64,.85h.86Zm2.35-20.3c.57-.28,.85-.64,.85-1.07,0-.14-.04-.28-.11-.43-.07-.14-.18-.21-.32-.21h-.21c-.29,.14-.53,.32-.75,.53-.21,.21-.32,.39-.32,.53v.64h.85Zm14.1,2.99v-1.07c0-.71-.07-1.32-.21-1.82-.14-.5-.85-.75-2.14-.75s-2-.28-2.14-.85c.71-.99,1.21-2.21,1.5-3.63,.28-1.42,.78-2.7,1.5-3.85l-.85-.21c3.28,0,5.95-1.28,8.01-3.85,2.06-2.56,3.1-5.84,3.1-9.83v-7.05c.43-.14,.82-.28,1.18-.43,.35-.14,.53-.43,.53-.85h-1.07l-.64,.21V144.87c0-5.13-1.03-8.87-3.1-11.22-2.07-2.35-4.59-3.53-7.58-3.53s-5.31,1.18-7.37,3.53c-2.07,2.35-3.1,6.09-3.1,11.22v107.9c-.71,0-1.07,.14-1.07,.43v1.07c.57,0,.92-.07,1.07-.21v27.99c0,5.7,1.99,9.83,5.98,12.39h-1.07l-.21,1.07c0,.43,.43,1.21,1.28,2.35,.43,.57,.64,1,.64,1.28,0,.71-.57,1.14-1.71,1.28-.57-3.27-2.56-5.27-5.98-5.98v5.98h4.49c.43,1.85,1.25,3.21,2.46,4.06,1.21,.85,2.6,1.64,4.17,2.35,.85,.29,1.64,.64,2.35,1.07Zm-12.39,29.7c1.28-.14,1.92-.57,1.92-1.28-.29,0-.64,.04-1.07,.11-.43,.07-.85,.18-1.28,.32-.43,.14-.64,.43-.64,.85h1.07Zm1.28-34.19c.57-.28,.86-.64,.86-1.07s-.14-.64-.43-.64c-.14,0-.39,.11-.75,.32-.36,.21-.53,.53-.53,.96,0,.29,.14,.43,.43,.43h.43Zm5.13,11.97c.28-.14,.64-.21,1.07-.21s.86-.11,1.28-.32,.64-.53,.64-.96c-.29,0-.64,.04-1.07,.11-.43,.07-.86,.18-1.28,.32-.43,.14-.64,.5-.64,1.07Zm0,10.47c.28-.14,.64-.21,1.07-.21s.86-.11,1.28-.32,.64-.53,.64-.96c-.29,0-.64,.04-1.07,.11-.43,.07-.86,.18-1.28,.32-.43,.14-.64,.5-.64,1.07Zm0,7.48c.14,0,.46-.11,.96-.32,.5-.21,.75-.53,.75-.96,0-.14-.14-.28-.43-.43-.14,0-.39,.11-.75,.32-.36,.21-.53,.53-.53,.96v.43Zm1.5-10.47c.28-.14,.67-.21,1.17-.21s.92-.11,1.28-.32c.35-.21,.53-.53,.53-.96-.29,0-.64,.04-1.07,.11-.43,.07-.85,.18-1.28,.32-.43,.14-.64,.5-.64,1.07Zm1.5,7.48c.14,0,.46-.11,.96-.32,.5-.21,.75-.46,.75-.75,0-.43-.14-.64-.43-.64-.14,0-.39,.11-.75,.32-.36,.21-.53,.53-.53,.96v.43Zm1.07,9.83c.14-.14,.28-.5,.43-1.07,0-.14-.11-.32-.32-.53-.21-.21-.39-.32-.53-.32-.29,.14-.5,.43-.64,.85,0,.43,.11,.71,.32,.85,.21,.14,.46,.21,.75,.21Zm5.55-38.03c.43-.14,.71-.71,.86-1.71-.14,0-.39-.14-.75-.43-.36-.28-.89-.57-1.6-.85-.71-.28-1.36-.43-1.92-.43-.14,0-.43,.04-.86,.11-.43,.07-.71,.61-.85,1.6,.14,.14,.35,.21,.64,.21,.43,.43,1.03,.78,1.82,1.07,.78,.29,1.39,.43,1.82,.43h.85Zm-4.7,11.54c.28-.14,.78-.57,1.5-1.28l.86-1.28-2.35,2.56Zm1.07,7.69c.28-.14,.64-.21,1.07-.21s.85-.11,1.28-.32,.64-.53,.64-.96c-.29,0-.64,.04-1.07,.11-.43,.07-.85,.18-1.28,.32-.43,.14-.64,.5-.64,1.07Zm.85,4.49c.57-.28,.85-.64,.85-1.07s-.14-.64-.43-.64c-.14,0-.39,.11-.75,.32-.36,.21-.53,.53-.53,.96,0,.29,.14,.43,.43,.43h.43Zm3.21,13.25c1.28-.14,1.92-.64,1.92-1.5-.29,.14-.64,.25-1.07,.32-.43,.07-.85,.18-1.28,.32-.43,.14-.64,.43-.64,.85h1.07Zm5.98-100.42c.14,0,.28-.28,.43-.85,0-.57-.21-.85-.64-.85s-.71,.29-.85,.85c0,.57,.21,.85,.64,.85h.43Zm2.14,43.8c.71,0,1.64-.5,2.78-1.5-1.42-.71-2.56-1.07-3.42-1.07-.85,.14-1.36,.43-1.5,.85v.21c0,1,.5,1.5,1.5,1.5h.64Zm3.21-7.27c.71,0,1.57-.5,2.56-1.5-1.28-.57-2.28-.85-2.99-.85-1.14,0-1.71,.29-1.71,.85v.21c0,.85,.5,1.28,1.5,1.28h.64Zm-1.07,4.27c.57-.28,.85-.64,.85-1.07l-.21-.43c-.14,0-.43,.11-.85,.32s-.64,.53-.64,.96c0,.14,.14,.21,.43,.21h.43Zm3.63,47.86c.85-1,1.28-2.06,1.28-3.21,0-.14-.04-.57-.11-1.28-.07-.71-.96-1.21-2.67-1.5-.14,1.14-.32,2-.53,2.56-.21,.57-.32,1.07-.32,1.5,0,.29,.03,.57,.11,.85,.07,.29,.82,.64,2.24,1.07Zm.21-34.83c.28-.14,.71-.46,1.28-.96,.57-.5,.85-.82,.85-.96l-.21-.21-.43,.43c-.43,.14-.96,.39-1.6,.75-.64,.36-.96,.61-.96,.75s.14,.21,.43,.21h.64Zm.64-50.21c.57-.28,.85-.64,.85-1.07,0-.14-.04-.28-.11-.43-.07-.14-.18-.21-.32-.21h-.21c-.29,.14-.53,.32-.75,.53-.21,.21-.32,.39-.32,.53v.64h.85Zm-.21,38.89l.21-.21c.14,0,.39-.14,.75-.43,.35-.28,.67-.57,.96-.85,.28-.28,.43-.5,.43-.64l.21-.43-1.71,.85c-.57,.85-.85,1.43-.85,1.71Zm1.71-23.93c.57-.28,.86-.64,.86-1.07s-.14-.64-.43-.64c-.14,0-.39,.11-.75,.32-.36,.21-.53,.53-.53,.96,0,.29,.14,.43,.43,.43h.43Zm4.49-10.47c.57-.28,.85-.64,.85-1.07,0-.14-.04-.28-.11-.43-.07-.14-.18-.21-.32-.21h-.21c-.29,.14-.53,.32-.75,.53-.21,.21-.32,.39-.32,.53v.64h.85Zm1.28,32.69c.43,0,.78-.28,1.07-.85l-.21-.64c-.71,0-1.21,.29-1.5,.85v.64h.64Zm4.7-16.24c.57-.28,.86-.64,.86-1.07s-.14-.64-.43-.64c-.14,0-.43,.11-.85,.32-.43,.21-.64,.53-.64,.96,0,.29,.21,.43,.64,.43h.43Zm5.34,68.59c.14,0,.35-.07,.64-.21,.28-.14,.5-.35,.64-.64l.21-.21c0-.43-.14-.64-.43-.64-.14,0-.43,.11-.85,.32-.43,.21-.64,.53-.64,.96,0,.29,.14,.43,.43,.43Zm22.22-20.94l.21-1.5c-.14-1.14-.89-1.92-2.24-2.35-1.36-.43-2.17-1.14-2.46-2.14,.43,0,.78-.07,1.07-.21,.28-.14,.43-.43,.43-.85v-.43c-2,.85-3.99,1.28-5.98,1.28-1.85,0-3.35-.92-4.49-2.78,1-.28,1.5-.99,1.5-2.14v-.85h-2.99c-1,0-1.5,.36-1.5,1.07,0,.14,.11,.39,.32,.75,.21,.36,.64,.85,1.28,1.5,.64,.64,1.25,1.39,1.82,2.24,.57,.85,.92,2,1.07,3.42,1-.14,1.92-.35,2.78-.64,.85-.28,1.57-.5,2.14-.64,.43,0,.64,.21,.64,.64,0,.29-.36,1-1.07,2.14l2.14-.21c2.42,0,4.2,.57,5.34,1.71Zm-14.1-31.41c.57-.28,.86-.64,.86-1.07l-.21-.43c-.14,0-.46,.11-.96,.32-.5,.21-.75,.53-.75,.96,0,.14,.21,.21,.64,.21h.43Zm2.14,46.37v-.85c0-2.56-.64-3.85-1.92-3.85l-1.07,.21v2.99c.71,0,1.28,.21,1.71,.64,.43,.43,.85,.71,1.28,.85Zm-.85-76.07c.43-.14,.78-.5,1.07-1.07,0-.14-.04-.28-.11-.43-.07-.14-.18-.21-.32-.21s-.43,.11-.86,.32-.64,.53-.64,.96c0,.29,.14,.43,.43,.43h.43Zm.21,66.66c.14,0,.35-.07,.64-.21,.28-.14,.53-.43,.75-.85,.21-.43,.32-.78,.32-1.07,0-1.14-.85-1.78-2.56-1.92l-.21,2.14c0,1.28,.35,1.92,1.07,1.92Zm1.5-62.18c.57-.28,.85-.64,.85-1.07s-.14-.64-.43-.64c-.14,0-.43,.11-.85,.32-.43,.21-.64,.53-.64,.96,0,.29,.21,.43,.64,.43h.43Zm1.28,32.69c.43,0,.78-.28,1.07-.85,0-.14-.04-.32-.11-.53-.07-.21-.18-.32-.32-.32s-.43,.14-.85,.43c-.43,.29-.64,.57-.64,.85s.14,.43,.43,.43h.43Zm.43,44.23l.43-.85c0-.28-.11-.53-.32-.75-.21-.21-.39-.32-.53-.32-.29,.14-.5,.5-.64,1.07,0,.29,.11,.5,.32,.64,.21,.14,.39,.21,.53,.21h.21Zm4.7-4.49c.14-.14,.21-.57,.21-1.28,0-1.28-1-1.92-2.99-1.92-.71,0-1.21,.14-1.5,.43-.29,.29-.43,.5-.43,.64,0,.43,.07,.78,.21,1.07l.43,.21h1.28c.28,0,.57-.07,.85-.21,.28,0,.46,.04,.53,.11,.07,.07,.18,.18,.32,.32,.14,.14,.25,.29,.32,.43,.07,.14,.18,.21,.32,.21h.43Zm.21-58.12l1.5-.85c0-.85-.5-1.28-1.5-1.28-.85,0-1.36,.43-1.5,1.28,.14,.57,.35,.85,.64,.85h.85Zm-1.5,6.62c.28-.14,.64-.25,1.07-.32,.43-.07,.85-.18,1.28-.32,.43-.14,.64-.43,.64-.85-.29,0-.64,.04-1.07,.11-.43,.07-.85,.18-1.28,.32-.43,.14-.64,.5-.64,1.07Zm4.91-64.1c.43-.14,.78-.43,1.07-.85l-1.71,.21c0,.14,.07,.29,.21,.43,.14,.14,.28,.21,.43,.21Zm0,16.45c.57-.28,1-.64,1.28-1.07,0-.14-.07-.28-.21-.43-.14-.14-.29-.21-.43-.21-.57,.14-1,.43-1.28,.85,0,.29,.07,.5,.21,.64,.14,.14,.28,.21,.43,.21Zm2.78,49.14c.57-.14,1.18-.46,1.82-.96,.64-.5,.96-1.03,.96-1.6,0-.14-.07-.25-.21-.32-.14-.07-.36-.11-.64-.11-.57,0-1.35,.21-2.35,.64-.29,.29-.64,.36-1.07,.21-.29,0-.85-.28-1.71-.85l-.21,1.07c0,1.28,.78,1.92,2.35,1.92h1.07Zm.64-47.86c.57-.28,.85-.64,.85-1.07l-.21-.43c-1,0-1.5,.18-1.5,.53v.96h.85Zm2.14,33.76l1.5-.85c0-.85-.5-1.28-1.5-1.28-.86,0-1.36,.43-1.5,1.28,.14,.57,.35,.85,.64,.85h.86Zm.43-35.04c.57-.28,1-.64,1.28-1.07,0-.14-.07-.28-.21-.43-.14-.14-.29-.21-.43-.21-.57,.14-1,.43-1.28,.85,0,.29,.07,.5,.21,.64,.14,.14,.28,.21,.43,.21Zm.21,4.27c.43,0,.78-.28,1.07-.85l-.21-.64c-1,0-1.5,.18-1.5,.53v.96h.64Zm.85,40.38c.14,0,.43-.07,.85-.21,.43-.14,.71-.43,.86-.85,0-.14-.04-.28-.11-.43-.07-.14-.18-.21-.32-.21s-.43,.11-.85,.32c-.43,.21-.64,.53-.64,.96l.21,.43Zm2.14,65.38h-.85l.85-1.71v1.71Z"/>
    </g>
  </g>
</svg>