<?xml version="1.0" encoding="UTF-8"?>
<svg id="Layer_2" data-name="Layer 2" xmlns="http://www.w3.org/2000/svg" viewBox="0 0 880.22 797.09">
  <defs>
    <style>
      .cls-1 {
        fill: #d3a13f;
      }
    </style>
  </defs>
  <g id="Layer_2-2" data-name="Layer 2">
    <path class="cls-1" d="M874.83,104.38c-37.87,3.38-75.64,6.76-113.51,10.04-74.94,6.66-112.81,42.34-110.92,122.35,3.28,138.75,1.59,277.6-.4,416.36-.5,34.99,11.43,88.26-40.95,91.14-51.98,2.88-63.51-46.81-68.78-90.05-5.07-41.65-2.98-84.68-12.82-124.94-9.74-40.15-42.34-69.87-84.68-55.96-44.43,14.51-10.83,49-4.87,74.05,20.28,85.48,33.69,171.35-59.83,222.54-93.43,51.19-181.09,26.34-255.14-43.34-48.4-45.52-95.52-94.22-118.68-172.74,58.84,3.08,81.6,47.51,114.3,73.35,57.25,45.22,116.99,66,187.36,32.9,43.93-20.67,63.51-56.36,55.36-102.57-14.11-80.41-75.44-106.15-146.8-114.3-44.33-5.17-88.96-11.33-94.03-64.51-5.37-56.06,46.52-48.4,79.91-59.24,48.8-15.8,107.24-30.12,100.19-94.03-7.36-66.99-69.87-60.53-119.77-63.91-12.62-.89-25.35,.5-37.97,.6C87.04,162.82,3.25,193.04,.07,108.85-2.81,29.14,86.94,30.23,145.78,25.56c133.29-10.64,228.31,101.18,217.27,248.18-2.98,39.76-30.22,89.16,36.78,98.8,58.14,8.35,100.98-19.68,110.92-78.22,12.82-75.94,23.85-154.75-80.81-181.69-57.45-14.81-93.43-54.77-113.61-109.43,152.37,0,305.14,6.56,456.91-2.48,87.76-5.27,120.96,17.1,101.68,103.77l-.1-.1h.01Z"/>
  </g>
</svg>