<?xml version="1.0" encoding="UTF-8"?>
<svg id="Layer_2" data-name="Layer 2" xmlns="http://www.w3.org/2000/svg" xmlns:xlink="http://www.w3.org/1999/xlink" viewBox="0 0 88.54 80.2">
  <defs>
    <style>
      .cls-1 {
        fill: url(#linear-gradient);
      }
    </style>
    <linearGradient id="linear-gradient" x1="9.88" y1="-2.26" x2="75.05" y2="62.91" gradientUnits="userSpaceOnUse">
      <stop offset=".01" stop-color="#e5952a"/>
      <stop offset="1" stop-color="#ffd158"/>
    </linearGradient>
  </defs>
  <g id="Layer_1-2" data-name="Layer 1">
    <path class="cls-1" d="M88.01,10.51c-3.81,.34-7.61,.68-11.42,1.01-7.54,.67-11.35,4.26-11.16,12.31,.33,13.96,.16,27.93-.04,41.89-.05,3.52,1.15,8.88-4.12,9.17-5.23,.29-6.39-4.71-6.92-9.06-.51-4.19-.3-8.52-1.29-12.57-.98-4.04-4.26-7.03-8.52-5.63-4.47,1.46-1.09,4.93-.49,7.45,2.04,8.6,3.39,17.24-6.02,22.39-9.4,5.15-18.22,2.65-25.67-4.36C7.49,68.53,2.75,63.63,.42,55.73c5.92,.31,8.21,4.78,11.5,7.38,5.76,4.55,11.77,6.64,18.85,3.31,4.42-2.08,6.39-5.67,5.57-10.32-1.42-8.09-7.59-10.68-14.77-11.5-4.46-.52-8.95-1.14-9.46-6.49-.54-5.64,4.68-4.87,8.04-5.96,4.91-1.59,10.79-3.03,10.08-9.46-.74-6.74-7.03-6.09-12.05-6.43-1.27-.09-2.55,.05-3.82,.06C8.75,16.39,.32,19.43,0,10.96-.29,2.94,8.74,3.05,14.66,2.58c13.41-1.07,22.97,10.18,21.86,24.97-.3,4-3.04,8.97,3.7,9.94,5.85,.84,10.16-1.98,11.16-7.87,1.29-7.64,2.4-15.57-8.13-18.28-5.78-1.49-9.4-5.51-11.43-11.01,15.33,0,30.7,.66,45.97-.25,8.83-.53,12.17,1.72,10.23,10.44Z"/>
  </g>
</svg>