<?xml version="1.0" encoding="UTF-8"?>
<svg id="Layer_2" data-name="Layer 2" xmlns="http://www.w3.org/2000/svg" viewBox="0 0 403.89 144.73">
  <g id="Layer_2-2" data-name="Layer 2">
    <path d="M339.57,40.31c3.98-1.91,7.95-3.84,11.94-5.72,.9-.42,2.08-.83,2.74,.14,.99,1.47-.5,2-1.4,2.6-4.76,3.17-10.42,4.92-14.48,9.2-3.32,1.79-7.03,3.05-10.38,7.58,7.19-1.2,13.06-1.22,18.86,.04,6.69,3.47,7.46,3.35,12.32-1.85,3.28-3.51,6.53-7.05,9.86-10.51,1.14-1.19,2.37-2.37,3.75-3.24,2.77-1.73,5.97-4.45,9-1.79,2.96,2.6,1.47,6.16-.29,9.28-2.27,4.02-3.76,8.49-7.06,11.91-.82,.85-1.54,2.01-1.12,3.15,1.06,2.9-1.11,3.75-2.83,4.95-2.93,1.03-3.1,3.6-3.43,6.1-1.39,10.65-15.23,22.85-25.87,22.81-6.66-.02-9.76-5.05-6.28-10.79,3.27-5.4,7.03-10.5,10.67-15.67,1.88-2.67,1.32-3.99-1.95-3.89-17.14,.53-34.29,1.08-51.43,1.69-2.93,.1-5.05,1.54-5.79,4.57-9.43,38.74-36.72,58.98-72.78,70.12-2.7,.83-5.44,1.6-8.05,2.68-7.77,3.23-14.53-1.18-14.83-9.74-.11-3.12,.98-5.87,2.25-8.6,6.55-14.12,17.1-25.27,27.37-36.62,2.9-3.21,5.88-6.35,8.79-9.56,.97-1.07,2.59-2.14,1.76-3.78-.89-1.77-2.7-.76-4.04-.49-9.01,1.75-17.88,3.98-25.9,8.7-6.88,4.05-13.73,8.15-20.58,12.24-1.35,.81-2.91,2.76-4.22,.85-1.26-1.82,1.07-2.81,2.26-3.81,13.39-11.33,29.03-17.7,46.17-20.59,4.25-.72,7.11-2.53,9.38-6.39,5.32-9.04,12.78-16.5,19.41-24.57,.63-.76,1.46-2.25,2.77-1.08,.94,.84,.08,1.9-.48,2.67-1.26,1.75-2.67,3.4-3.96,5.13-1.24,1.68-4.21,3.6-2.92,5.22,1.7,2.14,4.2-.53,6.18-1.39,6.1-2.66,12.05-5.65,18.13-8.37,7.3-3.26,14.72-6.22,22.4-8.5,1.51-.45,2.99-1.52,4.81-.71-.63,1.98-2.5,2.07-3.92,2.67-3.68,1.54-7.47,2.84-11.15,4.37-2.27,.94-5.54,1.15-6.33,3.53-1,3.03,2.95,3.4,4.38,5.28,1.98,2.61,3.27,5.36,3.69,8.58,.34,2.61,1.6,4.21,4.55,4.26,3.27,.05,3.89-1.84,3.85-4.49-.03-2.15,1.18-3.74,2.51-5.28,4-4.66,7.95-9.38,11.98-14.01,4.05-4.66,16.34-4.34,22.06,.77,2.64,2.36,4.94,3.26,7.64,.37v-.02Zm4.21,20.78c1.84,.46,3.69,.99,5.44-.58-1.56-1.79-3.32-1.55-5.11-1.18-4.75-.95-9.58-.7-14.38-1-3.45-.22-7.18,.98-10.32-.75-5.43-2.98-8.26,.97-12.88,3.51h37.25Zm15.78,9.13c2.02-1.82,1.34-3.39-.53-4.74-2.39-1.73-4.49-1.38-6.21,1.05-5.67,5.86-9.61,12.98-14.21,19.62-.81,1.16-.93,2.5,.14,3.65,1.02,1.1,2.26,1.33,3.6,.61,4.07-2.2,8.17-4.36,12.19-6.66,2-1.14,2.62-2.9,1.46-5.06-.03-.48-.05-.97-.08-1.45l3.64-7.01h0Zm-157.31,69.46c1.23-.22,3.06-.45,4.83-.9,10.52-2.66,20.69-6.27,30.31-11.34,22.52-11.87,37.67-29.68,44.14-54.51,1.23-4.72,.42-5.99-3.75-5.48-10.4,1.28-20.78,2.75-31.19,4.01-4.06,.49-7.18,2.39-9.74,5.46-10.99,13.15-22.01,26.27-32.98,39.43-3.34,4-5.62,8.66-7.57,13.44-2.08,5.11,.56,9.75,5.94,9.89h.01Zm80.94-80.68c0-5.52-6.42-11.62-10.85-9.61-8.65,3.91-16.63,9.08-23.51,15.76-.6,.59-1.24,1.35-.55,2.12,.33,.38,1.25,.48,1.83,.35,9.46-2.11,19.15-2.37,28.71-3.58,2.94-.37,4.43-2.04,4.38-5.04h-.01Zm38.78-19.57c-3.24,1.04-7.93,.45-8.25,6.18-.07,1.31-1.34,2.09-2.51,1.96-5.75-.64-7.25,4.39-10.19,7.47-.77,.8-1.5,1.99-.38,3.07,1.03,.99,2.23,.42,3.22-.15,7.13-4.08,15.4-6.37,20.74-13.25,.86-1.1,3.08-1.5,2.44-3.31-.73-2.06-2.92-1.77-5.08-1.97h.01Zm41.25,22.5c1.42,0,2.71-.52,3.45-1.69,3.7-5.86,7.34-11.75,10.94-17.67,.63-1.03,.82-2.44-.33-3.14-1.18-.72-2.19,.32-2.99,1.16-4.71,4.91-9.39,9.84-14.08,14.77-1.08,1.14-1.9,2.4-1.02,4,.86,1.56,2.29,2.35,4.04,2.57h-.01Zm-114.85-1.36c-4.46,1.12-8.04,3.65-10.43,7.77,4.6-.95,7.58-4.13,10.43-7.77Zm-.06-7.52c-.11,.11-.33,.24-.31,.32,.05,.23,.2,.45,.31,.67,.11-.22,.26-.43,.31-.67,.02-.08-.2-.22-.31-.32Zm-140.37,17.78c4.24-.69,7.32-3.77,11.11-5.37,1.11-.47,2.73-2.18,3.98-.48,.97,1.32-.67,2.38-1.28,3.48-2.08,3.76-.96,6.24,3.25,7.04,2.44,.46,4.66-.31,6.71-1.41,4.1-2.21,8.15-4.52,12.16-6.89,1.72-1.02,3.29-1.91,4.55,.46,1.83,3.47,4.42,3.01,7.13,1.33,2.4-1.49,4.81-2.31,7.51-.9,1.5,.78,2.86,.42,4.27-.31,3.05-1.59,6.5-2.67,9.13-4.77,2.89-2.31,4.6-2.38,6.75,.67,1.31,1.86,3.47,1.62,5.5,.91,12.67-4.39,25.91-7.17,37.96-13.31,.93-.47,2.45-.23,2.52-1.94-1.25-1.42-3.02-.97-4.14-.4-9.49,4.84-20.68,3.23-30.13,8.11-.84,.43-2.05,.93-2.77,.63-1.12-.48-.47-1.7-.25-2.65,.29-1.23,1.44-2.62,.13-3.68-1.47-1.19-3.18-.59-4.68,.28-3.32,1.92-6.58,3.91-9.93,5.77-1.16,.64-3.37,1.96-3.14-.7,.64-7.32-2.93-3.39-5.1-1.96-3.88,2.55-7.47,5.53-11.29,8.18-.63,.44-1.63,1.67-2.57,.62-.98-1.1-.16-2.14,.69-3.02,1.5-1.55,3.06-3.04,4.46-4.67,.73-.84,1.73-1.95,.8-3.11-1.04-1.3-2.41-.72-3.61-.03-.86,.5-1.69,1.06-2.53,1.61-8.08,5.24-16.15,10.51-24.27,15.69-1.32,.84-3.07,2.39-4.41,.64-1.16-1.5,.46-3.09,1.34-4.42,.73-1.1,1.73-2.01,2.64-2.98,4.08-4.35,8.18-8.68,12.24-13.05,.86-.93,2.29-1.98,1.14-3.36s-2.49-.21-3.53,.48c-5.38,3.58-10.58,7.46-16.1,10.81-5.23,3.17-8.98,9.95-16.9,7.15-1.24-.44-3.26,1.66-4.32-.53-.83-1.71,.56-3.16,1.38-4.57,9.52-16.1,22.81-28.96,36.14-41.75,2.7-2.59,6.34-4.26,9.64-6.18,1.47-.85,3.35-1.16,4.69,.13,1.39,1.34,.68,3.13,.04,4.65-.37,.9-1.03,1.71-1.63,2.5-10.4,13.67-22.16,26-35.82,36.51-2.11,1.63-4.85,3.08-5.89,6.3,1.94-.17,2.94-1.04,4.02-1.82,9.95-7.28,19.12-15.42,27.48-24.47,5.3-5.74,9.75-12.15,14.07-18.63,1.25-1.88,2.67-3.97,.55-6.31-1.96-2.17-4.2-3.23-7.09-2.18-1.4,.51-2.93,.9-4.12,1.74-20.72,14.76-38.67,31.89-47.85,56.45-.45,1.2-1.39,2.22-2.1,3.32,.54,.53,1.09,1.07,1.62,1.61,1.25-.28,2.51-.57,3.78-.85,1.97-1.02,4.02-.84,6.07-.36h0Zm-52.58,2.31c-1.43,.9-2.85,1.79-4.27,2.68-.23,.1-.47,.21-.7,.31-1.49,.81-2.98,1.61-4.46,2.42-.24,.12-.49,.24-.74,.37-3.97,1.93-7.91,3.9-12.13,5.29-3.01,1-6.06,1.75-8.26-1.02-2.16-2.73,.23-4.93,1.76-7.06,2.38-3.33,4.77-6.65,7.26-10.12-2.17-.5-3.24,.84-4.41,1.92-8.08,7.42-16.15,14.85-24.23,22.26-1.33,1.22-2.73,3.04-4.53,.9-2.01-2.38,1.12-2.84,1.97-3.48,14.58-11.09,27.03-24.56,40.94-36.39,2.8-2.38,5.76-4.5,8.96-6.31,7.81-4.44,11.56-4.1,18.45,1.7,1.07,.9,2.18,1.93,1.76,3.32-.71,2.39-2.01,.47-3.08,.18-1.04-.28-1.56,.29-1.73,1.21-.24,1.29-.78,2.62,.12,3.85,.58,.8,1.44,.76,2.22,.39,1.95-.94,3.85-1.95,5.79-2.92,1.25-.62,2.58-1.12,3.54,.35,.88,1.35-.36,2.11-1.11,2.94-5.79,6.42-11.63,12.8-17.37,19.28-.82,.93-2.93,1.72-1.27,3.6,1.32,1.5,2.58,.52,4.02,.01,6.19-2.2,12.43-4.25,18.67-6.29,1.19-.39,2.92-1.36,3.52,.26,.66,1.77-1.23,2.58-2.58,3.05-5.78,2.01-11.61,3.89-17.41,5.81l-.38-.11-.15,.37c-1.51,.35-3.02,.7-4.52,1.05-.7,.02-1.42,.05-2.14,.07-3.19-1.53-5.27-3.5-2.92-7.24,1.12-.91,2.57-1.98,1.73-3.48-.51-.9-1.68,.06-2.3,.84h-.02Zm10.27-14.01c-.24-1.63-.51-3.11-.68-4.59-.76-6.69-1.02-6.86-6.95-3.79-11.69,6.05-20.08,15.68-27.92,25.9-.8,1.04-1.97,2.33-.7,3.5,1.31,1.2,3.26,.86,4.71,.2,9.94-4.49,19.27-10.06,28.33-16.1,1.84-1.22,3.34-2.78,3.2-5.12h.01Zm-14.54,16.69c-.23,.1-.47,.21-.7,.31,.23-.1,.46-.21,.7-.31Zm-5.17,2.73c-.24,.12-.49,.24-.74,.37,.24-.12,.49-.24,.74-.37ZM390.82,7.43c-3.47-1.3-6.88-.57-9.71,2.01-1.94,1.77-4.63,3.56-2.85,6.59,1.61,2.74,4.59,2.38,7.18,1.43,6.32-2.32,11.59-6.43,16.81-10.5,2.13-1.66,2.45-3.71-.69-5.33-4.24-2.19-9.97-2.25-14.14,.31,2.79,2.67,6.52,.23,10.07,2.09-1.55,2.92-3.05,4.75-6.68,3.39h.01Zm-34.89,69.81c-.58,.52-.7,1.01,.08,1.45-.03-.48-.05-.97-.08-1.45Zm-107.92-23.84c.05,.23,.2,.45,.31,.67,.11-.22,.26-.43,.31-.67,.02-.08-.2-.22-.31-.33-.11,.11-.33,.24-.31,.32h0Z"/>
  </g>
</svg>