<?xml version="1.0" encoding="UTF-8"?>
<svg id="Layer_2" data-name="Layer 2" xmlns="http://www.w3.org/2000/svg" viewBox="0 0 100 100">
  <defs>
    <style>
      .cls-1 {
        fill: #fff;
      }
    </style>
  </defs>
  <g id="Layer_1-2" data-name="Layer 1">
    <g>
      <path class="cls-1" d="M100,54.06c-.42,2.46-.68,4.95-1.25,7.39-1.42,6.02-3.87,11.58-7.36,16.67-4.58,6.69-10.46,11.97-17.59,15.83-3.56,1.93-7.31,3.39-11.23,4.41-.72,.19-.81-.02-.69-.71,.29-1.73,1.06-2.99,2.66-3.9,2.06-1.17,3.96-2.61,5.95-3.91,.49-.32,.79-.72,.99-1.27,.54-1.53,1.14-3.04,1.67-4.58,.2-.57,.54-.9,1.09-1.15,1.43-.63,2.83-1.32,4.25-1.96,.59-.26,1-.65,1.3-1.24,1.56-3.03,3.14-6.06,4.76-9.07,.32-.59,.18-.85-.35-1.14-1.39-.78-2.7-1.71-4.13-2.4-2.82-1.36-5.07-3.38-6.93-5.84-.83-1.09-1.78-1.64-3.18-1.72-1.12-.06-2.23-.44-3.31-.76-2-.6-4.06-.88-6.09-1.29-1.48-.3-2.75,.3-4.07,.67-.82,.23-1.39,.19-1.93-.54-.91-1.2-1.9-2.31-3.55-2.5-.46-.05-.63-.39-.61-.85,.03-.55,.02-1.11,.04-1.66,.04-1.25,.04-1.16-1.15-1.25-1.18-.09-1.99,.36-2.64,1.28-.14,.2-.29,.52-.57,.47-.28-.06-.29-.4-.35-.64-.2-.82-.35-1.66-.6-2.46-.22-.72,.06-1.04,.68-1.35,3.06-1.5,3.05-1.51,6.15-.07,.18,.08,.35,.17,.53,.24,1.62,.63,2.49,.22,2.86-1.43,.23-1.01,.65-1.86,1.34-2.65,1.54-1.76,3.02-3.58,4.5-5.39,.38-.47,.85-.8,1.38-1.06,2.27-1.14,4.53-2.27,6.79-3.43,.52-.26,1.02-.34,1.6-.24,1.02,.17,2.06,.26,3.09,.43,.49,.08,.71-.07,.84-.54,.25-.95,.32-1.79-.6-2.51-.79-.62-1.4-1.45-2.15-2.12-2.02-1.8-3.65-3.87-4.61-6.42-.29-.77-.82-1.02-1.59-.94-1.33,.14-2.52-.18-3.69-.9-1.24-.76-2.76-.63-4.17-.83-.49-.07-.66,.29-.73,.72-.19,1.12-.41,2.24-.58,3.36-.11,.7-.35,1.04-1.16,.84-1.2-.29-2.42-.49-3.63-.71-.61-.11-1.01-.34-1.01-1.06,0-.52-.06-1.05-.19-1.54-.24-.88,.17-1.26,.95-1.27,2.48-.04,3.63-1.34,3.77-3.74,.04-.67,.29-1.33,.42-2,.13-.64,.45-.78,1.04-.52,.83,.37,1.67,.73,2.53,1.03,.62,.22,.94,.58,.81,1.23-.25,1.3,.33,1.99,1.55,2.31,.62,.16,1.23,.41,1.82,.69,1.2,.57,2.24,.27,3.31-.37,.57-.34,.54-.54,.17-1.01-1.65-2.12-3.65-3.89-5.59-5.71-.87-.82-.58-1.7-.55-2.6,.01-.35,.33-.32,.6-.32,3.54,.07,6.13,1.95,8.2,4.56,.73,.92,1.08,2.23,1.37,3.42,.45,1.86,1.36,3.29,2.88,4.46,1.34,1.03,2.53,2.24,3.78,3.37,.27,.24,.56,.43,.89,.58,.74,.33,1.31,.25,1.67-.56,.11-.23,.32-.42,.41-.66,.64-1.76,2-2.2,3.73-2.28,2.2-.1,4.42-.13,6.56-.76,.47-.14,.71,.12,.94,.48,2.69,4.15,4.73,8.59,6.11,13.34,.89,3.07,1.48,6.19,1.77,9.37,.01,.16,.08,.31,.12,.47v8.2Z"/>
      <path class="cls-1" d="M53.95,0c3.13,.37,6.24,.84,9.28,1.7,2.44,.69,4.83,1.52,7.14,2.58,.25,.12,.57,.16,.74,.55-.76,.37-1.55,.36-2.34,.25-1.03-.14-2.05-.32-3.08-.49-.7-.12-1.31,.03-1.93,.42-1.67,1.04-3.19,2.23-4.41,3.79-.41,.53-.95,.74-1.6,.8-2.1,.18-4.2,.38-6.3,.59-1.41,.14-2.79,.03-4.16-.3-.81-.2-1.4-.02-1.75,.78-.01,.03-.03,.06-.05,.08-1.89,3.03-1.9,2.93-5.48,3.18-2.64,.18-5.17,0-7.64-.96-.44-.17-.88-.22-1.29,.09-2.37,1.73-5.1,2.34-7.94,2.56-3.49,.27-6.83,1.23-10.15,2.25-.39,.12-.78,.31-1.22,.22-.14-.33,.12-.5,.27-.68C20.14,8.14,30.22,2.45,42.4,.51,43.58,.32,44.77,.17,45.95,0c2.67,0,5.33,0,8,0Zm-2.46,8c1.62-.18,2.82-.31,4.01-.46,.18-.02,.38-.11,.53-.22,1.28-.95,2.54-1.93,3.81-2.88,.36-.27,.37-.43-.03-.71-2.22-1.55-2.3-1.57-4.67-.29-.8,.43-1.6,.86-2.39,1.32-.9,.52-1.78,1.07-2.66,1.63-.21,.13-.67,.31-.25,.63,.61,.46,1.19,1.05,1.65,.98Zm-14.19,1.76c1.51-.39,2.99-.77,4.46-1.16,1.96-.53,1.93-.52,.94-2.27-.35-.62-.69-.87-1.38-.55-1.23,.56-2.46,.77-3.69-.04-.22-.14-.47-.18-.71,.06-.72,.71-1.54,1.28-2.37,1.86-.17,.12-.49,.32-.2,.51,.93,.62,1.85,1.31,2.96,1.59Z"/>
      <path class="cls-1" d="M37.57,50.22c.74,1.54,1.51,3.08,2.22,4.63,.25,.55,.58,.86,1.2,.98,2.19,.45,4.37,.99,6.56,1.47,.6,.13,1.09,.38,1.5,.83,.37,.41,.82,.75,1.16,1.18,1.16,1.45,2.62,2.39,4.47,2.7,.72,.12,.9,.45,.55,1.15-.9,1.8-1.72,3.65-2.61,5.45-.26,.53-.24,.94,.05,1.45,1,1.79,1.99,3.58,2.92,5.41,.78,1.51,.94,3.25,1.56,4.81,1.04,2.6,1.06,5.16,.12,7.77-.28,.79-.35,1.66-.64,2.45-.83,2.28-.69,4.6-.37,6.93,.3,2.17,.27,2.17-1.95,2.36-10.53,.92-20.37-1.28-29.48-6.61-9.73-5.69-16.73-13.81-21.08-24.21C.82,61.93-.36,54.55,.1,46.95c.47-7.71,2.66-14.94,6.47-21.67,.2-.36,.45-.64,.87-.71,.94-.17,1.84-.54,2.93-.34-.82,.66-1.62,1.35-2.48,1.96-.67,.47-.58,.7,.05,1.17,1.15,.86,2.36,1.14,3.79,1.2,3.79,.16,7.43-.68,11.1-1.34,.76-.14,1.13,.1,1.49,.7,1.42,2.37,2.87,4.72,4.33,7.07,.29,.46,.4,.94,.4,1.47-.01,2.11,0,4.23-.01,6.34,0,.55,.13,1,.46,1.44,2.04,2.74,4.06,5.49,6.09,8.24,.14,.18,.27,.36,.43,.53,.25,.27,.58,.27,.91,.2,.38-.09,.36-.42,.36-.71,0-.74,0-1.48,0-2.22l.29-.05Z"/>
    </g>
  </g>
</svg>