<?xml version="1.0" encoding="UTF-8"?>
<svg id="Layer_2" data-name="Layer 2" xmlns="http://www.w3.org/2000/svg" xmlns:xlink="http://www.w3.org/1999/xlink" viewBox="0 0 454.52 660">
  <defs>
    <style>
      .cls-1 {
        fill: url(#linear-gradient);
      }
    </style>
    <linearGradient id="linear-gradient" x1="-51.31" y1="52.73" x2="496.94" y2="600.99" gradientUnits="userSpaceOnUse">
      <stop offset="0" stop-color="#ffa801"/>
      <stop offset="1" stop-color="#ff7b00"/>
    </linearGradient>
  </defs>
  <g id="Layer_1-2" data-name="Layer 1">
    <path class="cls-1" d="M454.52,639.56c-1.2-.52-2.4-1.03-3.61-1.55-.1,.29-.32,.6-.25,.81,1.23,3.4,1.94,7.11-1.15,9.54-3.22,2.53-7,.95-9.95-1.08-3.41-2.35-5.59,.52-7.57,1.76-1.9,1.2,.86,2.88,1.59,4.3,1.11,2.17,3.12,3.88,3.61,6.39-1.72,.81-2.29-.41-2.77-1.15-3.54-5.55-10.48-7.52-13.95-13.28,.66,3.27,2.97,6,2.72,9.5-.2,2.83-.67,4.33-4.28,3.64-7.03-1.35-9.08-2.41-11.56-7.85,2.25-.53,3.05,2.29,5.42,2.1-3.48-6.78-7.96-12.88-10.82-20.21,2.45,.35,2.43,2.71,5.35,3.61-2.34-2.97-.93-7.54-6.37-6.61-.45,.08-1.18-.8-1.6-1.37-6.56-8.85-13.09-17.72-19.37-26.82,4.46,2.24,6.57,6.86,10.27,10.2,2.64-2.9,.41-4.95-1.04-6.95-11.85-16.31-23.88-32.48-35.12-49.23-22.55-33.61-44.89-67.34-64.43-102.83-1-1.81-2.13-3.55-4.03-5,2.38,7.05,4.65,14.13,7.15,21.13,21.42,59.98,46.42,118.43,74.85,175.42,.07,.13,.15,.26,.19,.4,.52,1.74,2.86,4.08,.78,5.11-2.4,1.18-2.58-2.14-3.32-3.69-9.8-20.47-19.5-40.99-29.29-61.47-.7-1.48-1-3.45-3.02-4.04-1.24,1.59-.11,2.73,.36,3.87,6.44,15.6,12.91,31.18,19.38,46.77,.34,.83,.72,1.64,1,2.49,.24,.71,.42,1.59-.56,1.81-.4,.09-1.11-.39-1.38-.81-.66-.99-1.18-2.07-1.69-3.15-7.32-15.37-14.73-30.69-21.42-46.35-2.35-5.5-5.36-10.63-9.41-15.16-3.64-4.07-5.52-9.21-7.19-14.33-4.1-12.57-11.43-23.64-16.51-35.75-.2-.48-.73-.82-1.54-1.05,1.28,9.22,4.88,17.8,6.27,27.04-12.07-30.43-24.14-60.87-36.21-91.3-.44,.15-.88,.3-1.31,.45,9.25,39.34,22.69,77.46,34.4,116.1-20.68-55.92-38.18-112.86-54.69-170.19-2.57,6.43-2.72,12.97-3.54,19.39-1.7,13.32-3.14,26.67-4.67,40.01-.22,1.96-.85,3.78-1.71,5.53-3.27,6.69-6.8,7.91-13.32,4.36-13.23-7.22-24.53-17-35.23-27.43-15.19-14.79-29.42-30.53-44.67-45.27-6.37-6.16-5.02-12,3.17-15.68,12.84-5.77,26.22-10,39.83-13.45,3.8-.96,6.05-2.54,6.5-6.66,.37-3.41,1.67-6.64,3.22-9.74,2.14-4.26,2.26-8.62,.31-12.98-1.47-3.27-3.14-6.45-3.02-10.2,.03-.9-.26-2.12-1.2-2.18-4.03-.24-5.11-2.76-5.45-6.23-.09-.88-1.03-1.86-1.83-2.44-6.98-5.02-8.47-13.05-11.23-20.37-1.29-3.42,1.14-5.61,2.91-7.96,1.52-2.02-.31-9.29-2.69-9.76-2.06-.41-1.64,1.65-1.86,2.77-2.13,10.84-4.18,21.7-6.27,32.55-1.07,5.57-2.16,11.14-3.3,16.7-.2,.96-.24,2.39-1.62,2.32-1.71-.08-1.43-1.65-1.45-2.76-.06-3.12-.02-6.24-.02-9.71-2.05,1.22-2.52,3.49-3.6,5.25-2.17,3.56-4.88,5.78-9.22,3.76-2.15-1-3.31-.11-4.39,1.61-1.5,2.39-2.99,4.81-6.48,6.67,3.32,.99,5.77,1.73,9.45,2.83-7.71,3.89-14.74,4.21-21.56,2.13-15.75-4.81-29.91-12.79-42.16-23.84-21.79-19.67-32.68-44.76-35.86-73.56-1-9.05-1.73-18.13-2.99-27.13-.54-3.9,.13-7.36,1.44-10.91,1.25-3.37,2.67-3.71,4.64-.57,.3,.48,.77,.85,1.88,2.04-1.18-12.15-3.27-23.16-6.71-33.89-1.5-4.68-3.42-9.24-5.3-13.78-2.46-5.94-6.93-9.98-12.57-12.85-4.64-2.36-9.28-4.72-14.72-7.48,3.65-1.28,6.55-.87,9.32-.35,13.17,2.5,21.94,10.25,26.45,22.81,4.6,12.82,6.97,26.26,10.52,39.37,1.89,6.97,3.99,13.89,6.02,20.92,2.47-.95,1.77-3.3,3.27-4.17,1.45,.73,1.61,2.18,2.06,3.39,7.07,18.72,14.12,37.45,21.12,56.19,5.24,14.01,13.64,25.78,24.81,35.67,2.54,2.25,3.87,2.01,5.11-1.18,8.46-21.86,16.98-43.71,25.57-65.52,1.27-3.22,.74-4.4-2.96-4.75-7.78-.73-14.57-4.28-20.74-8.89-7.65-5.71-15.53-11.14-22.61-17.59-4.68-4.26-7.65-9.49-8.98-15.67-1.32-6.13-2.64-12.26-4.02-18.37-.47-2.09-.18-3.87,1.57-5.22,2.69-2.08,2.46-4.65,1.81-7.65-5.51-25.22-16.1-48.39-28.48-70.83C39.45,68.22,20.57,37.23,2.26,5.91,1.33,4.33-1.41,2.28,.91,.57c2.52-1.87,3.71,1.37,5.08,2.86,17.7,19.3,30.36,42.07,44.07,64.12,24.85,39.94,49.75,79.84,74.53,119.82,6.92,11.16,15.72,20.21,27.3,26.52,5.35,2.92,9.17,7.66,13.13,12.08,7.74,8.65,16.99,10.14,28.28,6.71-5.87-2.38-11.63-1.27-17-2.52-1.6-.37-4.23,.58-4.32-1.94-.1-2.62,2.63-2.46,4.42-2.71,12.48-1.79,25.02-1.54,37.5-.37,9.59,.9,9.73,1.03,7.08-8.02-3.06-10.46-6.33-20.87-9.19-31.38-1.38-5.07-4.37-8.3-8.96-10.44-8.93-4.16-17.73-8.61-26.76-12.53-15.43-6.69-28.5-16.63-40.99-28.64,5.87-.73,11.2,.38,17.26,.32-2.84-3.4-6.1-4.8-9.23-6.33-11.17-5.5-21.73-11.8-30.56-20.82-7.5-7.66-12.27-16.83-16.04-26.66-.39-1.02-1.32-2.41,.22-3.13,1.18-.55,1.81,.78,2.4,1.56,4.85,6.44,9.67,12.87,15.56,18.46,12.46,11.83,27.25,19.72,43.03,26.01,2.11,.84,4.07,.54,6.02-.49,3.91-2.06,8.16-2.41,12.19-1.01,18.18,6.29,35.59,14.05,49.12,28.41,8.94,9.49,14.74,20.93,19.84,32.79,11.85,27.58,18.31,56.44,20.41,86.32,.14,2.04-.26,4.18-.71,6.2-1.25,5.68-5.76,8.04-11.2,5.91-20.09-7.89-41.71-11.04-61.44-20.04-.4-.18-.86-.25-1.3-.33-.99-.17-2.12-1.04-2.93-.06-.85,1.03,.24,1.94,.78,2.75,4.6,6.8,9.24,13.58,13.86,20.37,.88,1.3,1.7,2.22,3.63,1.63,6.61-2.02,11.4,1.15,14.95,6.22,2.49,3.56,4.97,5.5,9.56,4.21,3.85-1.09,6,.59,5.5,4.91-.39,3.36,.66,5.14,4.54,4.26,2.37-.54,3.6,.98,3.75,3.31,.12,1.78-.02,3.6,.27,5.35,.19,1.19-.29,3.08,1.51,3.32,1.42,.18,2.38-1.14,3.09-2.29,11.4-18.43,22.69-36.92,28.74-58.01,.86-3.01,1.73-6.04,2.82-8.97,2.13-5.74,5.93-6.27,9.84-1.42,1.22,1.51,2.33,3.11,3.39,4.73,19.9,30.54,42.03,59.52,62.63,89.56,3.12,4.56,6.3,9.08,9.3,13.72,3.55,5.49,1.91,9.47-4.51,10.77-2.45,.5-5.05,.55-7.56,.42-28.49-1.5-57-.64-85.5-.63-1.37,0-3.43-.64-3.85,1.26-.43,1.97,1.73,2.11,3,2.67,2.4,1.08,3.6,3.08,4.35,5.41,2.09,6.52,5.7,12.05,10.23,17.16,20.74,23.38,43.56,44.62,66.78,65.47,15.99,14.35,31.73,28.99,47.5,43.59,4.8,4.44,8.34,9.86,11.51,15.63-2.11,1.01-2.89-1-4.44-.66,.04,.37,.03,.78,.14,1.15,.49,1.69,3.53,3.27,1.48,4.85-1.55,1.2-3.29-1.36-4.73-2.53-10.19-8.27-20.33-16.6-31.19-24.34,1.29,1.37,2.56,2.76,3.86,4.11,3.1,3.22,6.66,6.02,9.22,9.74,.74,1.07,1.83,2.34,.41,3.55-1.39,1.19-2.5-.04-3.49-.9-5.39-4.72-10.75-9.46-16.12-14.21-5.81-5.14-11.6-10.31-17.44-15.42-.84-.74-1.61-1.76-3.54-1.7,14.21,16.31,28.16,32.32,42.11,48.32-7.88-5.01-14.49-11.44-21.31-17.66-6.97-6.35-13.39-13.2-19.85-20.03-6.35-6.73-12.68-13.49-18.92-20.32-6.33-6.92-12.54-13.94-19.42-20.49,2.05,2.98,4.19,5.91,6.14,8.96,10.93,17.11,21.53,34.45,35.08,49.71,20.03,22.57,39.17,45.84,56.77,70.37,6.33,8.82,12.88,17.48,20.09,25.75-3.3-5.86-6.61-11.72-9.91-17.59,.35-.27,.71-.54,1.06-.81,5.54,8.12,13.11,14.4,18.99,22.21,.21-.13,.55-.22,.61-.4,.61-1.77-1.77-4.37,.39-5.2,1.74-.67,3.05,2,4.25,3.42,4.04,4.78,8.32,9.41,10.77,15.33,.97,2.36,1.99,4.72,1.67,7.33-.47,3.74,1.95,6.05,4,8.56v1.79Zm-172.42-85.69c-13.77-45.32-28.69-90.33-37.77-137.12,3,48.22,20.75,92.57,37.77,137.12Z"/>
  </g>
</svg>