<?xml version="1.0" encoding="UTF-8"?>
<svg id="Layer_2" data-name="Layer 2" xmlns="http://www.w3.org/2000/svg" xmlns:xlink="http://www.w3.org/1999/xlink" viewBox="0 0 535.1 660">
  <defs>
    <style>
      .cls-1 {
        fill: url(#linear-gradient);
      }
    </style>
    <linearGradient id="linear-gradient" x1=".13" y1="187.25" x2="480.01" y2="667.12" gradientUnits="userSpaceOnUse">
      <stop offset="0" stop-color="#ffa901"/>
      <stop offset="1" stop-color="#ff7b00"/>
    </linearGradient>
  </defs>
  <g id="Layer_1-2" data-name="Layer 1">
    <path class="cls-1" d="M223.36,0c6.06,1.51,12.09,3.06,17.76,5.86,23.79,11.74,35.25,37.2,27.6,62.55-1.52,5.05-.94,6.35,4.58,7.1,34.58,4.73,57.53,29.46,61.73,65.64,3.17,27.27-.06,53.55-11.74,78.58-4.64,9.95-10.55,19.11-17.45,27.62-2.5,3.08-2.09,4.63,1.47,6.3,13.8,6.49,26.99,13.91,38.65,23.95,19.01,16.38,30.45,37.13,36.5,61.2,6.61,26.28,5.54,52.04-4.1,77.51-10.94,28.91-32.23,44.72-62.03,49.87-14.99,2.59-29.95,2-44.63-2.34-12.07-3.57-21.51-10.41-26.77-22.2-.76-1.69-2.11-3.4-.99-5.43,2.13-.71,1.99,2.58,4.23,2.01-.73-5.87-3.26-11.26-4.57-16.95-.23-1-1.05-2.17-.13-3.02,1.19-1.09,2.36,.04,3.39,.6,3.48,1.89,5.95,5.09,7.04,8.55,6.37,20.1,30.75,25.45,46.67,23.3,7.18-.97,14.27-2.64,22.15-6.43-5.88-.97-10.47-.72-14.93-.17-7.32,.9-14.65,.86-21.97,.73-9.79-.17-17.47-4.35-23-12.59-9.01-13.42-13.17-36.25-8.68-50.32,1.39,11.03,1.05,21.76,5.18,31.8-3.66-17.17-1.57-33.71,4.8-50.68,1.74,2.33,1.2,4.29,1.16,6.04-.32,14.88,.22,29.69,3.3,44.33,1.03,4.89,3.21,9.07,6.58,12.69,6.61,7.1,10.82,8.01,19.47,3.75,3.53-1.74,6.85-2.96,10.65-.82,1.48,.83,3.32,.67,4.6-.41,3.36-2.82,6.83-5.07,11.49-4.83,1.02,.05,2.47-.88,2.27-1.91-.92-4.89,3.14-6.87,5.5-9.74,6.8-8.27,10.69-17.64,11.76-28.3,2.78-27.83-1.98-53.2-23.49-73.21-5.68-5.29-12.05-9.64-19.03-12.92-11.66-5.47-23.51-10.52-35.26-15.8-3.12-1.4-6.07-1.57-9.27-.06-10.67,5.04-21.37,10.06-32.15,14.86-25.78,11.49-38.76,32.32-43.24,59.27-3.45,20.75-.38,40.91,5.4,60.94,6.27,21.74,15.93,41.73,28.7,60.33,3.64,5.31,7.06,10.78,10.45,16.26,1.21,1.96,2.99,3.5,1.14,6.66-1.26,2.15,1.55,4.2,4.24,4.2,3.85,0,7.57,3.75,6.66,7.59-1,4.22,.88,5.34,4.41,4.85,1.73-.24,2.94-.1,3.29,1.64,2.56,12.54,13.3,18.57,21.27,26.78,2.99,3.07,6.32,5.76,10.06,7.99,4.41,2.64,8.44,2.71,13.12,.35,21.1-10.61,42.09-21.5,63.58-31.26,38.94-17.67,79.26-21.52,120.22-7.97,25.58,8.46,45.57,24.67,58.07,48.88,10.9,21.1,6.6,46.13-9.3,63.9-18.66,20.86-42.35,30.52-69.65,32.41-27.58,1.91-54.25-2.19-79.7-13.25-3.43-1.49-6.96-3.05-9.91-5.29-7.21-5.44-15.04-9.64-23.31-13.16-4.29-1.83-8.26-4.28-12.06-6.98-2.4-1.71-4.4-3.51-3.94-7,.51-3.84-3.42-4.55-5.33-6.7-1.19-1.34-4.23-1.89-2.97-4.31,1.03-1.97,3.61-2.38,5.77-1.74,2.56,.75,5.05,1.8,7.46,2.93,16.53,7.72,32.61,16.41,49.51,23.34,1.72,.7,3.4,2.08,5.62,1.22-.2-2.6-2.54-2.8-4.07-3.68-12.27-7.01-24.63-13.88-36.88-20.92-1.94-1.11-5.01-1.59-4-5.3,.28-1.04-10.37-7.39-11.5-7.06-.3,.09-.78,.34-.79,.54-.41,7.87-4.85,1.78-6.46,1.34-3.95-1.08-7.23-2.95-9.74,2.29-.99,2.07-3.82,2.47-6.06,3.11-16.87,4.82-33.26,11.08-49.91,16.59-3.53,1.17-4.1,2.43-2.1,5.61,4.77,7.57,9.26,15.32,13.84,23,.89,1.49,2.18,2.84,1.96,5.91-10.99-7.94-15.71-22.13-29.41-26.01-.21,.74-.52,1.26-.44,1.7,1.11,6.56,1.11,6.6-5.04,4.3-7.76-2.9-15.23-1.5-22.41,1.75-16.98,7.69-34.16,14.81-52.4,18.96-31.32,7.12-62.92,10.29-94.67,3.51-18.53-3.96-35.25-11.85-47.34-27.39-6.51-8.37-10.48-17.85-12.67-28.14-.33-1.56-.78-3.11-1.17-4.66,0-6.8,0-13.61,0-20.41,2.77-10.69,6.6-20.99,14.47-28.97,25.82-26.22,57.4-36.97,93.72-32.76,28.49,3.3,53.43,15.5,75.48,33.61,4.94,4.06,10.8,7.55,13.79,13.34,2.31,4.47,5.35,7.36,9.72,9.4,3.33,1.55,6.15,3.81,6.59,7.86,.47,4.28,3.32,5.57,7.04,5.92,7.42,.71,14.18-1.23,20.45-5.12,5.17-3.2,5.02-4.35,.43-8.58-9.66-8.91-21.28-15.16-31.37-23.34-21.17-17.17-38.26-38.16-51.86-61.76-25.84-44.87-40.34-92.09-30.99-144.8,5.08-28.62,17.19-52.42,40.1-70.53,10.45-8.26,21.91-14.85,33.65-21,3.38-1.77,3.98-3.6,1.76-6.68-2.19-3.05-4.15-6.26-6.21-9.41-12.46-19.03-18.27-39.98-17.09-62.62,.94-18.11,5.95-35.23,15.07-51.02,1.87-3.24,1.06-4.7-2.48-5.66-6.43-1.74-12.34-4.81-17.92-8.4-21.79-14.03-30.8-44.87-20.05-68.44,.71-1.56,1.32-4.19,3.22-3.69,2.48,.66,.78,3.06,.42,4.56-7.01,28.84,15.62,56.25,47.39,55.11,24.33-.87,52.81-22.49,44.72-59.14-2.64-11.96-9.41-20.33-20.95-24.52-4.18-1.52-8.61-2.36-12.88-3.67-1.62-.5-4.41-.06-3.6-3.32h10.74Zm222.03,615.86c15.3,.95,28.16-4.22,38.87-14.97,9.17-9.21,9.25-18.05-.29-26.97-23.01-21.52-50.97-26.81-80.79-21.79-26.22,4.41-49.54,17.06-72.43,30.17-3.05,1.75-1.81,2.75,.42,3.85,3.69,1.82,7.37,3.66,11.02,5.55,10.18,5.25,20.29,10.68,31.99,11.84,2.25,.22,4.5-.26,4.13,3.71-.21,2.29,3.35,3.08,5.05,2.09,5.43-3.16,8.83-1.24,11.7,3.52,.68,1.13,2.19,1.82,3.26,.91,3.25-2.76,6.8-1.33,10.25-1.05,12.28,.99,24.55,2.09,36.83,3.14Zm-347.28-.17c4.63-.26,9.28-.39,13.9-.82,22.94-2.14,44.88-8.62,66.71-15.54,6.21-1.97,6.76-3.38,1.93-7.5-17.5-14.93-36.03-28.29-58.28-35.4-22.75-7.28-44.49-5.06-64.87,7.66-8.52,5.32-13.15,12.94-12.38,23.33,.72,9.73,6.14,16.04,14.49,20.36,12.11,6.27,25.12,7.85,38.51,7.91ZM294.32,161.68c.19-10.77-3.06-21.61-9.69-31.32-6.39-9.35-17.11-12.86-27.86-9.45-6.85,2.17-12.37,6.47-16.87,11.92-22.16,26.84-18.03,66.35,9.07,88.84,2.99,2.48,5.47,2.52,8.67,.6,7.59-4.56,14.32-10.04,19.78-17.06,9.74-12.53,17.15-25.96,16.9-43.53Zm-30.46,393.43c-1.13-1.67-2.65-4.21-4.7-3.43-4.24,1.62-6.34-1.2-8.84-3.22-9.87-7.95-19.64-16.02-29.49-24.01-.83-.67-1.55-2.15-3.18-1.03,.22,.51,.3,1.11,.64,1.43,13.11,12.38,26.23,24.75,39.4,37.06,1.69,1.58,3.74,2.53,5.17,1.89,2.21-3.2-6.21-5.55,1-8.7Z"/>
  </g>
</svg>