<?xml version="1.0" encoding="UTF-8"?>
<svg id="Layer_2" data-name="Layer 2" xmlns="http://www.w3.org/2000/svg" xmlns:xlink="http://www.w3.org/1999/xlink" viewBox="0 0 580.28 660">
  <defs>
    <style>
      .cls-1 {
        fill: url(#linear-gradient);
      }
    </style>
    <linearGradient id="linear-gradient" x1="61.36" y1="202.64" x2="509.31" y2="650.58" gradientUnits="userSpaceOnUse">
      <stop offset="0" stop-color="#ffaa01"/>
      <stop offset="1" stop-color="#ff7b00"/>
    </linearGradient>
  </defs>
  <g id="Layer_1-2" data-name="Layer 1">
    <path class="cls-1" d="M0,498c2.36-11.26,4.91-22.45,10.27-32.77,20.27-39.07,52.66-58.96,96.42-60.33,22.76-.71,44.6,5.11,66.32,10.96,21.72,5.85,43.33,11.98,65.78,14.63,28.93,3.42,56.98,1.64,82.79-13.48,22.54-13.2,39.39-32.1,52.8-54.23,15.62-25.78,22.66-54.02,22.23-83.92-.45-30.64-11.16-57.8-29.6-82.28-17.66-23.43-33.96-47.83-48.28-73.48-15.34-27.46-20.85-57-18.1-88.2,.36-4.12,.31-8.32,2.85-12.71,1.83,7.22,1.52,14.12,2.37,20.85,4.01,31.58,17,59.02,37.75,82.91,24.9,28.67,49.95,57.19,74.01,86.6,16.22,19.82,23.65,42.2,24.4,67.21,2.17,72.32-27.47,129.85-82.98,174.54-25.38,20.43-55.47,29.65-87.9,31.94-39.19,2.77-76.98-4.18-114.19-15.45-18.91-5.73-38.1-8.22-57.72-5.54-15.21,2.08-25.27,11.57-31.92,24.64-9.55,18.78-7.1,37.45,3.44,54.81,14.24,23.45,36.17,34.76,63.18,36.19,22.57,1.2,43.58-5.34,63.48-15.24,33.43-16.62,66.21-34.46,97.75-54.51,18.68-11.88,38.88-20.6,59.69-27.79,25.5-8.82,50.35-19.64,76.66-25.93,28.03-6.69,56.36-8.58,84.61-1.43,37.3,9.43,63.51,43.57,64.17,82.07,.62,35.62-15.91,62.05-43.22,82.98-9.3,7.13-19.4,12.94-29.99,17.89-6.98,3.26-14.05,6.14-22.06,5.17-3.87-.47-7.31,.94-10.01,3.65-3.49,3.51-7.73,4.87-12.49,5.6-6.09,.93-12.1,2.35-18.15,3.5-1.08,.2-2.65,.63-3.02-.81-.41-1.6,1.3-1.7,2.32-1.96,3.84-.98,7.72-1.83,12.71-2.99-5.01-1.98-8.82-.41-12.53,.08-17.63,2.32-34.87-.82-52.14-3.49-16.03-2.47-30.75-9.74-46.63-12.85-12.91-2.53-25.64-6.16-38.64-8-12.78-1.81-25.28,.86-36.49,7.54-6.22,3.71-8.79,10.22-10.6,16.96-.78,2.89-1.54,5.78-2.31,8.67h-1c-1.23-1.25-1.65-4.96-3.79-3.29-4.39,3.43-3.19-.61-3.19-2.12,0-13.77,5.61-24.97,16.67-33.02,18.81-13.69,40.47-13.68,62.33-12.01,1.77,.14,4.14,.71,4.19,2.85,.07,2.66-2.7,1.88-4.25,2.24-4.3,.99-8.87-.13-14.37,1.51,1.86,.6,2.57,.89,3.3,1.05,23.75,5.23,47.51,10.36,71.24,15.67,30.57,6.85,60.78,6.57,90.49-4.28,12.97-4.74,25.38-10.55,36.56-19.68-2.28-.31-3.29,.97-4.52,1.66-17.56,9.82-35.8,17.8-55.84,20.98-16.07,2.55-32.21,2.19-48.31,.52-20.98-2.18-41.33-7.13-61.05-14.63-1.69-.64-3.86-1.25-3.22-3.67,.67-2.57,2.87-1.64,4.6-1.37,5.35,.84,10.68,1.74,16.02,2.61-9.16-2.6-18.47-4.29-27.78-6.04-1.26-.24-3.05-.32-3.06-1.98-.01-2.15,2.02-1.84,3.41-1.93,5.51-.37,10.97-.04,16.36,1.37,8.38,2.19,16.73,4.51,25.19,6.34,16.12,3.5,32.53,1.84,48.81,2.3,13.05,.37,26.02,.22,38-6.16,1.41-.75,3.38-1.65,4.69-.19,3.33,3.71,5.78,1.04,7.96-1.08,6.03-5.87,13.04-10.3,20.16-14.66,8.98-5.5,17.3-11.82,23.96-20.15,13.41-16.76,15.05-36.09,4.15-51.73-8.37-12-20.56-16.38-34.52-16.94-19.76-.79-38.67,3.73-57.39,9.46-54.11,16.56-103.99,41.91-151.55,72.23-26.57,16.94-53.62,33.1-83.3,44.17-44.03,16.43-87.28,16.18-129.37-6.65-35.58-19.3-59-47.64-66.35-88.15-.74-4.08-1.49-8.16-2.24-12.25,0-8.33,0-16.67,0-25Zm284.72,54.54c-.42-.69-.84-1.38-1.26-2.07-14.1,8.67-28.2,17.34-42.3,26.01,.23,.38,.47,.76,.7,1.14,14.29-8.36,28.57-16.72,42.86-25.08ZM264,0c-.11,12.14,.85,24.24,.23,36.43-.66,13.02-3.93,25.03-10.41,36.09-14.23,24.26-33.98,43.84-54.38,62.8-3.66,3.4-7.96,6.33-10.42,10.68-3.35,5.94-8.03,10.59-12.84,15.18-21.41,20.46-32.83,46.74-41.19,74.17-7.33,24.01-5.42,48.88-.3,73.24,7.24,34.46,25.89,60.21,59,74.24,7.24,3.07,14.22,6.52,20.64,11.1,4.3,3.07,9.32,4.74,14.5,4.95,10.81,.45,21.64,.37,32.46-.36,7.05-.48,13.75-2.02,20.33-4.67,25.33-10.21,42.08-29.43,54.67-52.62,12.36-22.76,15.1-47.63,14.06-73.14-.95-23.45-8.67-44.3-23.56-62.43-11.12-13.54-24.72-23.36-42.39-26.21-9.28-1.5-17.96-.76-26.86,4.26-12.38,6.98-20.47,17.13-27.23,28.93-1.83,3.2-2.7,6.78-3.42,10.4-1.8,9-.91,17.95,.58,26.83,3.21,19.14,13.78,34.41,26.29,48.54,3.99,4.51,9.04,7.87,13.77,11.54,.93,.72,2.05,1.43,3.13,.37,1.23-1.21,.02-2.12-.66-2.98-1.44-1.83-2.99-3.58-4.42-5.42-8.73-11.15-16.05-22.99-17.42-37.53-1.53-16.19,4.95-29.58,14.97-41.63,1.68-2.02,2.92-3.54-.04-5.58-2.08-1.44-1.54-2.57,.96-3.11,5.08-1.1,9.92-.73,14.53,1.76,11.41,6.16,19.51,15.44,22.81,27.82,2.51,9.42,5.01,19,5.61,28.86,.13,2.15,.82,4.35,.54,6.44-2.5,18.6-8.05,36.08-19.72,51.15-6.94,8.95-14.69,16.85-26.46,19.24-7.61,1.55-10.86,.15-14.81-6.52-.67-1.13-1.44-2.29-2.42-3.15-3-2.62-6.47-2.11-9.93-1.15-3.18,.88-2.59,3.35-2.41,5.69,.3,3.98-1.9,3.43-4.43,2.43-10.58-4.15-20.63-9.37-30.2-15.45-6.3-4-11.24-9.41-14.53-16.17-10.86-22.35-14.54-45.83-11.17-70.48,3.69-26.91,13.63-51.34,28.45-73.99,11.45-17.49,25.56-32.85,38.35-49.26,3.26-4.19,6.06-9.15,10.23-12.13,5.28-3.76,8.42-8.25,10.19-14.21,1.18-3.99,2.46-7.99,4.17-11.77,12.43-27.45,12.12-55.19,2.16-83.21h-1Z"/>
  </g>
</svg>