<?xml version="1.0" encoding="UTF-8"?>
<svg id="Layer_2" data-name="Layer 2" xmlns="http://www.w3.org/2000/svg" xmlns:xlink="http://www.w3.org/1999/xlink" viewBox="0 0 337.1 660">
  <defs>
    <style>
      .cls-1 {
        fill: url(#linear-gradient);
      }
    </style>
    <linearGradient id="linear-gradient" x1="31.73" y1="110.32" x2="412.51" y2="491.11" gradientUnits="userSpaceOnUse">
      <stop offset="0" stop-color="#ffa701"/>
      <stop offset="1" stop-color="#ff7b00"/>
    </linearGradient>
  </defs>
  <g id="Layer_1-2" data-name="Layer 1">
    <path class="cls-1" d="M241.73,660c-2.09-12.1-4.42-24.16-6.22-36.29-3.22-21.65-5.17-43.41-6.36-65.29-1.78-32.71,1.7-65.08,4.71-97.52,2.19-23.66,4.03-47.35,5.94-71.04,.97-12.08,1.79-24.17,2.59-36.26,.77-11.62-2.16-22.62-6.94-32.96-4.52-9.77-15.05-14.23-23.41-11.07-4.02,1.52-6.8,4.36-9.11,7.88-10.19,15.53-19.23,31.81-30.86,46.39-23.54,29.5-51.81,53.57-83.86,73.26-10.33,6.35-14.26,4.49-17.1-7.5-2.14-9.03-4.25-18.14-2.49-27.54,1.04-5.54,3.51-10.32,7.31-14.57,25.38-28.4,50.7-56.85,75.95-85.37,3.01-3.4,5.74-7.12,8.2-10.95,4.02-6.26,2.14-9.8-5.26-10.2-12-.64-23.45,2.05-34.64,6.04-22.5,8.03-42.6,20.17-60.58,35.87-5,4.37-7.32,3.7-9.16-2.75-2.64-9.29-3.8-18.83-4.2-28.44-.29-7.08,.05-14.18-.17-21.27-.47-14.86,6.49-25.22,19.11-32.21,8.73-4.83,16.68-10.69,23.81-17.68,4.38-4.29,7.25-9.54,9.34-15.17,2.67-7.17,.28-14.19-6.55-18.45-16.17-10.09-32.98-9.79-49.42-1.17-15.33,8.03-24.31,21.03-26.34,38.51-.36,3.12-1.02,6.19-2.63,9.01-1.84,3.23-3.88,3.14-6.4,.85-1.48-1.34-2.06-3.1-2.71-4.88C1.88,222.68,1.3,215.75,0,208.97,0,196.99,0,185.01,0,173.04c.89-6.06,1.73-12.12,2.68-18.17,4.35-27.75,29.9-49.83,58.03-50.09,5.97-.06,11.96-.35,17.91,.48,20.51,2.86,33.99,14.91,41.87,33.37,9.23,21.62,11.91,44.26,8.44,67.56-1.02,6.86-.58,7.37,6.15,7.44,7.06,.08,14.15-.65,21.19,.65,15.67,2.9,26.83,11.73,34.07,25.78,1.08,2.1,2.07,4.25,3.19,6.33,1.94,3.58,4.9,5.01,9.01,4.55,4.36-.49,8.69-1.34,13.13-.96,16.8,1.41,26.92,11.47,33.8,25.9,8.22,17.25,11.11,35.68,12.18,54.5,2.02,35.43-3.93,69.96-11.49,104.36-5.75,26.17-8.8,52.74-10.4,79.51-1.41,23.63-1.24,47.25-.48,70.85,.65,20.27,2.82,40.49,4.19,60.74,.32,4.7,.13,9.44,.17,14.16h-1.89ZM337.1,82.26c-.52-.56-1.26-1.02-1.53-1.68-2.72-6.6-4.63-7.02-9.61-1.94-1.21,1.23-2.31,2.58-3.35,3.96-18.02,24.13-41.58,39.98-70.82,47.15-19.65,4.82-37.74,1.98-53.42-11.75-10.12-8.86-15.52-20.42-19.13-33.02-3.12-10.92-5.11-22.09-7.19-33.24-.7-3.75-2.25-4.42-5.47-2.75-5.33,2.77-9.24,6.58-9.82,12.91-1.6,17.56-3.17,35.13-1.03,52.77,2.6,21.43,8.89,41.58,21.23,59.47,18.32,26.56,48.9,35.15,78.23,22.01,24.74-11.09,44.44-28.34,60.1-50.32,8.6-12.08,16.94-24.34,19.98-39.27,.23-1.15,.68-2.09,1.83-2.55v-21.75ZM248.34,0c-1.63,.54-3.23,1.25-4.9,1.6-9.74,2.01-15.27,7.78-17.03,17.7-2.74,15.4-4.54,30.79-2.7,46.44,.85,7.26,5.01,11.45,12.24,11.84,13.01,.71,24.78-8.55,28.42-22.34,4.04-15.31,3.49-30.8,1.74-46.32-.43-3.77-2.19-6.86-5.5-8.93C256.52,0,252.43,0,248.34,0Z"/>
  </g>
</svg>