<?xml version="1.0" encoding="UTF-8"?>
<svg id="Layer_2" data-name="Layer 2" xmlns="http://www.w3.org/2000/svg" viewBox="0 0 78.33 100">
  <defs>
    <style>
      .cls-1 {
        fill: #fff;
      }
    </style>
  </defs>
  <g id="Layer_1-2" data-name="Layer 1">
    <path class="cls-1" d="M31.25,93.4c-.18-.5-.58-.49-.86-.65-2.45-1.36-3.27-3.86-2.05-6.48,.33-.7-.1-.69-.46-.84-2.04-.88-3.15-2.53-3.11-4.65,.02-1.49,.67-2.63,1.75-3.5,.4-.32,.57-.54,.36-1.13-.79-2.22-.3-4.03,1.45-5.54,.4-.35,.55-.57,.24-1.13-1.16-2.15-.88-4.12,.8-5.8,.41-.41,.53-.59,0-1.02-1.38-1.12-2-2.62-1.68-4.49,.08-.49-.03-.76-.48-.9-1.45-.45-2.59-1.32-3.17-2.87-.18-.48-.51-.39-.85-.36-1.13,.08-2.24,.07-3.29-.48-.99-.52-1.77-1.27-2.2-2.36-.25-.63-.53-.72-1.13-.48-2.21,.87-4.16,.36-5.82-1.43-.59-.64-1.01-1.43-1.05-2.31-.05-.9-.46-1.09-1.17-1.18-2.29-.3-3.76-1.67-4.2-3.79-.15-.72-.07-1.41,.11-2.09,.14-.51,.06-.8-.45-.99-2.74-1.01-4.02-4.75-2.15-7.34,.25-.34,.16-.54-.12-.83-2.31-2.39-2.27-4.99,.13-7.25,.35-.33,.35-.49,.08-.87-2.12-3.01-.82-6.82,2.64-7.71,.71-.18,.96-.37,.83-1.25-.41-2.7,1.7-5.26,4.34-5.44,.31-.02,.63-.04,.93,0,.6,.07,.86-.21,1.05-.84,.95-3.24,3.69-4.7,6.74-3.63,.44,.15,.74,.29,1.05-.32,1.52-3.03,5.31-3.86,7.87-1.69,.63,.53,.92,.51,1.51-.05,1.78-1.68,4.62-1.84,6.63-.42,.55,.39,.88,.45,1.44-.01,2.37-1.94,5.48-1.6,7.49,.8,.38,.45,.6,.35,1,.07,2.04-1.49,4.14-1.48,6.24-.17,.63,.39,1.17,.94,1.44,1.67,.25,.67,.62,.67,1.17,.55,2.85-.63,5.23,.88,6.07,3.88,.13,.46,.35,.65,.74,.78,2.25,.77,3.63,2.28,3.62,4.96,0,.55,.28,.65,.7,.71,1.11,.14,2.13,.55,2.97,1.36,1.11,1.07,1.67,2.4,1.41,4.04-.08,.52,.03,.86,.48,1.17,2.43,1.64,2.97,3.13,2.22,6.07-.11,.44,.05,.59,.33,.8,2.26,1.64,2.77,3.11,1.96,5.9-.18,.61,.17,.76,.47,1.03,1.81,1.64,2.33,4.26,.95,6.09-.77,1.03-.72,1.48,.11,2.4,1.12,1.25,1.25,2.89,.56,4.5-.25,.59-.28,.96,.19,1.48,1.5,1.66,1.66,3.74,.54,5.71-.14,.25-.41,.46-.21,.8,1.09,1.89,.54,3.77-.09,5.6-.26,.74-.28,1.34,0,2.09,.72,1.89,.13,3.75-1.59,5.22-.43,.37-.56,.66-.36,1.26,.81,2.42-.07,4.68-2.26,5.74-.73,.35-.88,.65-.59,1.48,.79,2.29,.29,3.83-1.57,5.2-.38,.28-.48,.56-.34,1.01,.77,2.41-.74,5.19-3.26,5.84-.42,.11-.69,.28-.84,.8-.85,3.09-2.32,4.27-5.3,4.27-.52,0-.77,.14-.97,.66-1.18,3.1-4.67,4.35-7.42,2.62-.66-.42-.95-.32-1.42,.3-2.01,2.68-6.13,2.63-8.11-.1-.44-.6-.65-.51-1.14-.1-2.63,2.24-6.51,1.41-8.12-1.74-.3-.58-.48-.58-.84-.11-.49,.65-1.05,1.24-1.5,1.93-1.28,1.96-2.45,2.55-4.62,1.99-2.11-.55-4.18-1.26-6.22-2.1-3.06-1.27-6.3-1.54-9.56-1.29-2.87,.22-5.67,.82-8.4,1.81-.94,.34-1.7-.11-1.93-1.16-.31-1.43-.56-2.88-.8-4.34-.13-.77,.17-1.38,.82-1.75,.64-.36,1.27-.71,1.92-1.04,.44-.23,.48-.48,.24-.95-.88-1.68-.85-1.78,.27-3.28,.68-.92,1.32-1.87,2.01-2.78,1-1.34,1.92-1.39,3.05-.15,.59,.64,1.15,1.32,1.73,1.97,.15,.16,.28,.43,.52,.38,.27-.07,.19-.38,.23-.6,.17-1.02,.37-2.04,.49-3.07,.12-1.01,.5-1.79,1.5-1.86,1.03-.07,1.42,.76,1.69,1.68,1.13,3.75,3.13,6.83,6.17,9.09,.64,.48,1.27,.82,2.08,.54,.2-.07,.45-.08,.65-.03,2.51,.74,5.16,1,7.43,2.52,.04,.03,.12,0,.29,0Zm-2.63-45.33c2.63-.24,5.7,2.44,4.91,5.76-.13,.57,.24,.66,.6,.8,3.46,1.36,4.31,5.06,1.84,8.02-.29,.35-.36,.54,.03,.85,2.33,1.84,2.34,5.74-.18,7.56-.35,.25-.4,.46-.18,.89,1.25,2.43,.9,4.44-1.1,6.23-.44,.39-.43,.69-.24,1.19,.47,1.2,.49,2.44-.1,3.6-.4,.78-.22,1.05,.51,1.34,1.9,.74,3.09,2.5,2.95,4.41-.05,.73,.17,.7,.7,.71,1.75,.04,3.32,.58,4.39,2.21,.24,.36,.4,.5,.8,.16,2.05-1.78,4.24-1.88,6.52-.52,.35,.21,.59,.26,.88-.12,1.19-1.56,2.76-2.24,4.61-2.2,.38,0,.66-.12,.79-.54,.57-1.83,1.83-2.82,3.5-3.27,.4-.11,.57-.35,.61-.76,.19-1.87,1.13-3.16,2.72-3.89,.49-.22,.53-.48,.41-1-.51-2.11,.1-3.83,1.72-5.13,.35-.28,.46-.49,.31-.98-.71-2.32-.2-4.06,1.6-5.48,.46-.36,.58-.66,.36-1.24-.67-1.81-.32-3.43,.96-4.78,.34-.36,.44-.63,.21-1.12-.67-1.46-.46-2.88,.34-4.2,.3-.49,.24-.79-.05-1.24-.95-1.47-1.28-3.06-.45-4.73,.25-.5,.08-.77-.22-1.12-1.67-1.95-1.73-4.36-.12-6.35,.4-.5,.4-.74-.05-1.2-1.31-1.35-1.76-2.99-1.08-4.85,.23-.64,.07-.94-.39-1.33-1.47-1.26-1.99-3.14-1.35-5.05,.22-.67,.05-.92-.45-1.25-1.56-1.04-2.4-2.55-2.14-4.55,.09-.7-.07-1.01-.63-1.33-1.33-.76-2.35-1.89-2.4-3.58-.03-1.05-.33-1.42-1.27-1.6-1.98-.38-3.32-1.63-3.8-3.79-.12-.56-.47-.65-.85-.77-1.34-.42-2.43-1.2-3.12-2.54-.24-.46-.51-.56-.98-.46-2.11,.43-3.97-.06-5.38-1.9-.34-.44-.56-.44-.98-.13-2.15,1.56-4.35,1.67-6.55,.13-.41-.29-.67-.27-1.07,.03-2.41,1.88-4.91,1.82-7.19-.16-.28-.24-.43-.38-.76-.04-1.71,1.76-3.71,2.22-5.95,1.39-.38-.14-.62-.12-.82,.33-1.06,2.31-2.86,3.13-5.16,2.91-.32-.03-.64-.06-.71,.42-.37,2.61-2.01,3.81-4.21,4.34-.45,.11-.57,.26-.46,.73,.46,1.92-.08,3.51-1.48,4.75-.39,.35-.45,.55-.1,1.01,1.49,1.95,1.41,4.24-.2,6.09-.41,.47-.4,.78-.09,1.28,.68,1.07,1.18,2.23,1.09,3.56-.05,.77,.26,1.04,.9,1.23,1.97,.59,3.13,2.01,3.37,4.2,.08,.69,.37,.78,.9,.83,1.71,.16,3.16,.9,3.93,2.63,.35,.78,.66,.78,1.32,.51,2.34-.97,5.04-.2,6.11,1.92,.55,1.09,1.14,1.4,2.15,1.16,.06-.01,.12,0,.19,0Z"/>
  </g>
</svg>