<?xml version="1.0" encoding="UTF-8"?>
<svg id="Layer_2" data-name="Layer 2" xmlns="http://www.w3.org/2000/svg" viewBox="0 0 91.74 100">
  <defs>
    <style>
      .cls-1 {
        fill: #fff;
      }
    </style>
  </defs>
  <g id="Layer_1-2" data-name="Layer 1">
    <g>
      <path class="cls-1" d="M47.45,0c4.39,1.53,6.07,3.92,6.08,8.62,0,1.27,0,2.53,0,4.04,.2-.39,.32-.59,.41-.8,1.31-2.89,4.62-4.81,7.69-4.46,3.34,.39,6.06,2.82,6.67,6.06,.17,.89,.21,1.81,.21,2.72,.01,12.55,0,25.1,0,37.65v1.24c.45,.1,.61-.21,.82-.37,5.37-4.13,12.4-4.25,17.87-.29,1.34,.97,2.67,1.97,4.02,2.92,.56,.4,.71,.69,.18,1.29-5,5.61-9.96,11.24-14.95,16.85-.46,.52-.67,1.04-.68,1.74-.22,11.18-9.43,21.27-20.55,22.56-3.5,.41-7.01,.16-10.52,.18-2.66,.02-5.33,.19-7.99-.16-9.83-1.31-17.72-8.37-20.08-17.98-.38-1.55-.66-3.12-.64-4.72,0-.63-.19-1.1-.61-1.57-4.95-5.56-9.88-11.13-14.82-16.7-.78-.88-.79-.88,.18-1.58,1.66-1.2,3.25-2.52,4.99-3.58,5.18-3.15,11.51-2.78,16.4,.84,.31,.23,.61,.45,.94,.69,.29-.44,.16-.87,.16-1.27,0-12.71,0-25.42,0-38.13,0-2.17,.44-4.19,1.99-5.84,3.85-4.09,10.17-3.11,12.58,1.96,.09,.2,.19,.4,.42,.58,0-1.31,0-2.63,0-3.94,0-4.58,1.76-7.05,6.08-8.53h3.12Zm-1.8,87.81c5.08-.02,9.12-1.97,12.25-5.63,2.25-2.64,4.23-5.52,6.33-8.28,.27-.36,.31-.67,.03-1.05-2.57-3.39-4.88-6.98-8.03-9.9-5.95-5.5-14.73-5.5-20.68,0-3.16,2.92-5.45,6.53-8.03,9.9-.33,.43-.19,.76,.09,1.13,2.02,2.67,3.94,5.43,6.08,7.99,3.14,3.74,7.19,5.8,11.97,5.85Z"/>
      <path class="cls-1" d="M45.9,64.5c2.54-.01,4.67,.92,6.51,2.55,1.89,1.67,3.31,3.74,4.79,5.75,.3,.41,.26,.76-.03,1.15-1.4,1.88-2.73,3.79-4.44,5.42-3.86,3.67-9.18,3.84-13.23,.38-1.97-1.68-3.41-3.82-4.93-5.88-.28-.37-.23-.71,.03-1.06,1.5-2.04,2.94-4.14,4.87-5.81,1.86-1.61,3.99-2.52,6.44-2.48Zm-.09,11.71c.72,0,1.43-.02,2.15,0,.59,.02,.81-.23,.8-.81-.02-1.37-.03-2.73,0-4.1,.02-.66-.28-.85-.89-.82-.65,.03-1.3-.02-1.95,.01-.9,.04-2.04-.39-2.64,.18-.65,.62-.22,1.79-.23,2.71-.03,2.82-.01,2.82,2.77,2.81Z"/>
    </g>
  </g>
</svg>