<?xml version="1.0" encoding="UTF-8"?>
<svg id="Layer_2" data-name="Layer 2" xmlns="http://www.w3.org/2000/svg" viewBox="0 0 98.88 100">
  <defs>
    <style>
      .cls-1 {
        fill: #fff;
      }
    </style>
  </defs>
  <g id="Layer_1-2" data-name="Layer 1">
    <g>
      <path class="cls-1" d="M33.66,68.84c0-3.96,0-7.93,0-11.89,0-.6,.14-1.36-.7-1.54-.79-.17-1.04,.53-1.33,1.07-1.99,3.73-3.88,7.53-5.99,11.19-3.91,6.77-9.83,10.36-17.66,10.7-3.59,.16-6.04-1.99-6.18-5.34-.13-3.21,2.22-5.65,5.71-5.77,3.55-.12,6.44-1.51,8.79-4.14,1.67-1.87,2.43-4.11,2.85-6.52,.79-4.58,1.71-9.11,4.4-13.05,4.89-7.16,11.68-10.99,20.3-11.29,4.44-.16,8.91-.38,13.34,.17,11.24,1.4,19.44,9.04,21.75,20.15,.38,1.83,.68,3.68,1.1,5.5,1.24,5.32,5.63,8.93,11.09,9.16,4.22,.18,6.7,3.29,5.7,7.16-.63,2.45-2.64,4.04-5.33,3.99-7.89-.12-13.97-3.56-18.03-10.31-2.18-3.62-4.01-7.45-6.01-11.17-.23-.43-.43-.92-.78-1.23-.6-.54-1.18-.42-1.4,.4-.12,.46-.08,.97-.08,1.46,0,7.57-.03,15.14,.02,22.72,.01,1.42-.42,2.15-1.81,2.61-3.61,1.19-7.01,2.85-10.05,5.18-.99,.76-1.85,1.67-2.68,2.6-.69,.76-1.8,.82-2.45,.05-3.24-3.8-7.57-5.83-12.07-7.61-2.58-1.01-2.49-.31-2.49-3.55,0-3.56,0-7.13,0-10.69Z"/>
      <path class="cls-1" d="M75.06,99.96c-3.67-.15-8.04,.26-12.39-.24-2.27-.26-4.47-.76-6.58-1.65-.49-.21-.97-.45-1.43-.71-4.02-2.27-4.24-4.57-.67-7.43,3.64-2.91,7.87-4.68,12.25-6.11,6.48-2.11,13.16-3.06,19.94-3.44,4.21-.24,7.96,.86,10.75,4.24,2.52,3.05,2.63,6.8,.25,9.96-2.74,3.64-6.54,5.26-11,5.37-3.47,.09-6.95,.02-11.11,.02Z"/>
      <path class="cls-1" d="M23.33,99.99c-4.14-.2-8.39,.29-12.6-.28-3.72-.5-6.92-2.03-9.14-5.17-2.32-3.28-2.07-7.17,.61-10.18,2.83-3.17,6.46-4.26,10.59-3.99,6.5,.43,12.93,1.28,19.17,3.24,4.61,1.45,9.05,3.25,12.88,6.31,.28,.22,.55,.45,.81,.7,2.49,2.34,2.4,4.06-.41,6.07-2.69,1.92-5.81,2.64-9.02,3.03-4.26,.52-8.54,.1-12.89,.28Z"/>
      <path class="cls-1" d="M49.44,0c7.98,.02,14.06,6.12,14.01,14.06-.05,7.97-6.15,14.02-14.1,13.99-7.93-.03-13.99-6.18-13.94-14.14C35.45,6.01,41.53-.02,49.44,0Z"/>
    </g>
  </g>
</svg>