<?xml version="1.0" encoding="UTF-8"?>
<svg id="Layer_2" data-name="Layer 2" xmlns="http://www.w3.org/2000/svg" viewBox="0 0 791.66 193.46">
  <defs>
    <style>
      .cls-1 {
        fill: #fff;
      }
    </style>
  </defs>
  <g id="Layer_1-2" data-name="Layer 1">
    <g>
      <path class="cls-1" d="M98.73,3.48l-7.14,15.53-.62-4.19c1.37,0,2.59,.33,3.66,.98,1.07,.66,1.93,1.5,2.59,2.54,.65,1.04,.98,2.22,.98,3.52s-.33,2.5-.98,3.57c-.65,1.07-1.52,1.92-2.59,2.54-1.07,.62-2.29,.94-3.66,.94s-2.51-.31-3.61-.94c-1.1-.62-1.98-1.5-2.63-2.63-.65-1.13-.98-2.38-.98-3.75s.28-2.8,.85-4.28c.56-1.49,1.59-3.42,3.08-5.8l4.82-8.03h6.25Zm18.65,0l-7.14,15.53-.62-4.19c1.37,0,2.59,.33,3.66,.98,1.07,.66,1.93,1.5,2.59,2.54,.65,1.04,.98,2.22,.98,3.52s-.33,2.5-.98,3.57c-.66,1.07-1.52,1.92-2.59,2.54-1.07,.62-2.29,.94-3.66,.94s-2.51-.31-3.61-.94c-1.1-.62-1.98-1.5-2.63-2.63-.66-1.13-.98-2.38-.98-3.75s.28-2.8,.85-4.28c.56-1.49,1.59-3.42,3.08-5.8l4.82-8.03h6.25Z"/>
      <path class="cls-1" d="M122.74,3.48h67.1V13.83H122.74V3.48Zm27.66,5.44h11.78v61.48h-11.78V8.92Z"/>
      <path class="cls-1" d="M197.43,1.7h11.6V70.4h-11.6V1.7Zm31.68,16.95c4.76,0,8.8,.95,12.14,2.86,3.33,1.9,5.87,4.63,7.63,8.17,1.75,3.54,2.63,7.81,2.63,12.8v27.93h-11.6v-26.06c0-5.29-1.24-9.29-3.7-12-2.47-2.71-6.08-4.06-10.84-4.06-3.27,0-6.14,.73-8.61,2.19-2.47,1.46-4.37,3.5-5.71,6.11-1.34,2.62-2.01,5.68-2.01,9.19l-4.11-2.23c.54-5.23,1.9-9.7,4.11-13.38,2.2-3.69,5.03-6.53,8.48-8.52,3.45-1.99,7.32-2.99,11.6-2.99Z"/>
      <path class="cls-1" d="M290.67,71.65c-5.89,0-11.12-1.12-15.71-3.35s-8.18-5.34-10.8-9.32c-2.62-3.98-3.93-8.62-3.93-13.92s1.23-9.83,3.7-13.79c2.47-3.96,5.89-7.05,10.26-9.28,4.37-2.23,9.38-3.35,15.04-3.35s10.54,1.26,14.68,3.79c4.13,2.53,7.33,6.08,9.59,10.66,2.26,4.58,3.39,9.96,3.39,16.15h-47.56v-8.83h41.76l-5.8,3.3c-.18-3.33-.97-6.19-2.37-8.57-1.4-2.38-3.27-4.21-5.62-5.49-2.35-1.28-5.13-1.92-8.34-1.92-3.39,0-6.35,.68-8.88,2.05-2.53,1.37-4.51,3.29-5.93,5.76-1.43,2.47-2.14,5.4-2.14,8.79,0,3.75,.85,6.99,2.54,9.73,1.7,2.74,4.1,4.83,7.23,6.29,3.12,1.46,6.83,2.19,11.11,2.19,3.87,0,7.82-.61,11.87-1.83,4.04-1.22,7.61-2.93,10.71-5.13v8.39c-3.09,2.38-6.86,4.25-11.29,5.62s-8.94,2.05-13.52,2.05Z"/>
      <path class="cls-1" d="M362.33,41.67c0,3.99,.8,7.44,2.41,10.35,1.61,2.92,3.91,5.16,6.92,6.74s6.59,2.36,10.75,2.36,7.82-.79,10.8-2.36,5.27-3.82,6.87-6.74c1.61-2.91,2.41-6.36,2.41-10.35V3.48h11.78V42.12c0,5.89-1.34,11.05-4.02,15.48-2.68,4.43-6.39,7.88-11.15,10.35-4.76,2.47-10.32,3.7-16.69,3.7s-11.85-1.23-16.64-3.7c-4.79-2.47-8.52-5.92-11.2-10.35s-4.02-9.59-4.02-15.48V3.48h11.78V41.67Z"/>
      <path class="cls-1" d="M424.07,19.9h11.6l3.04,18.2v32.3h-11.6V36.41l-3.03-16.51Zm34.71-1.25c4.76,0,8.8,.95,12.14,2.86,3.33,1.9,5.87,4.63,7.63,8.17,1.75,3.54,2.63,7.81,2.63,12.8v27.93h-11.6v-26.06c0-5.29-1.23-9.29-3.7-12-2.47-2.71-6.08-4.06-10.84-4.06-3.27,0-6.14,.73-8.61,2.19-2.47,1.46-4.37,3.5-5.71,6.11-1.34,2.62-2.01,5.68-2.01,9.19l-4.11-2.23c.54-5.23,1.9-9.7,4.11-13.38,2.2-3.69,5.03-6.53,8.48-8.52,3.45-1.99,7.32-2.99,11.6-2.99Z"/>
      <path class="cls-1" d="M498.58,13.21c-2.2,0-4.02-.61-5.44-1.83-1.43-1.22-2.14-2.81-2.14-4.77s.71-3.55,2.14-4.77c1.43-1.22,3.24-1.83,5.44-1.83s4.09,.61,5.49,1.83c1.4,1.22,2.1,2.81,2.1,4.77s-.7,3.56-2.1,4.77c-1.4,1.22-3.23,1.83-5.49,1.83Zm-5.8,6.34l5.8,1.07,5.8-1.07v50.86h-11.6V19.54Z"/>
      <path class="cls-1" d="M567.38,45.15c-1.13,5.3-3.01,9.93-5.62,13.92-2.62,3.99-5.84,7.08-9.68,9.28-3.84,2.2-8.11,3.3-12.8,3.3-4.94,0-9.31-1.12-13.12-3.35s-6.78-5.34-8.92-9.32c-2.14-3.98-3.21-8.6-3.21-13.83s1.07-9.92,3.21-13.88c2.14-3.96,5.12-7.05,8.92-9.28,3.81-2.23,8.18-3.35,13.12-3.35s8.97,1.1,12.8,3.3c3.84,2.2,7.08,5.28,9.73,9.24s4.51,8.61,5.58,13.96Zm-41.58,0c0,3.39,.7,6.38,2.1,8.97s3.32,4.61,5.76,6.07c2.44,1.46,5.23,2.19,8.39,2.19s6.19-.73,8.92-2.19c2.74-1.46,5.16-3.48,7.27-6.07,2.11-2.59,3.79-5.58,5.04-8.97-1.25-3.39-2.93-6.38-5.04-8.97-2.11-2.59-4.54-4.61-7.27-6.07-2.74-1.46-5.71-2.19-8.92-2.19s-5.95,.73-8.39,2.19c-2.44,1.46-4.36,3.48-5.76,6.07s-2.1,5.58-2.1,8.97Zm48.72-25.25V85.13h-11.6V52.56l.54-3.12v-10.17l-.54-1.79V19.9h11.6Z"/>
      <path class="cls-1" d="M607.98,71.65c-4.64,0-8.58-.95-11.82-2.85-3.24-1.9-5.73-4.64-7.45-8.21-1.73-3.57-2.59-7.82-2.59-12.76V19.9h11.6v26.14c0,5.24,1.21,9.21,3.62,11.91,2.41,2.71,5.87,4.06,10.39,4.06,3.27,0,6.08-.71,8.43-2.14,2.35-1.43,4.18-3.46,5.49-6.11,1.31-2.65,1.96-5.72,1.96-9.24l4.02,2.23c-.48,5.17-1.78,9.62-3.93,13.34-2.14,3.72-4.91,6.57-8.3,8.57s-7.2,2.99-11.42,2.99Zm22.58-1.25l-2.95-18.2V19.9h11.6V53.99l2.94,16.42h-11.6Z"/>
      <path class="cls-1" d="M679.72,71.65c-5.89,0-11.12-1.12-15.71-3.35s-8.18-5.34-10.8-9.32c-2.62-3.98-3.93-8.62-3.93-13.92s1.23-9.83,3.7-13.79c2.47-3.96,5.89-7.05,10.26-9.28,4.37-2.23,9.38-3.35,15.04-3.35s10.54,1.26,14.68,3.79c4.13,2.53,7.33,6.08,9.59,10.66,2.26,4.58,3.39,9.96,3.39,16.15h-47.56v-8.83h41.76l-5.8,3.3c-.18-3.33-.97-6.19-2.37-8.57-1.4-2.38-3.27-4.21-5.62-5.49-2.35-1.28-5.13-1.92-8.34-1.92-3.39,0-6.35,.68-8.88,2.05-2.53,1.37-4.51,3.29-5.93,5.76-1.43,2.47-2.14,5.4-2.14,8.79,0,3.75,.85,6.99,2.54,9.73,1.7,2.74,4.1,4.83,7.23,6.29,3.12,1.46,6.83,2.19,11.11,2.19,3.87,0,7.82-.61,11.87-1.83,4.04-1.22,7.61-2.93,10.71-5.13v8.39c-3.09,2.38-6.86,4.25-11.29,5.62s-8.94,2.05-13.52,2.05Z"/>
      <path class="cls-1" d="M0,145.45H11.6v2.95c0,6.25,1.46,11.11,4.37,14.59,2.91,3.48,7.64,5.22,14.19,5.22s11.29-1.7,14.23-5.09,4.42-8.06,4.42-14.01v-38.55h11.78v38.99c0,6.42-1.28,11.81-3.84,16.15-2.56,4.34-6.13,7.6-10.71,9.77-4.58,2.17-9.88,3.26-15.88,3.26s-11.2-1.1-15.75-3.3-8.09-5.5-10.62-9.9c-2.53-4.4-3.79-9.88-3.79-16.42v-3.66Z"/>
      <path class="cls-1" d="M100.3,178.73c-5.89,0-11.12-1.12-15.71-3.35-4.58-2.23-8.18-5.34-10.8-9.32-2.62-3.98-3.93-8.62-3.93-13.92s1.23-9.83,3.7-13.79c2.47-3.96,5.89-7.05,10.26-9.28,4.37-2.23,9.38-3.35,15.04-3.35s10.54,1.26,14.68,3.79c4.13,2.53,7.33,6.08,9.59,10.66,2.26,4.58,3.39,9.96,3.39,16.15h-47.56v-8.83h41.76l-5.8,3.3c-.18-3.33-.97-6.19-2.36-8.57-1.4-2.38-3.27-4.21-5.62-5.49s-5.13-1.92-8.34-1.92c-3.39,0-6.35,.68-8.88,2.05-2.53,1.37-4.51,3.29-5.93,5.76-1.43,2.47-2.14,5.4-2.14,8.79,0,3.75,.85,6.99,2.54,9.73,1.7,2.74,4.11,4.83,7.23,6.29,3.12,1.46,6.83,2.19,11.11,2.19,3.87,0,7.82-.61,11.87-1.83s7.62-2.93,10.71-5.13v8.39c-3.09,2.38-6.86,4.25-11.29,5.62s-8.94,2.05-13.52,2.05Z"/>
      <path class="cls-1" d="M199.79,171.5h-4.11l17.4-44.53h11.6l-20.34,50.51h-11.87l-17.85-45.24h4.55l-18.29,45.24h-11.87l-20.26-50.51h11.78l17.49,44.53h-4.37l17.49-44.53h11.6l17.04,44.53Z"/>
      <path class="cls-1" d="M257.43,178.73c-5.89,0-11.12-1.12-15.71-3.35s-8.18-5.34-10.8-9.32c-2.62-3.98-3.93-8.62-3.93-13.92s1.23-9.83,3.7-13.79c2.47-3.96,5.89-7.05,10.26-9.28,4.37-2.23,9.38-3.35,15.04-3.35s10.54,1.26,14.68,3.79c4.13,2.53,7.33,6.08,9.59,10.66,2.26,4.58,3.39,9.96,3.39,16.15h-47.56v-8.83h41.76l-5.8,3.3c-.18-3.33-.97-6.19-2.37-8.57-1.4-2.38-3.27-4.21-5.62-5.49-2.35-1.28-5.13-1.92-8.34-1.92-3.39,0-6.35,.68-8.88,2.05-2.53,1.37-4.51,3.29-5.93,5.76-1.43,2.47-2.14,5.4-2.14,8.79,0,3.75,.85,6.99,2.54,9.73,1.7,2.74,4.1,4.83,7.23,6.29,3.12,1.46,6.83,2.19,11.11,2.19,3.87,0,7.82-.61,11.87-1.83,4.04-1.22,7.61-2.93,10.71-5.13v8.39c-3.09,2.38-6.86,4.25-11.29,5.62s-8.94,2.05-13.52,2.05Z"/>
      <path class="cls-1" d="M293.22,108.77h11.6v68.71h-11.6V108.77Z"/>
      <path class="cls-1" d="M368.71,178.73c-6.13,0-11.5-1.12-16.11-3.35-4.61-2.23-8.21-5.34-10.8-9.32-2.59-3.98-3.88-8.6-3.88-13.83s1.29-9.92,3.88-13.88c2.59-3.96,6.19-7.05,10.8-9.28,4.61-2.23,9.98-3.35,16.11-3.35s11.49,1.12,16.11,3.35c4.61,2.23,8.21,5.32,10.8,9.28,2.59,3.96,3.88,8.58,3.88,13.88s-1.29,9.85-3.88,13.83c-2.59,3.99-6.19,7.09-10.8,9.32-4.61,2.23-9.98,3.35-16.11,3.35Zm0-9.1c3.93,0,7.3-.71,10.13-2.14,2.82-1.43,5.01-3.44,6.56-6.02s2.32-5.67,2.32-9.24-.77-6.65-2.32-9.24-3.73-4.6-6.56-6.02c-2.83-1.43-6.2-2.14-10.13-2.14s-7.23,.71-10.08,2.14-5.06,3.44-6.6,6.02-2.32,5.67-2.32,9.24,.77,6.65,2.32,9.24,3.75,4.6,6.6,6.02,6.21,2.14,10.08,2.14Z"/>
      <path class="cls-1" d="M403.68,139.38v-8.92h45.51v8.92h-45.51Zm35.25-22.84c-4.34,0-7.57,.92-9.68,2.77-2.11,1.84-3.17,4.85-3.17,9.01v49.17h-11.6v-48.1c0-4.34,.82-8.15,2.45-11.42,1.63-3.27,4.16-5.83,7.58-7.67,3.42-1.84,7.78-2.77,13.07-2.77,2.56,0,4.82,.21,6.78,.62,1.96,.42,3.89,.95,5.8,1.61v9.1c-1.73-.83-3.51-1.43-5.35-1.78-1.84-.36-3.81-.54-5.89-.54Z"/>
      <path class="cls-1" d="M472.3,110.56h13.29l27.3,34.26h-6.34l27.31-34.26h13.29l-33.64,42.21-7.5,.09-33.73-42.29Zm31.59,66.92v-31.95h11.78v31.95h-11.78Z"/>
      <path class="cls-1" d="M567.69,178.73c-6.13,0-11.5-1.12-16.11-3.35-4.61-2.23-8.21-5.34-10.8-9.32-2.59-3.98-3.88-8.6-3.88-13.83s1.29-9.92,3.88-13.88c2.59-3.96,6.19-7.05,10.8-9.28,4.61-2.23,9.98-3.35,16.11-3.35s11.49,1.12,16.11,3.35c4.61,2.23,8.21,5.32,10.8,9.28,2.59,3.96,3.88,8.58,3.88,13.88s-1.29,9.85-3.88,13.83c-2.59,3.99-6.19,7.09-10.8,9.32-4.61,2.23-9.98,3.35-16.11,3.35Zm0-9.1c3.93,0,7.3-.71,10.13-2.14,2.82-1.43,5.01-3.44,6.56-6.02s2.32-5.67,2.32-9.24-.77-6.65-2.32-9.24-3.73-4.6-6.56-6.02c-2.83-1.43-6.2-2.14-10.13-2.14s-7.23,.71-10.08,2.14-5.06,3.44-6.6,6.02-2.32,5.67-2.32,9.24,.77,6.65,2.32,9.24,3.75,4.6,6.6,6.02,6.21,2.14,10.08,2.14Z"/>
      <path class="cls-1" d="M629.53,173.56c-4.64,0-8.8-1-12.49-2.99-3.69-1.99-6.6-4.77-8.75-8.34-2.14-3.57-3.21-7.76-3.21-12.58s1.07-9.01,3.21-12.58c2.14-3.57,5.06-6.35,8.75-8.34,3.69-1.99,7.85-2.99,12.49-2.99,3.45,0,6.65,.54,9.59,1.61,2.95,1.07,5.59,2.48,7.94,4.24,2.35,1.76,4.34,3.69,5.98,5.8,1.64,2.11,2.9,4.25,3.79,6.42,.89,2.17,1.34,4.15,1.34,5.93,0,2.32-.68,4.86-2.05,7.63s-3.32,5.37-5.84,7.81c-2.53,2.44-5.55,4.45-9.06,6.02-3.51,1.58-7.41,2.36-11.69,2.36Zm24.27-8.48v-8.92l.45-1.61v-9.73l-.45-1.78v-16.06h11.6v37.03c0,6.48-1.37,11.91-4.11,16.29-2.74,4.37-6.48,7.66-11.24,9.86-4.76,2.2-10.23,3.3-16.42,3.3-4.52,0-8.69-.6-12.49-1.79-3.81-1.19-7.49-3-11.06-5.44v-9.64c3.63,2.86,7.38,4.86,11.24,6.02,3.87,1.16,7.73,1.74,11.6,1.74,6.78,0,11.96-1.67,15.53-5,3.57-3.33,5.36-8.09,5.36-14.28Zm-20.7-.09c4.22,0,8.11-1.22,11.64-3.66,3.54-2.44,6.71-6.33,9.5-11.69-2.8-5.47-5.96-9.41-9.5-11.82s-7.42-3.61-11.64-3.61c-3.45,0-6.39,.65-8.83,1.96s-4.3,3.12-5.58,5.44c-1.28,2.32-1.92,5-1.92,8.03s.64,5.62,1.92,7.94c1.28,2.32,3.14,4.14,5.58,5.44,2.44,1.31,5.38,1.96,8.83,1.96Z"/>
      <path class="cls-1" d="M728.13,152.23c-1.13,5.3-3.01,9.93-5.62,13.92-2.62,3.99-5.84,7.08-9.68,9.28-3.84,2.2-8.11,3.3-12.8,3.3-4.94,0-9.31-1.12-13.12-3.35s-6.78-5.34-8.92-9.32c-2.14-3.98-3.21-8.6-3.21-13.83s1.07-9.92,3.21-13.88c2.14-3.96,5.12-7.05,8.92-9.28,3.81-2.23,8.18-3.35,13.12-3.35s8.97,1.1,12.8,3.3c3.84,2.2,7.08,5.28,9.73,9.24s4.51,8.61,5.58,13.96Zm-41.58,0c0,3.39,.7,6.38,2.1,8.97s3.32,4.61,5.76,6.07c2.44,1.46,5.23,2.19,8.39,2.19s6.19-.73,8.92-2.19c2.74-1.46,5.16-3.48,7.27-6.07,2.11-2.59,3.79-5.58,5.04-8.97-1.25-3.39-2.93-6.38-5.04-8.97-2.11-2.59-4.54-4.61-7.27-6.07-2.74-1.46-5.71-2.19-8.92-2.19s-5.95,.73-8.39,2.19c-2.44,1.46-4.36,3.48-5.76,6.07s-2.1,5.58-2.1,8.97Zm38.01,25.25l-1.96-18.74,2.32-6.51-2.32-6.42,1.96-18.83h11.96l-2.68,25.25,2.68,25.25h-11.96Z"/>
      <path class="cls-1" d="M753.03,178.2c-1.37,0-2.6-.33-3.7-.98-1.1-.65-1.98-1.53-2.63-2.63-.66-1.1-.98-2.33-.98-3.7s.33-2.6,.98-3.7c.65-1.1,1.53-1.98,2.63-2.63,1.1-.65,2.33-.98,3.7-.98s2.6,.33,3.7,.98c1.1,.66,1.98,1.53,2.63,2.63,.65,1.1,.98,2.34,.98,3.7s-.33,2.6-.98,3.7c-.65,1.1-1.53,1.98-2.63,2.63-1.1,.65-2.33,.98-3.7,.98Z"/>
      <path class="cls-1" d="M758.03,135.28l7.14-15.53,.62,4.19c-1.31,0-2.51-.33-3.61-.98-1.1-.65-1.98-1.52-2.63-2.59-.65-1.07-.98-2.23-.98-3.48s.33-2.5,.98-3.57,1.53-1.92,2.63-2.54c1.1-.62,2.3-.94,3.61-.94s2.59,.31,3.66,.94c1.07,.62,1.93,1.49,2.59,2.59,.65,1.1,.98,2.36,.98,3.79,0,1.31-.28,2.71-.85,4.19-.57,1.49-1.59,3.45-3.08,5.89l-4.82,8.03h-6.25Zm18.65,0l7.14-15.53,.62,4.19c-1.31,0-2.51-.33-3.62-.98-1.1-.65-1.98-1.52-2.63-2.59-.66-1.07-.98-2.23-.98-3.48s.33-2.5,.98-3.57c.65-1.07,1.53-1.92,2.63-2.54,1.1-.62,2.3-.94,3.62-.94s2.59,.31,3.66,.94,1.93,1.49,2.59,2.59c.65,1.1,.98,2.36,.98,3.79,0,1.31-.28,2.71-.85,4.19-.56,1.49-1.59,3.45-3.08,5.89l-4.82,8.03h-6.25Z"/>
    </g>
  </g>
</svg>